<?xml version="1.0" encoding="UTF-8"?>
<svg version="1.1" xmlns="http://www.w3.org/2000/svg" width="500" height="500">
<path d="M0 0 C5.60827365 3.79239426 10.34077073 8.36765043 15.13671875 13.12109375 C16.12091797 14.03181641 16.12091797 14.03181641 17.125 14.9609375 C21.78641595 19.34374008 25.37321988 24.41882006 29.0234375 29.64453125 C30.87889988 32.1203639 30.87889988 32.1203639 32.921875 33.0859375 C36.38212329 33.14086208 39.57138087 32.19437675 42.88671875 31.30859375 C57.35240521 27.69761036 72.51213017 25.47420699 87.38671875 27.71484375 C88.09634766 27.82086914 88.80597656 27.92689453 89.53710938 28.03613281 C91.52310698 28.35296871 93.50218332 28.71233727 95.48046875 29.07421875 C100.30033591 29.13601192 102.06479452 27.62073741 106.13671875 25.12109375 C111.03506107 24.27701034 115.64804422 24.66304005 120.38671875 26.12109375 C125.01135799 29.48446775 129.30544405 33.62726966 131.13671875 39.12109375 C131.25464874 40.76388592 131.31183549 42.41162069 131.32421875 44.05859375 C131.33839844 44.91324219 131.35257812 45.76789063 131.3671875 46.6484375 C131.13671875 49.12109375 131.13671875 49.12109375 130.0625 51.0625 C127.66402514 56.39581751 131.48989695 63.58245802 133.19921875 68.8046875 C137.99582725 85.77269005 135.63057662 106.5227181 129.6875 122.98046875 C128.97959328 125.73176579 129.05188466 128.29329063 129.13671875 131.12109375 C130.21050781 131.26804688 131.28429687 131.415 132.390625 131.56640625 C146.82854124 133.74411682 146.82854124 133.74411682 151.03515625 138.05859375 C153.00752966 141.75154822 153.06747015 145.82567595 153.4921875 149.9375 C154.52094683 155.01894761 157.57384801 157.57368015 161.13671875 161.12109375 C168.67575466 170.30731397 172.11020921 183.85150932 171.6171875 195.55078125 C168.60803698 217.91146071 155.28923312 234.26995537 137.85717773 247.60766602 C136.28991956 248.78713029 134.71367796 249.95463166 133.13671875 251.12109375 C132.34265625 251.71664063 131.54859375 252.3121875 130.73046875 252.92578125 C130.20453125 253.32023437 129.67859375 253.7146875 129.13671875 254.12109375 C129.79291243 260.07468434 130.84882514 265.83674339 132.13671875 271.68359375 C136.75794249 292.76374116 137.26606193 314.16994801 125.796875 333.36328125 C116.4883744 346.61693584 103.39651037 353.53505228 87.796875 356.42578125 C71.85844904 358.99723764 54.59101724 356.84552446 39.26953125 351.92578125 C35.89708215 351.05954121 34.33814532 350.76644052 31.13671875 352.12109375 C29.33291941 354.0985051 27.84732031 355.94848775 26.32421875 358.12109375 C25.4450718 359.31424508 24.5635427 360.50564471 23.6796875 361.6953125 C23.24833496 362.28103027 22.81698242 362.86674805 22.37255859 363.47021484 C11.71198036 377.71099517 -4.88004412 390.15713707 -22.86328125 393.12109375 C-37.60622695 394.84862933 -51.92401405 389.60291267 -63.86328125 381.12109375 C-67.37508235 378.28882876 -70.6347485 375.26984398 -73.86328125 372.12109375 C-75.02150391 371.03828125 -75.02150391 371.03828125 -76.203125 369.93359375 C-81.20740355 365.14317326 -85.16473307 360.11886018 -88.94140625 354.30859375 C-90.68297931 351.99894725 -90.68297931 351.99894725 -93.125 351.1953125 C-96.7582726 351.09683578 -99.96401461 351.95348985 -103.42578125 352.93359375 C-104.86639315 353.3129255 -106.30781022 353.68921208 -107.75 354.0625 C-108.45431152 354.24570801 -109.15862305 354.42891602 -109.88427734 354.61767578 C-129.28461073 359.55272235 -151.39379839 358.71546532 -169.1875 348.87109375 C-183.40267477 339.57416193 -189.87735652 327.13067574 -193.86328125 311.12109375 C-196.88436054 294.02713878 -194.1199527 277.11947619 -189.31640625 260.63671875 C-188.76645743 257.58355459 -188.7150946 256.02772372 -189.86328125 253.12109375 C-192.03991335 251.11660816 -194.11228831 249.41158862 -196.48828125 247.68359375 C-197.77656565 246.70641959 -199.06433281 245.72856311 -200.3515625 244.75 C-201.52205416 243.87358938 -202.69261664 242.99727333 -203.86328125 242.12109375 C-218.11895799 231.20458454 -228.099443 214.90178651 -230.86328125 197.12109375 C-232.5538161 181.87713291 -226.86027938 168.36858836 -217.859375 156.47265625 C-215.86328125 154.12109375 -215.86328125 154.12109375 -213.66015625 152.35546875 C-210.92697619 148.95681876 -211.19071504 145.61587335 -211.11328125 141.37109375 C-211.08363281 140.57832031 -211.05398437 139.78554687 -211.0234375 138.96875 C-210.95300338 137.02007281 -210.90584643 135.0705788 -210.86328125 133.12109375 C-207.23328125 133.12109375 -203.60328125 133.12109375 -199.86328125 133.12109375 C-199.36828125 135.10109375 -199.36828125 135.10109375 -198.86328125 137.12109375 C-195.56328125 134.81109375 -192.26328125 132.50109375 -188.86328125 130.12109375 C-189.56484532 122.96514029 -191.17113146 116.10254194 -192.86328125 109.12109375 C-193.43175781 109.04632813 -194.00023437 108.9715625 -194.5859375 108.89453125 C-200.72688302 107.84882767 -204.86020008 105.98970599 -208.86328125 101.12109375 C-211.99876034 96.08270321 -212.26319759 91.23798036 -211.4375 85.44921875 C-210.05882197 79.85947653 -206.55805362 76.21537554 -201.86328125 73.12109375 C-200.55009805 72.74127816 -199.23336373 72.37361138 -197.9140625 72.015625 C-195.46917418 71.11961159 -194.18354011 70.57460808 -192.67041016 68.43188477 C-191.74808835 66.31374104 -191.00436403 64.19641476 -190.30078125 61.99609375 C-187.7580358 55.04353666 -185.09547299 49.50115178 -179.86328125 44.12109375 C-179.2703125 43.50105469 -178.67734375 42.88101563 -178.06640625 42.2421875 C-165.26308808 29.9943852 -147.52049689 26.65624474 -130.3984375 26.8984375 C-119.5249385 27.2776624 -108.40989393 29.23915729 -98.08984375 32.66796875 C-95.20177978 33.2557151 -93.63833922 33.16877554 -90.86328125 32.12109375 C-89.10185578 30.18500592 -87.65992937 28.37448817 -86.17578125 26.24609375 C-85.2964194 25.05343765 -84.41352914 23.863376 -83.52734375 22.67578125 C-82.8607373 21.77811035 -82.8607373 21.77811035 -82.18066406 20.86230469 C-62.04137773 -5.75618867 -30.31183038 -17.33702476 0 0 Z M-75.42553711 24.55053711 C-75.92061768 25.1719458 -76.41569824 25.79335449 -76.92578125 26.43359375 C-77.40345947 27.03244385 -77.8811377 27.63129395 -78.37329102 28.24829102 C-80.63022225 31.17748211 -82.13085125 33.5059132 -82.86328125 37.12109375 C-78.0717675 40.56451279 -73.15093384 42.8696993 -67.73828125 45.18359375 C-58.54218639 49.21036732 -49.77102304 53.82169604 -41.0234375 58.73828125 C-40.29141113 59.14916992 -39.55938477 59.56005859 -38.80517578 59.98339844 C-36.86328125 61.12109375 -36.86328125 61.12109375 -34.171875 63.00390625 C-30.88012732 64.59686705 -29.35139966 64.19923944 -25.86328125 63.12109375 C-22.90821999 61.63566591 -20.11496052 59.9182133 -17.30078125 58.18359375 C-4.33333345 50.42484395 9.32376914 44.20819154 23.13671875 38.12109375 C21.69904156 27.37634843 9.21889036 16.91298519 1.13671875 10.12109375 C-25.749019 -9.67389998 -55.491276 0.03880255 -75.42553711 24.55053711 Z M-175.2265625 49.765625 C-177.55592718 53.11790878 -179.48392455 56.62549045 -181.36328125 60.24609375 C-181.90819214 61.28624634 -181.90819214 61.28624634 -182.46411133 62.34741211 C-183.91126884 65.3082672 -184.87592291 67.61472503 -184.79296875 70.9375 C-183.71350118 73.47288812 -182.72992265 74.36822813 -180.48828125 75.93359375 C-176.54061081 79.11772299 -174.73197562 82.11009888 -173.86328125 87.12109375 C-173.612393 93.44784092 -175.22378103 98.00612046 -178.86328125 103.12109375 C-180.77885586 104.97109857 -182.72509235 106.51745207 -184.86328125 108.12109375 C-183.93226192 114.27677451 -183.06906332 119.72955118 -179.86328125 125.12109375 C-177.05196135 124.49765483 -174.6324954 123.63177341 -172.046875 122.37109375 C-159.95922717 116.62741898 -147.67846575 112.17028561 -134.9453125 108.06640625 C-133.90842285 107.72899414 -132.8715332 107.39158203 -131.80322266 107.04394531 C-129.93758552 106.4583193 -128.05992352 105.90878714 -126.16943359 105.40917969 C-121.37941685 104.09996265 -121.37941685 104.09996265 -118 100.6015625 C-116.46514639 95.90206227 -115.0331862 91.18726841 -113.67578125 86.43359375 C-109.55714542 72.45559793 -103.98725663 59.27356887 -97.67578125 46.15234375 C-96.67758591 44.02147594 -96.67758591 44.02147594 -96.86328125 41.12109375 C-120.96562695 33.4707344 -156.00339138 28.60561044 -175.2265625 49.765625 Z M37.13671875 41.12109375 C37.68849974 46.21324404 39.47822363 50.23601802 41.76171875 54.74609375 C47.1114147 65.71242691 51.02429796 77.14546759 54.578125 88.8046875 C54.80089111 89.53486084 55.02365723 90.26503418 55.25317383 91.01733398 C55.84600209 92.98588933 56.42168924 94.95958388 56.99609375 96.93359375 C58.09289861 99.99863746 58.97379884 101.7365167 61.13671875 104.12109375 C63.31801499 105.13737965 63.31801499 105.13737965 65.8359375 105.69140625 C66.78662109 105.94301514 67.73730469 106.19462402 68.71679688 106.45385742 C69.74224609 106.71529541 70.76769531 106.9767334 71.82421875 107.24609375 C80.86662316 109.70713206 89.50519973 112.65588969 98.13671875 116.30859375 C99.11987061 116.72447754 100.10302246 117.14036133 101.1159668 117.56884766 C105.36283423 119.39787337 109.50117862 121.29474019 113.57421875 123.484375 C116.80872544 125.32551786 116.80872544 125.32551786 119.26171875 124.93823242 C121.57257775 124.18000028 121.57257775 124.18000028 122.69921875 120.68359375 C127.75467643 103.10060083 130.21077899 82.73029592 124.13671875 65.12109375 C123.14671875 63.63609375 123.14671875 63.63609375 122.13671875 62.12109375 C119.01503056 61.86985688 119.01503056 61.86985688 115.44921875 62.12109375 C109.67650456 62.25713107 106.14655791 61.90433773 101.13671875 59.12109375 C100.14671875 58.79109375 99.15671875 58.46109375 98.13671875 58.12109375 C97.07421875 56.37109375 97.07421875 56.37109375 96.13671875 54.12109375 C95.79511719 53.36699219 95.45351563 52.61289063 95.1015625 51.8359375 C93.76524269 48.07584735 93.79367133 44.50690989 93.67578125 40.546875 C93.39032038 38.0317687 93.39032038 38.0317687 91.47265625 36.8515625 C74.8993151 31.66892906 53.17415868 35.50798977 37.13671875 41.12109375 Z M-87.86328125 45.12109375 C-91.04852042 48.83252882 -93.40357414 52.6574245 -95.48828125 57.05859375 C-95.98618164 58.10974365 -95.98618164 58.10974365 -96.49414062 59.18212891 C-99.99986286 66.91883976 -102.68559901 74.94568437 -105.36328125 82.99609375 C-105.58864563 83.6711496 -105.81401001 84.34620544 -106.04620361 85.04171753 C-108.77423545 92.43180888 -108.77423545 92.43180888 -109.86328125 100.12109375 C-101.07060759 99.52348082 -92.34368722 98.70349032 -83.61328125 97.49609375 C-82.50726563 97.36847656 -81.40125 97.24085938 -80.26171875 97.109375 C-72.21651931 95.97234563 -67.86195375 93.43988066 -61.86328125 88.12109375 C-60.2569397 86.91289683 -58.63676968 85.72288619 -57.00390625 84.55078125 C-55.79541016 83.67099609 -55.79541016 83.67099609 -54.5625 82.7734375 C-52.91573708 81.57841815 -51.26726828 80.38574636 -49.6171875 79.1953125 C-45.35260499 76.08443347 -41.4572032 72.99259504 -37.86328125 69.12109375 C-49.36182597 61.81733849 -61.1779835 55.13992223 -73.61328125 49.55859375 C-74.3511084 49.22432373 -75.08893555 48.89005371 -75.84912109 48.5456543 C-79.85048599 46.79614973 -83.48175763 45.62400448 -87.86328125 45.12109375 Z M-20.86328125 68.12109375 C-20.49267745 70.7283922 -20.10138181 71.89513944 -18.16430664 73.73339844 C-17.43719482 74.24805664 -16.71008301 74.76271484 -15.9609375 75.29296875 C-15.15760986 75.87143555 -14.35428223 76.44990234 -13.52661133 77.04589844 C-12.6683374 77.64821289 -11.81006348 78.25052734 -10.92578125 78.87109375 C-9.17961167 80.11916817 -7.43480637 81.36915366 -5.69140625 82.62109375 C-4.85287109 83.22179687 -4.01433594 83.8225 -3.15039062 84.44140625 C0.33910259 87.00414251 3.60696024 89.78383372 6.8359375 92.66796875 C13.59232095 96.9351583 23.08868954 97.12259031 30.82421875 98.24609375 C32.03400391 98.42785156 33.24378906 98.60960937 34.49023438 98.796875 C41.78206521 99.88010911 41.78206521 99.88010911 49.13671875 100.12109375 C50.87506439 96.64440246 48.84647848 92.92727473 47.76171875 89.37109375 C47.49496338 88.49018066 47.22820801 87.60926758 46.95336914 86.70166016 C43.6884817 76.25365277 39.59892155 66.11200963 35.13671875 56.12109375 C34.72437988 55.18555664 34.31204102 54.25001953 33.88720703 53.28613281 C33.46552246 52.37831055 33.04383789 51.47048828 32.609375 50.53515625 C32.23176025 49.71225098 31.85414551 48.8893457 31.46508789 48.04150391 C30.2925719 45.97486825 30.2925719 45.97486825 28.14916992 45.30053711 C14.62408193 44.09455146 -9.84687319 60.77682171 -20.86328125 68.12109375 Z M-35.76171875 77.5703125 C-36.48875 78.08916016 -37.21578125 78.60800781 -37.96484375 79.14257812 C-38.71507812 79.69236328 -39.4653125 80.24214844 -40.23828125 80.80859375 C-40.98078125 81.33904297 -41.72328125 81.86949219 -42.48828125 82.41601562 C-46.75866508 85.49054108 -50.91373533 88.64173187 -54.86328125 92.12109375 C-54.86328125 92.45109375 -54.86328125 92.78109375 -54.86328125 93.12109375 C-38.36328125 93.12109375 -21.86328125 93.12109375 -4.86328125 93.12109375 C-9.04057825 88.90633861 -9.04057825 88.90633861 -13.52734375 85.296875 C-14.17445313 84.82572266 -14.8215625 84.35457031 -15.48828125 83.86914062 C-16.14828125 83.39541016 -16.80828125 82.92167969 -17.48828125 82.43359375 C-18.15601563 81.94826172 -18.82375 81.46292969 -19.51171875 80.96289062 C-27.15343081 74.8583847 -27.15343081 74.8583847 -35.76171875 77.5703125 Z M-77.86328125 111.12109375 C-78.84535418 112.07785044 -79.82844779 113.03356043 -80.8125 113.98828125 C-83.5381991 116.65881151 -86.20255482 119.38576752 -88.86328125 122.12109375 C-89.74242187 122.98992187 -90.6215625 123.85875 -91.52734375 124.75390625 C-93.28792933 126.53804482 -94.84731951 128.26451519 -96.36328125 130.24609375 C-98.74004786 132.97937535 -100.764539 134.35038389 -103.86328125 136.12109375 C-103.86328125 136.78109375 -103.86328125 137.44109375 -103.86328125 138.12109375 C-104.52328125 138.12109375 -105.18328125 138.12109375 -105.86328125 138.12109375 C-105.86328125 138.78109375 -105.86328125 139.44109375 -105.86328125 140.12109375 C-106.45109375 140.36214844 -107.03890625 140.60320312 -107.64453125 140.8515625 C-110.28890717 142.36462971 -111.55692464 143.99090697 -113.36328125 146.43359375 C-113.93046875 147.19285156 -114.49765625 147.95210937 -115.08203125 148.734375 C-115.66984375 149.52199219 -116.25765625 150.30960938 -116.86328125 151.12109375 C-117.5903125 151.84039062 -118.31734375 152.5596875 -119.06640625 153.30078125 C-121.70968001 157.4495718 -121.2996446 161.1275696 -121.11328125 165.93359375 C-121.09523438 166.81724609 -121.0771875 167.70089844 -121.05859375 168.61132812 C-121.01166638 170.78171918 -120.93992856 172.95154894 -120.86328125 175.12109375 C-119.87328125 175.12109375 -118.88328125 175.12109375 -117.86328125 175.12109375 C-117.86328125 178.42109375 -117.86328125 181.72109375 -117.86328125 185.12109375 C-119.18328125 185.12109375 -120.50328125 185.12109375 -121.86328125 185.12109375 C-121.76889495 190.06524754 -121.66262547 195.00895983 -121.54589844 199.95263672 C-121.50789411 201.63030221 -121.47299453 203.30804129 -121.44140625 204.98583984 C-121.98520809 221.88907728 -121.98520809 221.88907728 -114.73828125 236.24609375 C-113.93390625 237.07109375 -113.12953125 237.89609375 -112.30078125 238.74609375 C-111.49640625 239.52984375 -110.69203125 240.31359375 -109.86328125 241.12109375 C-108.48828125 242.49609375 -107.11328125 243.87109375 -105.73828125 245.24609375 C-104.86816406 246.08527344 -104.86816406 246.08527344 -103.98046875 246.94140625 C-102.11515959 248.86177989 -100.38481378 250.83088518 -98.64453125 252.86328125 C-94.84474749 257.23490165 -90.7330702 261.18618872 -86.48828125 265.12109375 C-85.36945557 266.16438843 -85.36945557 266.16438843 -84.22802734 267.22875977 C-82.11122814 269.19811678 -79.98851137 271.16084306 -77.86328125 273.12109375 C-77.3321875 273.61335449 -76.80109375 274.10561523 -76.25390625 274.61279297 C-64.09657943 285.85234406 -48.25386345 283.28340648 -32.46118164 283.25146484 C-29.30415051 283.24609948 -26.14726123 283.25144011 -22.99023438 283.2578125 C0.76827453 283.89923591 0.76827453 283.89923591 20.05264282 271.57070923 C20.8976535 270.71335175 21.74266418 269.85599426 22.61328125 268.97265625 C23.94569351 267.63743423 23.94569351 267.63743423 25.30502319 266.27523804 C27.17605035 264.39750786 29.04404916 262.51730186 30.90722656 260.63183594 C33.28182008 258.22896255 35.66500063 255.83484678 38.05153847 253.44384193 C40.34611167 251.14408489 42.63598982 248.83967303 44.92578125 246.53515625 C45.77484039 245.68184723 46.62389954 244.82853821 47.49868774 243.94937134 C57.71723975 233.69429404 57.71723975 233.69429404 60.69921875 219.87109375 C60.74095215 219.00919434 60.78268555 218.14729492 60.82568359 217.25927734 C61.3407972 205.12572373 61.29856284 192.98493711 61.16943359 180.84375 C61.14858559 178.47143396 61.13980633 176.09895932 61.14697266 173.7265625 C61.68199172 161.16746912 61.68199172 161.16746912 57.19921875 149.87109375 C55.88935981 148.57473851 54.53061776 147.32662803 53.13671875 146.12109375 C51.42481854 144.37458281 49.71663117 142.6244267 48.01171875 140.87109375 C46.38937819 139.28503557 44.76439946 137.70167116 43.13671875 136.12109375 C39.81184702 132.8554985 36.62221527 129.49899619 33.48120117 126.05883789 C28.29347834 120.3834523 23.07035416 115.02606509 17.13671875 110.12109375 C15.67595091 108.83218095 14.21761183 107.54051031 12.76171875 106.24609375 C5.33260182 99.64572293 -4.79511095 100.96903574 -14.28515625 100.98828125 C-15.34760559 100.98732452 -16.41005493 100.9863678 -17.50469971 100.98538208 C-19.74011291 100.98470549 -21.97552814 100.98652319 -24.2109375 100.99072266 C-27.58988988 100.99605682 -30.96870806 100.9907708 -34.34765625 100.984375 C-58.19921004 99.77463247 -58.19921004 99.77463247 -77.86328125 111.12109375 Z M24.13671875 104.12109375 C25.57560628 108.85298749 28.36293529 111.76940401 31.80859375 115.15625 C32.6486496 115.9970536 32.6486496 115.9970536 33.50567627 116.85484314 C34.68899396 118.03582677 35.87599049 119.21313436 37.06640625 120.38696289 C38.87544835 122.17246998 40.67086362 123.97085805 42.46484375 125.77148438 C43.62030499 126.92136605 44.77653071 128.07048014 45.93359375 129.21875 C46.46507019 129.75113785 46.99654663 130.2835257 47.54412842 130.83204651 C50.85148064 134.07802057 54.2039031 136.66547306 58.13671875 139.12109375 C57.61862402 133.31843272 56.7756085 127.6049054 55.76171875 121.87109375 C55.64787842 121.18595703 55.53403809 120.50082031 55.41674805 119.79492188 C54.6623121 115.66792067 53.93805985 112.29633048 51.13671875 109.12109375 C48.34884 108.10948353 45.94964116 107.42909036 43.07421875 106.87109375 C41.93545288 106.62697754 41.93545288 106.62697754 40.77368164 106.37792969 C35.24822331 105.23201328 29.77187195 104.47888125 24.13671875 104.12109375 Z M-97.30078125 105.99609375 C-98.35072266 106.17011719 -99.40066406 106.34414062 -100.48242188 106.5234375 C-101.99932617 106.78447266 -101.99932617 106.78447266 -103.546875 107.05078125 C-104.47040771 107.20788574 -105.39394043 107.36499023 -106.34545898 107.52685547 C-108.8217914 108.11130161 -110.71750024 108.75713946 -112.86328125 110.12109375 C-113.94144985 112.8350052 -113.94144985 112.8350052 -114.48828125 116.05859375 C-114.72546875 117.22519531 -114.96265625 118.39179688 -115.20703125 119.59375 C-115.531875 121.33978516 -115.531875 121.33978516 -115.86328125 123.12109375 C-116.05921875 124.13042969 -116.25515625 125.13976562 -116.45703125 126.1796875 C-117.39328293 131.14319827 -118.19576164 136.11469666 -118.86328125 141.12109375 C-117.88875 140.1465625 -117.88875 140.1465625 -116.89453125 139.15234375 C-100.89453125 123.15234375 -100.89453125 123.15234375 -98.77026367 121.03051758 C-97.21850752 119.4767748 -95.67449535 117.9153009 -94.1328125 116.3515625 C-91.10388356 113.37476659 -87.88572659 110.64595332 -84.65625 107.890625 C-84.06457031 107.30667969 -83.47289062 106.72273438 -82.86328125 106.12109375 C-82.86328125 105.46109375 -82.86328125 104.80109375 -82.86328125 104.12109375 C-87.75016051 104.12109375 -92.4941741 105.16706426 -97.30078125 105.99609375 Z M62.13671875 112.12109375 C62.28002452 114.12127645 62.42650169 116.121232 62.57421875 118.12109375 C62.65542969 119.23484375 62.73664063 120.34859375 62.8203125 121.49609375 C63.15941225 125.38108843 63.65301235 129.25144255 64.13671875 133.12109375 C75.35671875 133.12109375 86.57671875 133.12109375 98.13671875 133.12109375 C98.63171875 138.07109375 98.63171875 138.07109375 99.13671875 143.12109375 C95.17671875 143.12109375 91.21671875 143.12109375 87.13671875 143.12109375 C87.06247874 148.03235578 87.00807464 152.94329009 86.97192383 157.85498047 C86.95685121 159.52528576 86.93638955 161.19555156 86.91040039 162.86572266 C86.87394902 165.26865388 86.85697744 167.67106119 86.84375 170.07421875 C86.82826614 170.81915588 86.81278229 171.56409302 86.79682922 172.331604 C86.79546402 176.55161531 87.11369856 179.06669273 90.13671875 182.12109375 C92.48778313 181.75092617 93.81069805 181.45842152 95.48828125 179.72265625 C100.97963809 171.19926189 105.5108772 162.13235238 110.13671875 153.12109375 C110.85801153 151.73173896 111.57936145 150.34241384 112.30078125 148.953125 C112.93454699 147.71793655 113.56742217 146.48229058 114.19921875 145.24609375 C115.02099609 143.64121094 115.02099609 143.64121094 115.859375 142.00390625 C117.0425108 139.33370986 117.70672535 136.99833356 118.13671875 134.12109375 C114.04237251 130.49421224 109.84868631 128.39175186 104.88671875 126.24609375 C104.09821533 125.90094727 103.30971191 125.55580078 102.49731445 125.20019531 C94.51691839 121.76219266 86.39082836 118.82702566 78.13671875 116.12109375 C77.49202637 115.90936523 76.84733398 115.69763672 76.18310547 115.47949219 C69.29450442 113.04372867 69.29450442 113.04372867 62.13671875 112.12109375 Z M-138.11328125 116.12109375 C-139.55743408 116.58769409 -139.55743408 116.58769409 -141.03076172 117.0637207 C-147.47532093 119.20041097 -153.7698373 121.58333806 -159.98828125 124.30859375 C-160.72723633 124.62892578 -161.46619141 124.94925781 -162.22753906 125.27929688 C-167.77646362 127.7737151 -167.77646362 127.7737151 -171.86328125 132.12109375 C-172.43613235 135.21948774 -172.42139104 138.22832258 -172.36328125 141.37109375 C-172.37875 142.19222656 -172.39421875 143.01335937 -172.41015625 143.859375 C-172.37176611 149.91542005 -170.93731224 153.96411978 -167.86328125 159.12109375 C-167.4775293 159.81509277 -167.09177734 160.5090918 -166.69433594 161.22412109 C-165.48564854 163.39374945 -164.24171978 165.53955416 -162.98828125 167.68359375 C-162.57964844 168.39966797 -162.17101562 169.11574219 -161.75 169.85351562 C-158.90101876 174.73050999 -155.67986885 178.95971309 -151.86328125 183.12109375 C-150.37828125 182.62609375 -150.37828125 182.62609375 -148.86328125 182.12109375 C-147.66536952 179.72527029 -147.74260685 178.25331837 -147.74975586 175.57958984 C-147.74986916 174.16835342 -147.74986916 174.16835342 -147.74998474 172.72860718 C-147.75514603 171.71086212 -147.76030731 170.69311707 -147.765625 169.64453125 C-147.76703995 168.60414703 -147.7684549 167.56376282 -147.76991272 166.49185181 C-147.77552259 163.15990354 -147.78807678 159.8280218 -147.80078125 156.49609375 C-147.80579498 154.24088639 -147.81035811 151.98567797 -147.81445312 149.73046875 C-147.82464551 144.193964 -147.84421905 138.65760358 -147.86328125 133.12109375 C-139.94328125 133.12109375 -132.02328125 133.12109375 -123.86328125 133.12109375 C-123.02578493 125.59334124 -123.02578493 125.59334124 -122.30078125 118.05859375 C-122.21699219 117.11886719 -122.13320312 116.17914063 -122.046875 115.2109375 C-121.95599609 114.17646484 -121.95599609 114.17646484 -121.86328125 113.12109375 C-127.72101316 112.65557863 -132.62004475 114.32928185 -138.11328125 116.12109375 Z M-184.86328125 137.12109375 C-187.35204445 138.84148151 -189.83351079 140.57080909 -192.3046875 142.31640625 C-194.18686686 143.64398925 -196.08364211 144.95093913 -197.98828125 146.24609375 C-198.60703125 146.86484375 -199.22578125 147.48359375 -199.86328125 148.12109375 C-199.86328125 149.77109375 -199.86328125 151.42109375 -199.86328125 153.12109375 C-194.25328125 153.12109375 -188.64328125 153.12109375 -182.86328125 153.12109375 C-182.82203125 151.03796875 -182.78078125 148.95484375 -182.73828125 146.80859375 C-182.71507812 145.63683594 -182.691875 144.46507812 -182.66796875 143.2578125 C-182.61007507 139.95715714 -182.61007507 139.95715714 -184.86328125 137.12109375 Z M130.13671875 142.12109375 C128.79770083 143.23236034 128.79770083 143.23236034 129.0390625 146.0625 C129.05066406 147.25746094 129.06226563 148.45242187 129.07421875 149.68359375 C129.08324219 150.88113281 129.09226562 152.07867187 129.1015625 153.3125 C129.11316406 154.23933594 129.12476563 155.16617188 129.13671875 156.12109375 C133.51888662 157.17013563 135.93975377 156.89314563 140.13671875 155.12109375 C140.79671875 154.46109375 141.45671875 153.80109375 142.13671875 153.12109375 C142.04573568 149.66373698 141.41050761 148.39488261 138.94921875 145.93359375 C136.05972042 144.0714726 133.43684413 143.04205897 130.13671875 142.12109375 Z M-136.86328125 143.12109375 C-136.86328125 146.09109375 -136.86328125 149.06109375 -136.86328125 152.12109375 C-133.56328125 152.12109375 -130.26328125 152.12109375 -126.86328125 152.12109375 C-126.53328125 149.15109375 -126.20328125 146.18109375 -125.86328125 143.12109375 C-129.49328125 143.12109375 -133.12328125 143.12109375 -136.86328125 143.12109375 Z M66.13671875 143.12109375 C66.67472084 148.10708492 68.25416404 151.6394508 70.69921875 155.99609375 C71.33988281 157.14851562 71.98054688 158.3009375 72.640625 159.48828125 C73.13433594 160.35710937 73.62804687 161.2259375 74.13671875 162.12109375 C74.46671875 162.12109375 74.79671875 162.12109375 75.13671875 162.12109375 C75.13671875 155.85109375 75.13671875 149.58109375 75.13671875 143.12109375 C72.16671875 143.12109375 69.19671875 143.12109375 66.13671875 143.12109375 Z M117.13671875 153.12109375 C116.91830322 153.78898926 116.6998877 154.45688477 116.47485352 155.14501953 C114.03667987 162.25289456 110.8972774 168.54145731 107.07421875 174.99609375 C106.54505859 175.90617187 106.01589844 176.81625 105.47070312 177.75390625 C101.38663629 184.76394819 101.38663629 184.76394819 99.40063477 187.60205078 C97.92266999 190.02392439 97.92266999 190.02392439 98.28295898 192.61230469 C99.21786099 195.35953174 100.37705907 197.72979564 101.796875 200.26171875 C102.61103882 201.7322168 102.61103882 201.7322168 103.44165039 203.23242188 C104.02164795 204.26818359 104.60164551 205.30394531 105.19921875 206.37109375 C109.92861506 214.94526972 114.39601409 223.55429057 118.453125 232.46484375 C119.01381722 233.68382648 119.57503449 234.90256781 120.13671875 236.12109375 C120.46526855 236.84941406 120.79381836 237.57773437 121.13232422 238.328125 C121.64303467 239.41673828 121.64303467 239.41673828 122.1640625 240.52734375 C122.46948975 241.19056641 122.77491699 241.85378906 123.08959961 242.53710938 C124.12713703 244.46067995 124.12713703 244.46067995 127.13671875 245.12109375 C142.94192894 236.81286822 156.35704045 220.63923924 162.13671875 203.93359375 C164.26101253 195.29666247 163.33218127 187.77664524 161.01171875 179.30859375 C160.82416016 178.5911499 160.63660156 177.87370605 160.44335938 177.13452148 C158.80454965 171.65714458 156.27896252 169.01007533 152.13671875 165.12109375 C151.26171875 161.74609375 151.26171875 161.74609375 151.13671875 159.12109375 C148.66871828 160.2728273 147.0888831 161.1689294 145.13671875 163.12109375 C148.76671875 170.71109375 152.39671875 178.30109375 156.13671875 186.12109375 C153.82671875 185.79109375 151.51671875 185.46109375 149.13671875 185.12109375 C145.82957291 185.48997028 145.82957291 185.48997028 143.13671875 186.12109375 C142.54890625 184.23390625 142.54890625 184.23390625 141.94921875 182.30859375 C140.09787781 176.71896823 137.65126349 171.43841168 135.13671875 166.12109375 C133.15671875 166.12109375 131.17671875 166.12109375 129.13671875 166.12109375 C129.13671875 172.39109375 129.13671875 178.66109375 129.13671875 185.12109375 C125.50671875 185.12109375 121.87671875 185.12109375 118.13671875 185.12109375 C118.13671875 174.56109375 118.13671875 164.00109375 118.13671875 153.12109375 C117.80671875 153.12109375 117.47671875 153.12109375 117.13671875 153.12109375 Z M-136.86328125 162.12109375 C-135.86328125 164.12109375 -135.86328125 164.12109375 -135.86328125 164.12109375 Z M-211.86328125 161.12109375 C-219.86518045 171.92186352 -224.70531953 184.45233244 -222.86328125 198.12109375 C-218.77507389 217.32106762 -206.44843263 231.46504671 -191.08203125 243.125 C-187.92795729 245.47244646 -187.92795729 245.47244646 -183.86328125 245.12109375 C-183.56252686 244.45609863 -183.26177246 243.79110352 -182.9519043 243.10595703 C-179.90404368 236.38171385 -176.83007328 229.6711492 -173.67578125 222.99609375 C-173.20817383 222.00488525 -172.74056641 221.01367676 -172.25878906 219.99243164 C-168.85287632 212.8918241 -165.10844769 206.1023447 -160.77270508 199.52490234 C-158.93589673 196.62006114 -157.86942293 194.59277451 -157.82421875 191.12109375 C-159.15497317 187.27891557 -161.04667832 184.09236856 -163.23828125 180.68359375 C-166.24661491 175.94304216 -168.77492419 171.34198639 -170.86328125 166.12109375 C-171.19328125 166.12109375 -171.52328125 166.12109375 -171.86328125 166.12109375 C-171.86328125 172.72109375 -171.86328125 179.32109375 -171.86328125 186.12109375 C-175.49328125 185.79109375 -179.12328125 185.46109375 -182.86328125 185.12109375 C-182.86328125 178.19109375 -182.86328125 171.26109375 -182.86328125 164.12109375 C-188.47328125 164.12109375 -194.08328125 164.12109375 -199.86328125 164.12109375 C-199.86328125 171.38109375 -199.86328125 178.64109375 -199.86328125 186.12109375 C-203.49328125 185.79109375 -207.12328125 185.46109375 -210.86328125 185.12109375 C-210.86328125 177.20109375 -210.86328125 169.28109375 -210.86328125 161.12109375 C-211.19328125 161.12109375 -211.52328125 161.12109375 -211.86328125 161.12109375 Z M70.13671875 168.12109375 C69.35286765 184.46522312 68.99297399 200.75851756 69.13671875 217.12109375 C73.08709901 213.39057307 76.22546029 209.44968004 79.32421875 204.99609375 C79.76185547 204.37605469 80.19949219 203.75601563 80.65039062 203.1171875 C85.50345247 196.29578199 85.50345247 196.29578199 86.13671875 188.12109375 C85.80671875 187.46109375 85.47671875 186.80109375 85.13671875 186.12109375 C82.7807264 185.65357587 82.7807264 185.65357587 80.07421875 185.49609375 C79.15511719 185.42132813 78.23601562 185.3465625 77.2890625 185.26953125 C76.57878906 185.22054687 75.86851562 185.1715625 75.13671875 185.12109375 C75.20632813 183.78304687 75.20632813 183.78304687 75.27734375 182.41796875 C75.3134375 181.2475 75.34953125 180.07703125 75.38671875 178.87109375 C75.45632813 177.13085938 75.45632813 177.13085938 75.52734375 175.35546875 C75.4154006 172.02894747 75.4154006 172.02894747 73.18359375 169.69921875 C71.43549447 168.01932927 71.43549447 168.01932927 70.13671875 168.12109375 Z M-130.86328125 170.12109375 C-132.97957654 170.80412705 -132.97957654 170.80412705 -134.86328125 172.12109375 C-135.19328125 173.11109375 -135.52328125 174.10109375 -135.86328125 175.12109375 C-133.22328125 175.12109375 -130.58328125 175.12109375 -127.86328125 175.12109375 C-128.21114833 173.1457263 -128.21114833 173.1457263 -128.86328125 171.12109375 C-129.52328125 170.79109375 -130.18328125 170.46109375 -130.86328125 170.12109375 Z M-143.86328125 185.12109375 C-147.14406336 189.5180965 -147.14406336 189.5180965 -146.703125 192.68359375 C-144.32185937 199.59480192 -138.94357688 205.41976818 -134.55078125 211.18359375 C-134.10613525 211.76818359 -133.66148926 212.35277344 -133.20336914 212.95507812 C-132.11526679 214.36363029 -130.99245396 215.74524677 -129.86328125 217.12109375 C-129.53328125 217.12109375 -129.20328125 217.12109375 -128.86328125 217.12109375 C-128.86328125 206.56109375 -128.86328125 196.00109375 -128.86328125 185.12109375 C-133.81328125 185.12109375 -138.76328125 185.12109375 -143.86328125 185.12109375 Z M-152.86328125 200.12109375 C-160.87989495 211.28037056 -167.19618923 224.11180778 -172.80078125 236.62109375 C-173.24272827 237.59042847 -173.24272827 237.59042847 -173.69360352 238.5793457 C-175.54340399 242.82229464 -176.39948179 246.56529142 -176.86328125 251.12109375 C-161.23767154 260.14602347 -140.23512602 271.36184902 -121.86328125 271.12109375 C-122.79437581 244.55469514 -122.79437581 244.55469514 -134.86328125 222.12109375 C-136.62207581 219.95085705 -138.30180052 217.7227307 -139.98828125 215.49609375 C-140.62467529 214.6772168 -140.62467529 214.6772168 -141.27392578 213.84179688 C-144.32438477 209.91078077 -147.0935649 205.86450075 -149.70703125 201.6328125 C-150.08859375 201.13394531 -150.47015625 200.63507813 -150.86328125 200.12109375 C-151.52328125 200.12109375 -152.18328125 200.12109375 -152.86328125 200.12109375 Z M89.80566406 202.44702148 C89.14195801 203.36656616 89.14195801 203.36656616 88.46484375 204.3046875 C87.96863525 204.98088135 87.47242676 205.6570752 86.96118164 206.35375977 C86.44160889 207.08135498 85.92203613 207.8089502 85.38671875 208.55859375 C84.3078905 210.03559383 83.22846699 211.51215932 82.1484375 212.98828125 C81.62942871 213.70338867 81.11041992 214.41849609 80.57568359 215.15527344 C78.3677443 218.17161671 76.05633284 221.10248718 73.734375 224.03125 C73.20714844 224.72089844 72.67992187 225.41054688 72.13671875 226.12109375 C70.89148438 227.48041016 70.89148438 227.48041016 69.62109375 228.8671875 C65.88904263 234.12933054 65.47707815 240.69930978 64.62329102 246.93652344 C64.32457912 249.11846144 63.99987003 251.29524374 63.66992188 253.47265625 C62.74910305 259.7278876 62.01688457 265.78161082 62.13671875 272.12109375 C77.62090806 268.68253585 92.24896731 263.55095507 106.63671875 256.87109375 C107.34884521 256.54206055 108.06097168 256.21302734 108.79467773 255.87402344 C113.71416001 253.82332047 113.71416001 253.82332047 117.13671875 250.12109375 C116.16880987 243.92378828 113.73350601 238.42225704 111.13671875 232.74609375 C110.74734131 231.88701416 110.35796387 231.02793457 109.95678711 230.14282227 C105.35535022 220.17015066 100.23579005 210.2697007 94.13671875 201.12109375 C91.17782474 200.76822324 91.17782474 200.76822324 89.80566406 202.44702148 Z M-117.86328125 245.12109375 C-117.44029598 248.43561174 -116.99719236 251.74715614 -116.55078125 255.05859375 C-116.43283203 255.98478516 -116.31488281 256.91097656 -116.19335938 257.86523438 C-115.36747004 263.90057953 -114.016901 269.42126824 -111.86328125 275.12109375 C-108.69929143 275.80089956 -105.53174448 276.46248061 -102.36328125 277.12109375 C-101.03296875 277.40726562 -101.03296875 277.40726562 -99.67578125 277.69921875 C-94.28549825 278.8089829 -89.36568934 279.32679125 -83.86328125 279.12109375 C-86.05317855 275.02504 -88.56681484 272.36006777 -92.05078125 269.30859375 C-97.38364638 264.55412316 -102.49733641 259.6086375 -107.55078125 254.55859375 C-108.25807373 253.85565186 -108.96536621 253.15270996 -109.6940918 252.4284668 C-110.3519165 251.76886963 -111.00974121 251.10927246 -111.6875 250.4296875 C-112.27619873 249.83986084 -112.86489746 249.25003418 -113.47143555 248.64233398 C-114.86328125 247.12109375 -114.86328125 247.12109375 -115.86328125 245.12109375 C-116.52328125 245.12109375 -117.18328125 245.12109375 -117.86328125 245.12109375 Z M56.13671875 245.12109375 C54.79019811 246.48572901 53.51049333 247.91647721 52.26171875 249.37109375 C44.95492446 257.66624669 37.20710888 265.57773177 28.7578125 272.71875 C27.12732867 274.12921674 25.57231773 275.51095386 24.13671875 277.12109375 C24.13671875 277.78109375 24.13671875 278.44109375 24.13671875 279.12109375 C30.30246512 279.31310661 35.91199255 278.66366091 41.94921875 277.43359375 C43.21668945 277.21026367 43.21668945 277.21026367 44.50976562 276.98242188 C45.72696289 276.73588867 45.72696289 276.73588867 46.96875 276.484375 C47.69811768 276.34298096 48.42748535 276.20158691 49.17895508 276.0559082 C52.05306399 274.68354718 52.79567041 272.96882587 54.13671875 270.12109375 C54.89734085 267.23847977 54.89734085 267.23847977 55.3046875 264.1640625 C55.47548828 263.05224609 55.64628906 261.94042969 55.82226562 260.79492188 C55.98791016 259.64443359 56.15355469 258.49394531 56.32421875 257.30859375 C56.50146484 256.13876953 56.67871094 254.96894531 56.86132812 253.76367188 C57.2961988 250.8841228 57.72096017 248.00345368 58.13671875 245.12109375 C57.47671875 245.12109375 56.81671875 245.12109375 56.13671875 245.12109375 Z M-179.86328125 259.12109375 C-188.41338927 276.2213098 -189.69420852 300.20947895 -184.18359375 318.4921875 C-180.09015225 329.74309623 -172.60492075 338.20315208 -162.11328125 343.93359375 C-143.88666077 352.17035659 -121.70514844 350.89455702 -102.86328125 345.12109375 C-99.44491948 343.61009672 -99.44491948 343.61009672 -96.86328125 342.12109375 C-98.43870968 336.95718944 -100.26372067 332.17105335 -102.61328125 327.30859375 C-107.46196247 316.99762649 -111.21663219 306.13489626 -114.27734375 295.1640625 C-114.49447021 294.38708008 -114.71159668 293.61009766 -114.93530273 292.80957031 C-115.33493168 291.34801581 -115.72070856 289.88257692 -116.09008789 288.41308594 C-117.22772013 284.19486399 -118.15149532 282.37706964 -121.86328125 280.12109375 C-124.38214738 279.17008598 -126.85968059 278.31648499 -129.42578125 277.51953125 C-130.95211088 277.02870949 -132.47831044 276.53748309 -134.00439453 276.04589844 C-134.7991217 275.79271851 -135.59384888 275.53953857 -136.41265869 275.27868652 C-149.49029325 271.10241619 -162.18203452 266.66286463 -174.55859375 260.66796875 C-177.55704374 258.97978038 -177.55704374 258.97978038 -179.86328125 259.12109375 Z M114.2421875 260.7109375 C113.46262695 261.07928711 112.68306641 261.44763672 111.87988281 261.82714844 C110.6148291 262.43671387 110.6148291 262.43671387 109.32421875 263.05859375 C101.95065363 266.49311567 94.53831373 269.60872465 86.88671875 272.37109375 C85.97132324 272.70278564 85.05592773 273.03447754 84.11279297 273.3762207 C79.87148251 274.88544752 75.63093938 276.30015598 71.296875 277.51953125 C70.55791992 277.73061523 69.81896484 277.94169922 69.05761719 278.15917969 C67.09716909 278.70490887 65.12696777 279.21526238 63.15625 279.72265625 C59.23213918 281.54003228 58.63021286 283.12408227 57.13671875 287.12109375 C56.72808594 288.19488281 56.31945312 289.26867187 55.8984375 290.375 C55.54394531 291.46683594 55.18945312 292.55867188 54.82421875 293.68359375 C54.27314453 295.32521484 54.27314453 295.32521484 53.7109375 297 C52.81147668 301.88890611 54.54848976 304.25605111 57.26171875 308.24609375 C60.01557518 312.95962329 59.78564877 317.82550431 59.13671875 323.12109375 C57.49483476 328.04674573 54.68744849 331.58178655 50.13671875 334.12109375 C47.28376174 335.01969462 44.45407888 335.73192236 41.52734375 336.34765625 C38.79726418 336.95763208 38.79726418 336.95763208 37.13671875 340.12109375 C37.13671875 341.11109375 37.13671875 342.10109375 37.13671875 343.12109375 C60.04885633 349.56904504 82.94567966 353.47766693 105.07421875 342.30859375 C115.79593094 336.00447852 122.26810437 326.72796983 125.51171875 314.74609375 C129.68565922 297.48829633 128.14628724 276.47675356 121.13671875 260.12109375 C117.67696344 258.96784198 117.35722141 259.19775285 114.2421875 260.7109375 Z M-108.86328125 284.12109375 C-109.50352348 291.11373939 -107.20109954 296.91061676 -104.86328125 303.43359375 C-104.45899902 304.57973145 -104.0547168 305.72586914 -103.63818359 306.90673828 C-97.88128925 323.84482945 -97.88128925 323.84482945 -88.86328125 339.12109375 C-80.7624962 337.99816818 -74.03774913 335.22607503 -66.73828125 331.62109375 C-65.65039307 331.09225586 -64.56250488 330.56341797 -63.44165039 330.01855469 C-54.53234146 325.61430789 -46.10113434 320.67028838 -37.86328125 315.12109375 C-41.09785901 310.52154072 -44.79683821 307.88696967 -49.42578125 304.87109375 C-55.42023311 300.88815276 -60.90728981 296.74718465 -66.23828125 291.8984375 C-73.02250944 287.30494966 -82.62855451 287.14671302 -90.55078125 285.99609375 C-91.76056641 285.81433594 -92.97035156 285.63257813 -94.21679688 285.4453125 C-101.50862771 284.36207839 -101.50862771 284.36207839 -108.86328125 284.12109375 Z M43.40234375 283.828125 C41.96205811 284.08783081 41.96205811 284.08783081 40.49267578 284.3527832 C39.46770996 284.54445068 38.44274414 284.73611816 37.38671875 284.93359375 C25.32095635 287.16104733 25.32095635 287.16104733 20.81640625 287.58984375 C14.00231649 288.24878869 9.81823347 289.26131742 4.68359375 293.85546875 C1.28717223 296.87682532 -2.33965151 299.53893856 -5.98828125 302.24609375 C-6.65778809 302.74866699 -7.32729492 303.25124023 -8.01708984 303.76904297 C-12.25589766 306.94945614 -16.54047996 310.05583465 -20.86328125 313.12109375 C-18.62910306 318.65334449 -13.87843204 320.35894217 -8.86328125 323.12109375 C-7.765 323.74242187 -6.66671875 324.36375 -5.53515625 325.00390625 C1.55695599 328.95373332 8.81565617 332.4510281 16.26171875 335.68359375 C17.47009399 336.22185791 17.47009399 336.22185791 18.70288086 336.77099609 C24.26629923 339.13968174 24.26629923 339.13968174 30.13671875 338.12109375 C30.89785596 336.29899438 30.89785596 336.29899438 31.13671875 334.12109375 C30.01672614 332.32607513 30.01672614 332.32607513 28.32421875 330.74609375 C24.5492424 326.62953021 23.33229196 323.27239907 22.82421875 317.68359375 C23.29655729 312.2989344 24.96984847 308.58801639 28.32421875 304.37109375 C33.65481478 300.10661692 39.45555864 298.81704793 46.13671875 298.12109375 C48.00212502 293.41702576 49.5051488 289.17365339 50.13671875 284.12109375 C47.51471167 282.81009021 46.26952117 283.29687905 43.40234375 283.828125 Z M-52.86328125 291.12109375 C-50.32426447 296.1991273 -47.06182882 298.43293118 -42.61328125 301.80859375 C-41.86175781 302.40220703 -41.11023438 302.99582031 -40.3359375 303.60742188 C-34.70911376 308.11546298 -34.70911376 308.11546298 -27.86328125 309.12109375 C-24.56527436 307.36043098 -21.68355318 305.16292851 -18.73828125 302.87109375 C-17.94035156 302.27167969 -17.14242187 301.67226563 -16.3203125 301.0546875 C-14.1559877 299.42512075 -12.00923508 297.77471295 -9.86328125 296.12109375 C-9.11836426 295.60192383 -8.37344727 295.08275391 -7.60595703 294.54785156 C-7.03087402 294.07702148 -6.45579102 293.60619141 -5.86328125 293.12109375 C-5.86328125 292.46109375 -5.86328125 291.80109375 -5.86328125 291.12109375 C-21.37328125 291.12109375 -36.88328125 291.12109375 -52.86328125 291.12109375 Z M-35.6015625 322.140625 C-36.32802979 322.58067871 -37.05449707 323.02073242 -37.80297852 323.47412109 C-38.58600342 323.95574707 -39.36902832 324.43737305 -40.17578125 324.93359375 C-50.20444467 330.93290979 -60.60371147 335.92408507 -71.18798828 340.85449219 C-75.44891947 342.87180474 -79.65816768 344.99035103 -83.86328125 347.12109375 C-79.57277373 355.7021088 -72.77932343 362.5597204 -65.86328125 369.12109375 C-65.33992188 369.65089844 -64.8165625 370.18070312 -64.27734375 370.7265625 C-53.87736633 380.66578142 -40.50073597 385.70957325 -26.2265625 385.4296875 C-9.94144482 383.93546648 4.11458237 373.43609104 14.39453125 361.30859375 C20.53158501 354.42352665 20.53158501 354.42352665 23.13671875 346.12109375 C22.38277832 345.77965332 21.62883789 345.43821289 20.85205078 345.08642578 C-12.19705519 330.06867858 -12.19705519 330.06867858 -25.5859375 321.34765625 C-29.45729813 319.26256665 -32.09140536 319.95841658 -35.6015625 322.140625 Z " fill="#EEF9F9" transform="translate(279.86328125,57.87890625)"/>
<path d="M0 0 C1 1 1 1 1.1328125 3.21484375 C1.13023437 4.11332031 1.12765625 5.01179687 1.125 5.9375 C1.12757813 6.83339844 1.13015625 7.72929687 1.1328125 8.65234375 C1 11 1 11 0 13 C-4 11 -4 11 -5.78125 9.9375 C-8.56736712 8.76026741 -10.73708249 8.80326387 -13.75 8.875 C-14.73484375 8.89304688 -15.7196875 8.91109375 -16.734375 8.9296875 C-17.48203125 8.95289063 -18.2296875 8.97609375 -19 9 C-19.66 10.32 -20.32 11.64 -21 13 C-17.73360492 16.96517612 -15.12429324 17.68291121 -10.125 18.5 C-4.74461444 19.52909662 -1.09807209 20.35726926 3 24 C5.79377783 28.19066674 6.0379589 32.01979193 6 37 C4.38439932 43.05850255 1.0813051 46.55857064 -4 50 C-7.68660697 51.22886899 -11.10062975 51.14560987 -14.9375 51.125 C-16.01161133 51.13080078 -16.01161133 51.13080078 -17.10742188 51.13671875 C-20.54178156 51.13035293 -23.71864926 51.07950442 -27 50 C-27.10957031 50.64066406 -27.21914063 51.28132813 -27.33203125 51.94140625 C-27.56986328 53.23884766 -27.56986328 53.23884766 -27.8125 54.5625 C-27.96332031 55.40941406 -28.11414063 56.25632813 -28.26953125 57.12890625 C-29 60 -29 60 -30.53125 63.1875 C-32.58747217 67.79748847 -32.56199764 72.45684929 -32.6875 77.4375 C-32.72166016 78.35982422 -32.75582031 79.28214844 -32.79101562 80.23242188 C-32.87282994 82.48815951 -32.94219122 84.74354119 -33 87 C-36.465 87.495 -36.465 87.495 -40 88 C-40.495 84.04 -40.495 84.04 -41 80 C-41.99966797 80.81404297 -41.99966797 80.81404297 -43.01953125 81.64453125 C-56.1993755 91.87503972 -68.99004324 91.99669492 -85.0625 90.6875 C-89.49546497 89.91349024 -92.93121655 88.92731848 -97 87 C-98.25 85 -98.25 85 -99 83 C-100.32392972 81.98758315 -101.65599167 80.98560611 -103 80 C-103 79.34 -103 78.68 -103 78 C-103.66 78 -104.32 78 -105 78 C-105.0825 78.5775 -105.165 79.155 -105.25 79.75 C-106.23856435 82.71569306 -107.60820353 84.00683627 -110 86 C-113.86001794 87.89650187 -116.97084613 88.24546883 -121.25 88.1875 C-122.30703125 88.18105469 -123.3640625 88.17460937 -124.453125 88.16796875 C-127 88 -127 88 -128 87 C-128.08783542 84.78144736 -128.10694609 82.56011504 -128.09765625 80.33984375 C-128.0962413 79.67537735 -128.09482635 79.01091095 -128.09336853 78.3263092 C-128.08775518 76.19666101 -128.07520054 74.06711661 -128.0625 71.9375 C-128.05748671 70.49674631 -128.05292351 69.05599097 -128.04882812 67.61523438 C-128.03778145 64.07678898 -128.02050792 60.53840461 -128 57 C-121.565 56.505 -121.565 56.505 -115 56 C-115.46692241 42.00738966 -117.98037983 33.57116625 -126 22 C-126.33 31.57 -126.66 41.14 -127 51 C-134 51 -134 51 -138 50 C-138 32.84 -138 15.68 -138 -2 C-128 -2 -128 -2 -125.921875 -0.3828125 C-125.53515625 0.36226562 -125.1484375 1.10734375 -124.75 1.875 C-124.07130859 3.09316406 -124.07130859 3.09316406 -123.37890625 4.3359375 C-122.92386719 5.21507812 -122.46882812 6.09421875 -122 7 C-120.90534147 8.83902633 -119.8013567 10.67253772 -118.6875 12.5 C-118.19636719 13.3353125 -117.70523438 14.170625 -117.19921875 15.03125 C-116.14905837 16.92962357 -116.14905837 16.92962357 -115 18 C-111.37 11.4 -107.74 4.8 -104 -2 C-100.04 -2 -96.08 -2 -92 -2 C-91.505 2.95 -91.505 2.95 -91 8 C-90.01 7.34 -89.02 6.68 -88 6 C-85.76791249 5.38869965 -83.51376045 4.85592765 -81.25 4.375 C-80.05890625 4.11460937 -78.8678125 3.85421875 -77.640625 3.5859375 C-74.02475376 3.00398397 -70.65519808 2.89690467 -67 3 C-67 1.35 -67 -0.3 -67 -2 C-63.04 -2 -59.08 -2 -55 -2 C-55.0825 -0.659375 -55.165 0.68125 -55.25 2.0625 C-55.10452375 4.60803445 -55.10452375 4.60803445 -54 7 C-51.17377768 9.1661798 -48.23969391 10.69530138 -45.08203125 12.3359375 C-37.63336331 16.35765175 -34.28201556 21.63082091 -31.140625 29.3515625 C-29.45337243 33.26922429 -27.98660176 36.28471372 -24.5 38.8125 C-19.61762412 40.46902039 -15.10458782 40.72354749 -10 40 C-7.15191594 38.49458937 -7.15191594 38.49458937 -6 36 C-5.67106744 33.81541477 -5.67106744 33.81541477 -7 32 C-10.55121692 30.3609768 -14.17780432 29.79374012 -18 29.125 C-23.26749835 28.11110558 -26.91077981 26.20888913 -30.63671875 22.26953125 C-32.45049788 19.25003074 -32.3992989 17.06559107 -32.375 13.5625 C-32.38660156 11.89380859 -32.38660156 11.89380859 -32.3984375 10.19140625 C-31.87940419 6.03405122 -30.63942889 3.29328497 -27.31640625 0.671875 C-17.79776471 -4.33124171 -9.93443108 -3.73751501 0 0 Z M-121 63 C-121 69.27 -121 75.54 -121 82 C-114.5276001 81.66369921 -114.5276001 81.66369921 -112.0625 79.5 C-110.43458816 75.66961921 -110.46539441 72.09613299 -111 68 C-111.86424561 65.40130685 -111.86424561 65.40130685 -114 64 C-116.31 63.67 -118.62 63.34 -121 63 Z " fill="#E9F4F4" transform="translate(321,193)"/>
<path d="M0 0 C10 0 10 0 12.078125 1.6171875 C12.46484375 2.36226562 12.8515625 3.10734375 13.25 3.875 C13.92869141 5.09316406 13.92869141 5.09316406 14.62109375 6.3359375 C15.07613281 7.21507812 15.53117188 8.09421875 16 9 C17.09465853 10.83902633 18.1986433 12.67253772 19.3125 14.5 C19.80363281 15.3353125 20.29476562 16.170625 20.80078125 17.03125 C21.85094163 18.92962357 21.85094163 18.92962357 23 20 C26.63 13.4 30.26 6.8 34 0 C37.96 0 41.92 0 46 0 C46 17.16 46 34.32 46 52 C42.7 52 39.4 52 36 52 C35.67 41.11 35.34 30.22 35 19 C31.37 25.6 27.74 32.2 24 39 C23.01 39 22.02 39 21 39 C19.28599974 36.5133675 17.79213264 34.11824673 16.3125 31.5 C14.889375 29.025 13.46625 26.55 12 24 C11.67 33.57 11.34 43.14 11 53 C4 53 4 53 0 52 C0 34.84 0 17.68 0 0 Z " fill="#030303" transform="translate(183,191)"/>
<path d="M0 0 C1.81757813 0.23976562 1.81757813 0.23976562 3.671875 0.484375 C9.31032132 1.69085478 13.51511563 3.82347038 17.25 8.25 C18.26173798 11.28521394 18.41573514 13.44733079 18.4375 16.625 C18.45167969 17.56085938 18.46585937 18.49671875 18.48046875 19.4609375 C18.09742476 24.09641898 17.14975023 26.45736289 13.625 29.5625 C12.84125 30.119375 12.0575 30.67625 11.25 31.25 C11.55292969 31.87567871 11.85585938 32.50135742 12.16796875 33.14599609 C13.53267165 35.9704062 14.89140247 38.79764837 16.25 41.625 C16.96542969 43.10226563 16.96542969 43.10226563 17.6953125 44.609375 C18.14648438 45.55039063 18.59765625 46.49140625 19.0625 47.4609375 C19.48144531 48.33024902 19.90039062 49.19956055 20.33203125 50.09521484 C21.25 52.25 21.25 52.25 21.25 54.25 C16.96 54.25 12.67 54.25 8.25 54.25 C6.91216663 51.29362715 5.57956861 48.33508686 4.25 45.375 C3.8684375 44.53324219 3.486875 43.69148438 3.09375 42.82421875 C2.7328125 42.01855469 2.371875 41.21289062 2 40.3828125 C1.66484375 39.63918457 1.3296875 38.89555664 0.984375 38.12939453 C0.25 36.25 0.25 36.25 0.25 34.25 C-1.73 34.25 -3.71 34.25 -5.75 34.25 C-5.75 40.52 -5.75 46.79 -5.75 53.25 C-9.38 53.25 -13.01 53.25 -16.75 53.25 C-17.08 36.09 -17.41 18.93 -17.75 1.25 C-13.295 0.755 -13.295 0.755 -8.75 0.25 C-5.7278566 -1.2610717 -3.31242452 -0.46122367 0 0 Z M-4.75 10.25 C-6.08901792 11.36126659 -6.08901792 11.36126659 -5.84765625 14.19140625 C-5.83605469 15.38636719 -5.82445312 16.58132812 -5.8125 17.8125 C-5.80347656 19.01003906 -5.79445313 20.20757812 -5.78515625 21.44140625 C-5.77355469 22.36824219 -5.76195312 23.29507813 -5.75 24.25 C-1.36783213 25.29904188 1.05303502 25.02205188 5.25 23.25 C5.91 22.59 6.57 21.93 7.25 21.25 C7.15901693 17.79264323 6.52378886 16.52378886 4.0625 14.0625 C1.17300167 12.20037885 -1.44987462 11.17096522 -4.75 10.25 Z " fill="#020303" transform="translate(414.75,189.75)"/>
<path d="M0 0 C3.63 0 7.26 0 11 0 C11.19585135 2.39541268 11.38192107 4.79092774 11.5625 7.1875 C11.61857422 7.86103516 11.67464844 8.53457031 11.73242188 9.22851562 C12.02153174 13.17968377 11.79248913 16.03755435 11 20 C16.61 20 22.22 20 28 20 C27.505 10.595 27.505 10.595 27 1 C30.96 1 34.92 1 39 1 C40.35761847 18.37751647 39.7145468 35.61107419 39 53 C35.03611362 53.07622858 31.8726592 52.9681648 28 52 C28 45.07 28 38.14 28 31 C22.39 31 16.78 31 11 31 C11 38.26 11 45.52 11 53 C2 53 2 53 0 52 C-0.33 44.41 -0.66 36.82 -1 29 C-1.33 29 -1.66 29 -2 29 C-2.02687279 27.18757948 -2.04633715 25.37504767 -2.0625 23.5625 C-2.07410156 22.55316406 -2.08570312 21.54382813 -2.09765625 20.50390625 C-2 18 -2 18 -1 17 C-0.76298761 14.14122091 -0.57780818 11.30116703 -0.4375 8.4375 C-0.39431641 7.63119141 -0.35113281 6.82488281 -0.30664062 5.99414062 C-0.20024738 3.99631195 -0.09959112 1.9981793 0 0 Z " fill="#040404" transform="translate(69,191)"/>
<path d="M0 0 C1 1 1 1 1.1328125 3.21484375 C1.13023437 4.11332031 1.12765625 5.01179687 1.125 5.9375 C1.12886719 7.28134766 1.12886719 7.28134766 1.1328125 8.65234375 C1 11 1 11 0 13 C-4 11 -4 11 -5.78125 9.9375 C-8.56736712 8.76026741 -10.73708249 8.80326387 -13.75 8.875 C-14.73484375 8.89304688 -15.7196875 8.91109375 -16.734375 8.9296875 C-17.48203125 8.95289063 -18.2296875 8.97609375 -19 9 C-19.66 10.32 -20.32 11.64 -21 13 C-17.73360492 16.96517612 -15.12429324 17.68291121 -10.125 18.5 C-4.74461444 19.52909662 -1.09807209 20.35726926 3 24 C5.79377783 28.19066674 6.0379589 32.01979193 6 37 C4.38439932 43.05850255 1.0813051 46.55857064 -4 50 C-7.62237505 51.20745835 -10.9770595 51.22246029 -14.75 51.25 C-15.4409375 51.270625 -16.131875 51.29125 -16.84375 51.3125 C-22.78764676 51.35719095 -26.70680516 49.64659742 -32 47 C-32.05386629 44.87527424 -32.09273071 42.75016348 -32.125 40.625 C-32.14820313 39.44164062 -32.17140625 38.25828125 -32.1953125 37.0390625 C-32 34 -32 34 -30 32 C-29.62875 32.763125 -29.2575 33.52625 -28.875 34.3125 C-26.47888307 37.74693427 -24.97858295 38.65012364 -21 40 C-15.96465508 40.59840331 -11.62072055 41.03136762 -7.25 38.25 C-5.85289499 36.11811178 -5.85289499 36.11811178 -5.875 33.875 C-6.8993101 31.76904956 -6.8993101 31.76904956 -9.4375 30.875 C-12.2985663 30.17228196 -15.10272306 29.63191422 -18 29.125 C-23.26749835 28.11110558 -26.91077981 26.20888913 -30.63671875 22.26953125 C-32.45049788 19.25003074 -32.3992989 17.06559107 -32.375 13.5625 C-32.38273437 12.45003906 -32.39046875 11.33757812 -32.3984375 10.19140625 C-31.87940419 6.03405122 -30.63942889 3.29328497 -27.31640625 0.671875 C-17.79776471 -4.33124171 -9.93443108 -3.73751501 0 0 Z " fill="#020202" transform="translate(321,193)"/>
<path d="M0 0 C0 4.29 0 8.58 0 13 C-1.27875 12.34 -2.5575 11.68 -3.875 11 C-10.21085916 8.1962576 -15.88865742 7.92517256 -22.4375 10.1875 C-25.3863853 12.27329692 -26.42920579 13.75967595 -28 17 C-28.74495289 22.73815067 -29.45592448 29.68394205 -26.1875 34.75 C-22.81787842 38.21589649 -20.1373733 39.52251361 -15.328125 40.0390625 C-9.79155885 39.94616709 -4.56323505 38.0421567 0 35 C0 38.96 0 42.92 0 47 C-7.54193828 52.02795885 -15.27025791 51.87297421 -24 51 C-30.29985414 49.40138837 -34.46700571 45.32700696 -38 40 C-42.25254942 32.06190775 -42.21686429 22.77053885 -40.37890625 14.0546875 C-38.22396001 7.79097708 -34.681143 3.42008609 -29 0 C-18.77922909 -4.22096734 -10.15391862 -3.86815947 0 0 Z " fill="#010101" transform="translate(48,193)"/>
<path d="M0 0 C9.57 0 19.14 0 29 0 C30.00000429 4.00001715 29.80688405 6.05523353 29 10 C22.84098757 11.23180249 17.21324498 10.73030908 11 10 C11 12.97 11 15.94 11 19 C11.75925781 18.90460938 12.51851562 18.80921875 13.30078125 18.7109375 C14.29464844 18.60007813 15.28851563 18.48921875 16.3125 18.375 C17.79169922 18.20097656 17.79169922 18.20097656 19.30078125 18.0234375 C22 18 22 18 25 20 C25.51171875 22.1640625 25.51171875 22.1640625 25.6875 24.625 C25.75324219 25.44226563 25.81898438 26.25953125 25.88671875 27.1015625 C25.92410156 27.72804687 25.96148437 28.35453125 26 29 C25.00097656 29.04898438 24.00195312 29.09796875 22.97265625 29.1484375 C21.68230469 29.22320312 20.39195312 29.29796875 19.0625 29.375 C17.77472656 29.44460937 16.48695313 29.51421875 15.16015625 29.5859375 C14.11730469 29.72257812 13.07445312 29.85921875 12 30 C10.49337903 33.01324195 10.82229627 35.68286377 11 39 C12.87141869 41.31609692 12.87141869 41.31609692 15.8984375 41.16015625 C17.04570312 41.12792969 18.19296875 41.09570312 19.375 41.0625 C23.30256457 40.96054291 26.15579492 41.03894873 30 42 C30 45.3 30 48.6 30 52 C25.56285102 52.19652332 21.12527385 52.38067922 16.6875 52.5625 C15.42486328 52.61857422 14.16222656 52.67464844 12.86132812 52.73242188 C11.65283203 52.78076172 10.44433594 52.82910156 9.19921875 52.87890625 C8.08377686 52.9260376 6.96833496 52.97316895 5.8190918 53.02172852 C3 53 3 53 0 52 C-0.76683454 48.62462803 -1.1056004 45.57530547 -1.02172852 42.11791992 C-0.99158409 40.70702339 -0.99158409 40.70702339 -0.96083069 39.2676239 C-0.93379562 38.2653627 -0.90676056 37.2631015 -0.87890625 36.23046875 C-0.85529526 35.19432938 -0.83168427 34.15819 -0.80735779 33.09065247 C-0.73093894 29.78945469 -0.64682083 26.48850446 -0.5625 23.1875 C-0.50925752 20.94597555 -0.45651728 18.70443912 -0.40429688 16.46289062 C-0.27629487 10.97505849 -0.13788011 5.4876284 0 0 Z " fill="#040505" transform="translate(132,191)"/>
<path d="M0 0 C4.62 0 9.24 0 14 0 C15.29493195 2.39411837 16.58602172 4.7901788 17.875 7.1875 C18.23980469 7.86103516 18.60460937 8.53457031 18.98046875 9.22851562 C20.87359406 12.7566128 22.61080534 16.23455133 24 20 C24.2673999 19.42967041 24.5347998 18.85934082 24.81030273 18.27172852 C26.01714167 15.70093338 27.2272751 13.13170278 28.4375 10.5625 C29.06881836 9.21575195 29.06881836 9.21575195 29.71289062 7.84179688 C30.11572266 6.98779297 30.51855469 6.13378906 30.93359375 5.25390625 C31.30540771 4.46314697 31.67722168 3.6723877 32.06030273 2.85766602 C33 1 33 1 34 0 C36.18639453 -0.07258946 38.37500389 -0.08373783 40.5625 -0.0625 C42.35880859 -0.04896484 42.35880859 -0.04896484 44.19140625 -0.03515625 C45.11824219 -0.02355469 46.04507813 -0.01195312 47 0 C45.4390068 4.20512454 43.39703906 8.07415962 41.25 12 C40.5334878 13.34807286 39.81866799 14.69704649 39.10546875 16.046875 C37.83100904 18.45773279 36.5259576 20.83236566 35.17578125 23.203125 C30.19937902 32.60165705 30.02199609 41.58485347 30 52 C26.04 52 22.08 52 18 52 C18.04382813 50.87207031 18.08765625 49.74414062 18.1328125 48.58203125 C18.2896492 31.61266502 11.56892952 16.9303131 1.1796875 3.64453125 C0 2 0 2 0 0 Z " fill="#010101" transform="translate(448,191)"/>
<path d="M0 0 C0 3.63 0 7.26 0 11 C-3.96 11 -7.92 11 -12 11 C-11.88159204 15.91145542 -11.75733277 20.8227151 -11.62768555 25.73388672 C-11.58441511 27.40409334 -11.54273451 29.07434194 -11.50268555 30.74462891 C-11.44479149 33.14758955 -11.3811526 35.55034041 -11.31640625 37.953125 C-11.29969376 38.69806213 -11.28298126 39.44299927 -11.26576233 40.21051025 C-11.18646817 42.99511452 -11.10659578 45.59786453 -10.39038086 48.29980469 C-9.70508971 51.28439979 -11.55863711 53.46320131 -13 56 C-13.33 55.34 -13.66 54.68 -14 54 C-15.918125 54.0309375 -15.918125 54.0309375 -17.875 54.0625 C-21.75 54.125 -21.75 54.125 -24 53 C-24.37890625 50.12890625 -24.37890625 50.12890625 -24.5625 46.5625 C-24.66007452 42.1215332 -24.66007452 42.1215332 -26 38 C-26.06996014 36.29297265 -26.08440154 34.58331997 -26.0625 32.875 C-26.05347656 31.96492188 -26.04445313 31.05484375 -26.03515625 30.1171875 C-26.02355469 29.41851562 -26.01195312 28.71984375 -26 28 C-25.67 28 -25.34 28 -25 28 C-24.67 22.39 -24.34 16.78 -24 11 C-27.96 11 -31.92 11 -36 11 C-36 7.7 -36 4.4 -36 1 C-31.03377796 0.85740363 -26.06755068 0.71499183 -21.10131836 0.57275391 C-19.41056168 0.52430257 -17.71980647 0.47580007 -16.02905273 0.42724609 C-13.60400771 0.35761398 -11.17895754 0.28816361 -8.75390625 0.21875 C-7.99348526 0.19687622 -7.23306427 0.17500244 -6.44960022 0.15246582 C-1.11387171 0 -1.11387171 0 0 0 Z " fill="#030303" transform="translate(379,190)"/>
<path d="M0 0 C1.98 0 3.96 0 6 0 C7.828125 2.15234375 7.828125 2.15234375 9.25 4.9375 C10.94494096 8.64462146 10.94494096 8.64462146 14 11 C14.268125 10.29875 14.53625 9.5975 14.8125 8.875 C16.0681449 5.8350176 17.50235123 2.9272226 19 0 C21.31 0 23.62 0 26 0 C26.99 2.64 27.98 5.28 29 8 C28.67 8.33 28.34 8.66 28 9 C27.84344973 10.48638992 27.74933057 11.97949127 27.68359375 13.47265625 C27.64169922 14.37177734 27.59980469 15.27089844 27.55664062 16.19726562 C27.51732422 17.14279297 27.47800781 18.08832031 27.4375 19.0625 C27.39431641 20.01189453 27.35113281 20.96128906 27.30664062 21.93945312 C27.20020724 24.29281353 27.09818992 26.64628354 27 29 C24.69 29.33 22.38 29.66 20 30 C19.67 27.36 19.34 24.72 19 22 C17.02 22.99 17.02 22.99 15 24 C15 23.34 15 22.68 15 22 C14.01 22 13.02 22 12 22 C10.35 19.03 8.7 16.06 7 13 C6.67 18.28 6.34 23.56 6 29 C4.02 29 2.04 29 0 29 C0 19.43 0 9.86 0 0 Z " fill="#060708" transform="translate(261,251)"/>
<path d="M0 0 C3.96 0 7.92 0 12 0 C12.33 3.3 12.66 6.6 13 10 C12.34 10 11.68 10 11 10 C11 23.86 11 37.72 11 52 C7.7 52 4.4 52 1 52 C0.67 34.84 0.34 17.68 0 0 Z " fill="#010101" transform="translate(254,191)"/>
<path d="M0 0 C4.95 0 9.9 0 15 0 C15 0.66 15 1.32 15 2 C15.7425 2.20625 16.485 2.4125 17.25 2.625 C21.05968482 4.52984241 22.17070346 6.13815174 24 10 C24.67518045 15.04884933 24.42228113 19.54840862 23 24.4375 C20.16989743 28.06356892 17.43295065 29.77252158 13 31 C8.97075637 31.35405482 5.02757557 31.39309138 1 31 C0 30 0 30 -0.11352539 27.13256836 C-0.10828857 25.88096924 -0.10305176 24.62937012 -0.09765625 23.33984375 C-0.0962413 22.67537735 -0.09482635 22.01091095 -0.09336853 21.3263092 C-0.08775518 19.19666101 -0.07520054 17.06711661 -0.0625 14.9375 C-0.05748671 13.49674631 -0.05292351 12.05599097 -0.04882812 10.61523438 C-0.03863076 7.07675042 -0.0190583 3.53849187 0 0 Z M7 6 C7 12.27 7 18.54 7 25 C13.4723999 24.66369921 13.4723999 24.66369921 15.9375 22.5 C17.56541184 18.66961921 17.53460559 15.09613299 17 11 C16.13575439 8.40130685 16.13575439 8.40130685 14 7 C11.69 6.67 9.38 6.34 7 6 Z " fill="#030404" transform="translate(193,250)"/>
<path d="M0 0 C1.4540625 0.0309375 1.4540625 0.0309375 2.9375 0.0625 C12.9375 23.29654255 12.9375 23.29654255 12.9375 29.0625 C10.9575 29.0625 8.9775 29.0625 6.9375 29.0625 C6.2775 27.0825 5.6175 25.1025 4.9375 23.0625 C1.6375 23.0625 -1.6625 23.0625 -5.0625 23.0625 C-5.7225 25.7025 -6.3825 28.3425 -7.0625 31.0625 C-9.3725 30.4025 -11.6825 29.7425 -14.0625 29.0625 C-12.6602814 25.09188751 -11.25436752 21.12260953 -9.8449707 17.15454102 C-9.36575435 15.80366765 -8.88756069 14.45243105 -8.41040039 13.10083008 C-7.72548865 11.16131366 -7.03694371 9.22312119 -6.34765625 7.28515625 C-5.72709351 5.53344116 -5.72709351 5.53344116 -5.09399414 3.74633789 C-3.6830317 0.07516391 -3.6830317 0.07516391 0 0 Z " fill="#0D0F10" transform="translate(238.0625,250.9375)"/>
<path d="M0 0 C13 0 13 0 18 3 C20.35857464 6.03245311 20.35933916 9.26065814 20.25390625 13.03515625 C19.87642532 15.95627792 18.85858628 17.74314524 17 20 C13.77841364 22.33287288 10.89042645 22.17683757 7 22 C7 24.64 7 27.28 7 30 C4.69 30 2.38 30 0 30 C0 20.1 0 10.2 0 0 Z M7 6 C7 9.63 7 13.26 7 17 C11.5841963 15.54711014 11.5841963 15.54711014 13 14 C13.25005386 11.04182893 13.25005386 11.04182893 13 8 C12.34 7.34 11.68 6.68 11 6 C9.68 6 8.36 6 7 6 Z " fill="#010101" transform="translate(299,250)"/>
<path d="M0 0 C0.66 0 1.32 0 2 0 C2 0.66 2 1.32 2 2 C2.66 2 3.32 2 4 2 C3.67 8.93 3.34 15.86 3 23 C-4 22 -4 22 -5.9375 20.4375 C-6.288125 19.963125 -6.63875 19.48875 -7 19 C-8.98 19.66 -10.96 20.32 -13 21 C-14 20 -14 20 -14.25 16.625 C-14 13 -14 13 -12.90234375 11.28515625 C-10.05840215 9.36388975 -7.69670486 9.71197906 -4.3125 9.8125 C-2.54326172 9.85310547 -2.54326172 9.85310547 -0.73828125 9.89453125 C0.16535156 9.92933594 1.06898438 9.96414062 2 10 C1.34 6.7 0.68 3.4 0 0 Z " fill="#C1CED0" transform="translate(156,210)"/>
<path d="M0 0 C3.76687864 3.76687864 4.67652988 5.14727622 6 10 C6.99 10 7.98 10 9 10 C8.875 11.75 8.875 11.75 8 14 C4.53686377 16.75476746 1.48861684 18.7506324 -3 19 C-3.66 18.34 -4.32 17.68 -5 17 C-3.35 17 -1.7 17 0 17 C0 11.39 0 5.78 0 0 Z " fill="#DDE6E8" transform="translate(267,263)"/>
<path d="M0 0 C0.66 0 1.32 0 2 0 C2 0.66 2 1.32 2 2 C2.66 2 3.32 2 4 2 C3.67 5.3 3.34 8.6 3 12 C2.08476562 12.06058594 1.16953125 12.12117187 0.2265625 12.18359375 C-0.96195313 12.26738281 -2.15046875 12.35117188 -3.375 12.4375 C-5.15003906 12.55931641 -5.15003906 12.55931641 -6.9609375 12.68359375 C-9.91518901 12.81084936 -9.91518901 12.81084936 -12 14 C-12.65555119 16.52733235 -12.65555119 16.52733235 -13 19 C-12.34 19 -11.68 19 -11 19 C-11 19.66 -11 20.32 -11 21 C-11.99 20.67 -12.98 20.34 -14 20 C-14.36386139 13.57178218 -14.36386139 13.57178218 -12.90625 11.28125 C-10.05864657 9.36728704 -7.69628509 9.71199153 -4.3125 9.8125 C-2.54326172 9.85310547 -2.54326172 9.85310547 -0.73828125 9.89453125 C0.16535156 9.92933594 1.06898438 9.96414062 2 10 C1.34 6.7 0.68 3.4 0 0 Z " fill="#636D6E" transform="translate(156,210)"/>
<path d="M0 0 C0.33 0 0.66 0 1 0 C1.05392397 2.77109307 1.09363455 5.54113818 1.125 8.3125 C1.14175781 9.09818359 1.15851563 9.88386719 1.17578125 10.69335938 C1.18222656 11.45068359 1.18867188 12.20800781 1.1953125 12.98828125 C1.20578613 13.68477783 1.21625977 14.38127441 1.22705078 15.09887695 C1 17 1 17 -1 20 C-1 17.36 -1 14.72 -1 12 C-3.475 13.485 -3.475 13.485 -6 15 C-4.40109514 9.80355921 -2.25861997 4.93387858 0 0 Z " fill="#B8C2C2" transform="translate(397,194)"/>
<path d="M0 0 C0.33 0 0.66 0 1 0 C1 10.23 1 20.46 1 31 C0.67 31 0.34 31 0 31 C-0.09087891 29.62714844 -0.09087891 29.62714844 -0.18359375 28.2265625 C-0.26738281 27.03804687 -0.35117187 25.84953125 -0.4375 24.625 C-0.51871094 23.44164062 -0.59992188 22.25828125 -0.68359375 21.0390625 C-0.81084936 18.08481099 -0.81084936 18.08481099 -2 16 C-2.06996014 14.29297265 -2.08440154 12.58331997 -2.0625 10.875 C-2.05347656 9.96492187 -2.04445313 9.05484375 -2.03515625 8.1171875 C-2.02355469 7.41851562 -2.01195312 6.71984375 -2 6 C-1.67 6 -1.34 6 -1 6 C-0.67 4.02 -0.34 2.04 0 0 Z " fill="#393F42" transform="translate(355,212)"/>
<path d="M0 0 C0.99 0.66 1.98 1.32 3 2 C3.63751064 8.16260282 2.42207234 12.34849787 0 18 C-1.5 16.75 -1.5 16.75 -3 15 C-3 13.68 -3 12.36 -3 11 C-2.505 10.5875 -2.01 10.175 -1.5 9.75 C0.99242525 6.84217054 0.18304164 3.72184669 0 0 Z " fill="#B1BABC" transform="translate(290,240)"/>
<path d="M0 0 C0.33 0 0.66 0 1 0 C1.63019694 8.19256018 1.63019694 8.19256018 -1 11.5625 C-1.66 12.036875 -2.32 12.51125 -3 13 C-3.33 12.34 -3.66 11.68 -4 11 C-4.99 10.67 -5.98 10.34 -7 10 C-6.5875 9.649375 -6.175 9.29875 -5.75 8.9375 C-3.29237593 6.21655906 -1.75948115 3.21560348 0 0 Z " fill="#282C32" transform="translate(280,262)"/>
<path d="M0 0 C2.31 0 4.62 0 7 0 C7 1.98 7 3.96 7 6 C4.69 6.33 2.38 6.66 0 7 C-1.04449911 3.86650268 -0.93423645 3.01031744 0 0 Z " fill="#DDF1F1" transform="translate(151,223)"/>
<path d="M0 0 C0.33 0 0.66 0 1 0 C1 7.59 1 15.18 1 23 C0.67 23 0.34 23 0 23 C-0.33 20.03 -0.66 17.06 -1 14 C-1.33 14 -1.66 14 -2 14 C-2.05410687 12.22950311 -2.09284119 10.45853151 -2.125 8.6875 C-2.14820312 7.70136719 -2.17140625 6.71523437 -2.1953125 5.69921875 C-2 3 -2 3 0 0 Z " fill="#383D3E" transform="translate(69,206)"/>
<path d="M0 0 C0 0.99 0 1.98 0 3 C-0.66 3 -1.32 3 -2 3 C-1.67 3.99 -1.34 4.98 -1 6 C-1.33 6.99 -1.66 7.98 -2 9 C-3.65 8.67 -5.3 8.34 -7 8 C-6.67 5.69 -6.34 3.38 -6 1 C-3 0 -3 0 0 0 Z " fill="#B2BDBF" transform="translate(160,201)"/>
<path d="M0 0 C4.29 0 8.58 0 13 0 C13 3.63 13 7.26 13 11 C10.69 10.67 8.38 10.34 6 10 C6 9.01 6 8.02 6 7 C7.98 7 9.96 7 12 7 C12 5.02 12 3.04 12 1 C8.04 1 4.08 1 0 1 C0 0.67 0 0.34 0 0 Z " fill="#A4B0B2" transform="translate(146,222)"/>
<path d="M0 0 C0.33 0 0.66 0 1 0 C1 3.3 1 6.6 1 10 C1.99 10 2.98 10 4 10 C3.67 11.32 3.34 12.64 3 14 C-0.45743005 11.14762021 -1.89859263 9.85471922 -2.4375 5.3125 C-2 2 -2 2 0 0 Z " fill="#899796" transform="translate(342,191)"/>
<path d="M0 0 C0.66 0 1.32 0 2 0 C2.66 2.97 3.32 5.94 4 9 C2.02 9 0.04 9 -2 9 C-1.34 6.03 -0.68 3.06 0 0 Z " fill="#CED5D5" transform="translate(237,259)"/>
<path d="M0 0 C1.65 1.32 3.3 2.64 5 4 C4.67 4.66 4.34 5.32 4 6 C3.01 6 2.02 6 1 6 C0.34 7.65 -0.32 9.3 -1 11 C-1.33 11 -1.66 11 -2 11 C-2.28571429 3.57142857 -2.28571429 3.57142857 0 0 Z " fill="#9FA9A9" transform="translate(433,211)"/>
<path d="M0 0 C2.79872437 2.52788007 4.45773019 4.20411134 5 8 C3.35 8.66 1.7 9.32 0 10 C0 6.7 0 3.4 0 0 Z " fill="#E5ECEB" transform="translate(267,263)"/>
<path d="M0 0 C0.66 0 1.32 0 2 0 C2 0.66 2 1.32 2 2 C1.34 2 0.68 2 0 2 C0 3.65 0 5.3 0 7 C0.99 6.67 1.98 6.34 3 6 C3 6.99 3 7.98 3 9 C1.02 9.99 1.02 9.99 -1 11 C-2 10 -2 10 -2.1875 6.625 C-2 3 -2 3 0 0 Z " fill="#C2CFD0" transform="translate(82,194)"/>
<path d="M0 0 C0.99 0 1.98 0 3 0 C3 1.98 3 3.96 3 6 C0.69 5.67 -1.62 5.34 -4 5 C-4 4.34 -4 3.68 -4 3 C-3.34 3 -2.68 3 -2 3 C-1.67 2.34 -1.34 1.68 -1 1 C-0.67 0.67 -0.34 0.34 0 0 Z " fill="#DBE8E7" transform="translate(160,186)"/>
<path d="M0 0 C2.31 0 4.62 0 7 0 C6.67 1.32 6.34 2.64 6 4 C4.02 3.34 2.04 2.68 0 2 C-0.33 2.66 -0.66 3.32 -1 4 C-0.67 2.68 -0.34 1.36 0 0 Z " fill="#8D9A9D" transform="translate(151,243)"/>
<path d="M0 0 C1.32 0.33 2.64 0.66 4 1 C3.67 1.33 3.34 1.66 3 2 C2.63239269 4.32817964 2.29758419 6.6618385 2 9 C1.34 8.67 0.68 8.34 0 8 C0 5.36 0 2.72 0 0 Z " fill="#D5E2E4" transform="translate(338,191)"/>
<path d="M0 0 C1.32 0 2.64 0 4 0 C4 0.99 4 1.98 4 3 C4.66 3.33 5.32 3.66 6 4 C5.67 4.66 5.34 5.32 5 6 C4.01 5.67 3.02 5.34 2 5 C0.8125 2.4375 0.8125 2.4375 0 0 Z " fill="#E2ECEC" transform="translate(270,256)"/>
<path d="M0 0 C0.33 0.99 0.66 1.98 1 3 C-0.98 3.99 -0.98 3.99 -3 5 C-3 4.34 -3 3.68 -3 3 C-3.99 2.67 -4.98 2.34 -6 2 C-3 0 -3 0 0 0 Z " fill="#5E6B6D" transform="translate(279,270)"/>
</svg>
