<?xml version="1.0" encoding="UTF-8"?>
<svg version="1.1" xmlns="http://www.w3.org/2000/svg" width="500" height="500">
<path d="M0 0 C5.50714882 3.50053119 10.17543475 7.81173192 14.875 12.3125 C15.81666016 13.15941406 15.81666016 13.15941406 16.77734375 14.0234375 C22.1778401 19.04430712 25.95835751 25.11708369 29.875 31.3125 C31.22916667 31.04166667 32.58333333 30.77083333 33.9375 30.5 C34.8553125 30.31953125 35.773125 30.1390625 36.71875 29.953125 C38.91120412 29.50812194 41.09854817 29.03748229 43.28125 28.546875 C56.96293945 25.56496833 69.85422925 24.5568926 83.703125 26.83984375 C89.71001911 27.7445769 89.71001911 27.7445769 95.125 25.3125 C99.32255974 22.7427521 103.06673826 22.60799279 107.875 23.3125 C113.31689799 25.126466 116.6533325 28.69512638 119.875 33.3125 C121.84564003 39.22442008 121.13709784 43.73265866 118.875 49.3125 C119.27875573 52.16402481 120.02152204 54.80208369 120.84765625 57.5625 C126.84789334 78.2084771 124.05780348 99.01010275 117.875 119.3125 C119.33873047 120.34310547 119.33873047 120.34310547 120.83203125 121.39453125 C122.11729508 122.30453557 123.4024454 123.21470024 124.6875 124.125 C125.33009766 124.57681641 125.97269531 125.02863281 126.63476562 125.49414062 C127.25673828 125.93564453 127.87871094 126.37714844 128.51953125 126.83203125 C129.09034424 127.23526611 129.66115723 127.63850098 130.24926758 128.05395508 C131.875 129.3125 131.875 129.3125 133.39038086 130.92138672 C135.76372645 133.14525174 138.46903694 133.12722471 141.625 133.625 C147.69690075 134.81175206 152.06071339 136.27921458 155.875 141.3125 C157.70089391 146.79018172 157.66915728 153.0623877 155.75 158.5 C154.723352 161.79994001 155.31966267 163.71918527 156.30078125 166.96875 C156.99435284 169.79965445 157.18430982 172.53037428 157.375 175.4375 C157.67137363 179.69450312 158.21731626 183.33405901 159.875 187.3125 C158.225 187.3125 156.575 187.3125 154.875 187.3125 C154.730625 188.50875 154.58625 189.705 154.4375 190.9375 C150.28392638 209.08804772 132.7690796 222.87877037 117.875 232.3125 C118.09434204 233.21174194 118.09434204 233.21174194 118.31811523 234.12915039 C118.98631318 236.87695211 119.64944104 239.6259539 120.3125 242.375 C120.65764648 243.78942383 120.65764648 243.78942383 121.00976562 245.23242188 C125.65653864 264.56030386 126.3909193 285.52825959 116.71484375 303.4609375 C109.66153496 314.39281737 99.07848751 321.20859053 86.625 324.6875 C75.54250992 326.53458168 65.10050112 326.74560443 54 325 C53.12738525 324.86682373 52.25477051 324.73364746 51.35571289 324.59643555 C45.74340183 323.70550139 40.3035137 322.55819627 34.87109375 320.86328125 C32.73812675 320.17950528 32.73812675 320.17950528 29.875 320.3125 C27.94363352 322.79472247 27.94363352 322.79472247 26 326 C15.82776187 341.43565577 1.30591979 354.20606288 -17.125 358.3125 C-34.82540087 359.39222445 -48.48847102 356.01979164 -62.125 344.125 C-69.81602442 336.93056141 -76.9179371 329.51164445 -82.125 320.3125 C-86.61166194 321.19122411 -91.09235055 322.08197689 -95.5546875 323.078125 C-102.40874961 324.60791567 -109.10596402 325.92723559 -116.125 326.3125 C-117.17494141 326.374375 -117.17494141 326.374375 -118.24609375 326.4375 C-134.06190621 326.90181743 -148.96814889 323.01544702 -161.0625 312.65234375 C-171.19620912 303.06463189 -175.82249616 290.01970202 -176.328125 276.16796875 C-176.58121225 260.95171004 -174.10863264 246.97565843 -170.125 232.3125 C-170.99640625 231.72984375 -171.8678125 231.1471875 -172.765625 230.546875 C-189.34327991 219.23360323 -204.49148458 204.82150241 -208.75 184.30078125 C-209.1094399 181.43649455 -209.25829059 178.69762676 -209.25 175.8125 C-209.25257813 174.9153125 -209.25515625 174.018125 -209.2578125 173.09375 C-209.125 170.3125 -209.125 170.3125 -208.63647461 167.58544922 C-208.08949407 164.08529592 -207.91450819 160.70463106 -207.80859375 157.1640625 C-207.78781265 156.50667084 -207.76703156 155.84927917 -207.74562073 155.17196655 C-207.68079247 153.09390638 -207.62155436 151.01573144 -207.5625 148.9375 C-207.51925112 147.51951989 -207.47563491 146.10155093 -207.43164062 144.68359375 C-207.32518082 141.2266812 -207.22373016 137.76964294 -207.125 134.3125 C-203.495 134.3125 -199.865 134.3125 -196.125 134.3125 C-195.795 136.2925 -195.465 138.2725 -195.125 140.3125 C-194.05185547 139.16974609 -194.05185547 139.16974609 -192.95703125 138.00390625 C-185.92295191 130.6646194 -178.70008688 124.78949097 -170.125 119.3125 C-170.41375 118.19230469 -170.7025 117.07210937 -171 115.91796875 C-171.37518691 114.44536011 -171.75017665 112.97270122 -172.125 111.5 C-172.31578125 110.76201172 -172.5065625 110.02402344 -172.703125 109.26367188 C-173.47762914 106.20714659 -174.125 103.47876522 -174.125 100.3125 C-174.71667969 100.21453125 -175.30835938 100.1165625 -175.91796875 100.015625 C-182.3153722 98.80502337 -186.06303586 97.22769068 -189.9375 91.75 C-192.00780773 85.75700394 -192.00780773 79.86799606 -189.9375 73.875 C-187.59864333 70.56834057 -185.3183562 67.78854283 -181.19921875 66.89453125 C-178.7095675 66.34596403 -177.18614065 65.84676421 -175.125 64.3125 C-173.55254076 60.90921711 -172.49528403 57.47044379 -171.38671875 53.890625 C-168.11660781 44.61687384 -159.87652573 36.54516924 -151.38671875 31.7734375 C-131.33012387 22.28608557 -107.81630697 24.22058275 -87.0859375 30.76171875 C-84.9830977 31.44770616 -84.9830977 31.44770616 -82.125 31.3125 C-80.51147219 29.42280855 -80.51147219 29.42280855 -79 26.9375 C-75.16695113 21.24015901 -70.89764532 16.24265836 -66.125 11.3125 C-65.36445313 10.52617188 -64.60390625 9.73984375 -63.8203125 8.9296875 C-46.14217015 -8.16884362 -21.52178868 -11.96025098 0 0 Z M-66.93359375 21.63671875 C-67.85821644 22.79419501 -68.77630329 23.9569251 -69.6875 25.125 C-70.33259521 25.95185303 -70.33259521 25.95185303 -70.99072266 26.79541016 C-73.10632455 29.61305806 -74.40909229 31.88047622 -75.125 35.3125 C-73.92488281 35.83457031 -72.72476563 36.35664062 -71.48828125 36.89453125 C-62.09159253 41.02736061 -52.84523475 45.36144446 -43.75 50.125 C-42.87770752 50.58044189 -42.00541504 51.03588379 -41.10668945 51.50512695 C-37.52898314 53.40015023 -34.13047647 55.25581404 -30.8984375 57.69921875 C-28.24158259 59.55069463 -28.24158259 59.55069463 -25.22265625 59.33984375 C-21.27090924 58.02923913 -18.06706205 56.09223984 -14.5625 53.875 C-7.90227382 49.80762399 -1.11607342 46.21367062 5.9375 42.875 C6.80511963 42.46258057 7.67273926 42.05016113 8.56665039 41.62524414 C13.59572961 39.27297201 18.65042952 37.19092938 23.875 35.3125 C15.25972186 19.42432426 1.83763703 6.21364725 -15.60546875 0.5 C-35.81917933 -4.5099386 -54.28145458 6.36120434 -66.93359375 21.63671875 Z M-158.125 45.3125 C-162.58399334 50.94786093 -166.29426469 57.31782854 -168.125 64.3125 C-166.98780581 67.72408256 -166.08157056 68.43104601 -163.125 70.3125 C-162.465 70.3125 -161.805 70.3125 -161.125 70.3125 C-158.28136154 77.3268082 -156.69934119 83.19393011 -159.25 90.5625 C-161.125 93.3125 -161.125 93.3125 -164.375 95.5625 C-167.33015747 97.93886889 -167.33015747 97.93886889 -167.359375 100.6015625 C-166.90033438 105.66631065 -165.69829498 110.48772873 -164.125 115.3125 C-160.36635876 114.79800918 -157.378928 113.5509429 -154.01147461 111.83642578 C-143.47981687 106.47536588 -132.43459775 102.83556471 -121.21484375 99.1953125 C-120.16224365 98.84718506 -119.10964355 98.49905762 -118.02514648 98.14038086 C-115.46704267 97.41014009 -113.22344545 97.12894764 -110.59375 96.88671875 C-106.98450807 95.68026112 -106.98450807 95.68026112 -105.81665039 92.78320312 C-104.81360167 89.86698423 -103.94898869 86.95355193 -103.18878174 83.96514893 C-102.34195047 80.64536 -101.38357777 77.35787604 -100.43359375 74.06640625 C-100.24575317 73.40614441 -100.0579126 72.74588257 -99.86437988 72.06561279 C-97.38736641 63.51026732 -93.77612731 55.47126348 -90.07128906 47.39160156 C-88.70369683 44.3868504 -87.41367252 41.35182198 -86.125 38.3125 C-109.37815439 31.22647958 -138.90680983 26.09430983 -158.125 45.3125 Z M33.875 38.3125 C34.40867187 39.40820312 34.94234375 40.50390625 35.4921875 41.6328125 C40.52269011 52.24058667 44.64894491 62.98625741 48.3125 74.125 C48.52718933 74.7772052 48.74187866 75.4294104 48.96307373 76.10137939 C52.66215305 87.38461846 52.66215305 87.38461846 53.74658203 92.11206055 C54.52767127 95.34896965 54.52767127 95.34896965 56.72827148 96.546875 C57.47665283 96.71703125 58.22503418 96.8871875 58.99609375 97.0625 C59.83970459 97.27447021 60.68331543 97.48644043 61.55249023 97.70483398 C62.91869507 98.00562866 62.91869507 98.00562866 64.3125 98.3125 C66.23068011 98.7974378 68.14732997 99.28846383 70.0625 99.78515625 C71.03445313 100.03281738 72.00640625 100.28047852 73.0078125 100.53564453 C77.36153132 101.715271 81.58495275 103.18274596 85.8125 104.75 C86.58843506 105.0375415 87.36437012 105.32508301 88.16381836 105.62133789 C94.40340798 108.00396739 100.30570673 110.87142873 106.1875 114.02734375 C108.82958263 115.52820455 108.82958263 115.52820455 111.875 115.3125 C117.37420173 96.1987697 121.34209215 75.17102343 112.875 56.3125 C112.16214844 56.40789062 111.44929688 56.50328125 110.71484375 56.6015625 C103.62600525 57.42207409 98.44416057 57.42154943 92.125 53.6875 C87.88279248 49.20961428 86.70666888 44.398619 86.6875 38.3125 C86.73481947 36.97854164 86.79173763 35.64469796 86.875 34.3125 C69.82094261 29.25944596 50.35134662 32.41290492 33.875 38.3125 Z M-80.125 41.3125 C-84.78401477 50.07293468 -88.91451973 58.90561025 -92.4375 68.1875 C-92.76234375 69.04174561 -93.0871875 69.89599121 -93.421875 70.77612305 C-97.77180632 81.75073323 -97.77180632 81.75073323 -99.125 93.3125 C-93.99629403 92.62277483 -88.87486166 91.89523426 -83.75634766 91.13354492 C-82.01789948 90.88014892 -80.27795546 90.63678909 -78.53662109 90.40405273 C-64.81801275 88.58981903 -64.81801275 88.58981903 -54.125 80.3125 C-52.61480442 79.12426075 -51.07526057 77.97258118 -49.51171875 76.85546875 C-48.73892578 76.30052734 -47.96613281 75.74558594 -47.16992188 75.17382812 C-46.39197266 74.62146484 -45.61402344 74.06910156 -44.8125 73.5 C-44.01521484 72.92830078 -43.21792969 72.35660156 -42.39648438 71.76757812 C-39.33074297 69.57334269 -36.26217431 67.40394954 -33.125 65.3125 C-34.332611 61.68966701 -35.07648188 61.48379103 -38.33203125 59.7109375 C-39.21971191 59.22463867 -40.10739258 58.73833984 -41.02197266 58.23730469 C-41.98409668 57.72586914 -42.9462207 57.21443359 -43.9375 56.6875 C-44.9176709 56.1605957 -45.8978418 55.63369141 -46.90771484 55.09082031 C-53.59479408 51.54169783 -60.36007864 48.19923917 -67.25 45.0625 C-68.50067261 44.48894775 -68.50067261 44.48894775 -69.77661133 43.90380859 C-70.55415771 43.55914551 -71.3317041 43.21448242 -72.1328125 42.859375 C-72.80973145 42.55870117 -73.48665039 42.25802734 -74.18408203 41.94824219 C-76.4181494 41.10498358 -76.4181494 41.10498358 -80.125 41.3125 Z M20.59375 42.796875 C19.76085449 43.14999756 18.92795898 43.50312012 18.06982422 43.86694336 C17.18053223 44.26147705 16.29124023 44.65601074 15.375 45.0625 C14.45605957 45.46283447 13.53711914 45.86316895 12.59033203 46.27563477 C1.67752289 51.13476539 -9.17314202 56.67792802 -19.125 63.3125 C-19.125 63.9725 -19.125 64.6325 -19.125 65.3125 C-17.7262449 66.56598166 -17.7262449 66.56598166 -15.86328125 67.78125 C-15.15494141 68.27109375 -14.44660156 68.7609375 -13.71679688 69.265625 C-12.96462891 69.77609375 -12.21246094 70.2865625 -11.4375 70.8125 C-9.99384448 71.79879909 -8.5525098 72.78850213 -7.11328125 73.78125 C-6.32284424 74.31830566 -5.53240723 74.85536133 -4.71801758 75.40869141 C-2.125 77.3125 -2.125 77.3125 0.6965332 79.82177734 C9.65438201 87.71415116 18.03390852 89.47717347 29.6875 90.9375 C31.36315294 91.17736586 33.03829408 91.42083558 34.71289062 91.66796875 C38.76224777 92.25772589 42.8153279 92.79876323 46.875 93.3125 C46.12365026 86.50180495 44.5657416 80.49547576 42.375 74 C42.02405273 72.95706787 41.67310547 71.91413574 41.31152344 70.83959961 C38.9012605 63.86629484 36.22264396 57.07164445 33.125 50.375 C32.76083984 49.5708667 32.39667969 48.7667334 32.02148438 47.93823242 C30.30781644 43.98483685 30.30781644 43.98483685 27.01269531 41.5065918 C24.40963221 41.27024699 22.99284656 41.77276726 20.59375 42.796875 Z M-33.6875 72.875 C-34.31285645 73.32738037 -34.93821289 73.77976074 -35.58251953 74.24584961 C-43.01297836 79.57654398 -43.01297836 79.57654398 -50.125 85.3125 C-50.125 85.6425 -50.125 85.9725 -50.125 86.3125 C-34.285 86.3125 -18.445 86.3125 -2.125 86.3125 C-5.7529751 82.6845249 -8.99482146 79.76018682 -13.0625 76.75 C-14.06152344 76.00621094 -15.06054688 75.26242188 -16.08984375 74.49609375 C-24.85859592 67.89270099 -24.85859592 67.89270099 -33.6875 72.875 Z M-63.203125 95.1328125 C-63.91984375 95.89335937 -64.6365625 96.65390625 -65.375 97.4375 C-66.10203125 98.18257813 -66.8290625 98.92765625 -67.578125 99.6953125 C-68.41859375 100.55898437 -69.2590625 101.42265625 -70.125 102.3125 C-71.33998169 103.38247608 -72.56349096 104.44280666 -73.79296875 105.49609375 C-78.82149939 109.85094001 -83.49625993 114.5375486 -88.1875 119.25 C-89.04666016 120.10529297 -89.90582031 120.96058594 -90.79101562 121.84179688 C-108.34076599 139.41836122 -110.19835342 151.46450432 -110.25 175.8125 C-110.22932715 182.61010745 -110.07703581 189.3976137 -109.75 196.1875 C-109.71922363 196.90615234 -109.68844727 197.62480469 -109.65673828 198.36523438 C-109.29762464 204.66536909 -108.53977705 210.43603137 -104.0625 215.125 C-103.42699219 215.805625 -102.79148437 216.48625 -102.13671875 217.1875 C-101.47285156 217.88875 -100.80898437 218.59 -100.125 219.3125 C-99.53332031 219.993125 -98.94164062 220.67375 -98.33203125 221.375 C-87.0651749 234.3285115 -74.79499122 246.9000386 -61.125 257.3125 C-60.795 257.6425 -60.465 257.9725 -60.125 258.3125 C-49.93902504 259.94297044 -39.35813967 259.46509578 -29.08007812 259.44287109 C-26.13145812 259.43751174 -23.18299039 259.44284284 -20.234375 259.44921875 C-1.82647956 260.72562123 -1.82647956 260.72562123 14.0625 253.8125 C14.60801514 253.30984619 15.15353027 252.80719238 15.71557617 252.28930664 C17.80488079 250.33202233 19.83845449 248.32466855 21.875 246.3125 C22.84733731 245.36506081 23.82036598 244.41833082 24.79394531 243.47216797 C28.10750961 240.24726252 31.40182349 237.00329969 34.6875 233.75 C35.22329681 233.22019531 35.75909363 232.69039062 36.31112671 232.14453125 C53.67144465 214.91351243 57.84080029 203.88467328 57.99438477 179.34912109 C59.45852339 157.43535767 59.45852339 157.43535767 53.39453125 137.37890625 C52.83121094 136.88261719 52.26789063 136.38632813 51.6875 135.875 C49.21228441 133.62706627 46.96414899 131.32758773 44.80859375 128.7734375 C40.59502475 123.91214344 36.09987486 119.35129281 31.55175781 114.80395508 C30.13580053 113.38581716 28.72801711 111.95953335 27.3203125 110.53320312 C24.54319611 107.75028496 21.72412529 105.02154495 18.875 102.3125 C17.52245117 100.99548096 17.52245117 100.99548096 16.14257812 99.65185547 C9.3757978 93.51293326 4.87708095 92.10354028 -4.125 92.3125 C-5.75136627 92.29704252 -7.37767995 92.27537073 -9.00390625 92.24902344 C-13.72640736 92.18173946 -18.4470053 92.17191635 -23.16992188 92.18212891 C-26.11854188 92.18748826 -29.06700961 92.18215716 -32.015625 92.17578125 C-48.1904125 91.13978586 -48.1904125 91.13978586 -63.203125 95.1328125 Z M20.875 95.3125 C23.48065515 98.65099566 26.07685669 101.57785953 29.3125 104.3125 C33.39644105 107.79746303 37.20226277 111.52224354 41 115.3125 C41.58579834 115.89386719 42.17159668 116.47523438 42.77514648 117.07421875 C46.6833014 120.99503923 50.31600232 125.07199213 53.875 129.3125 C55.33867273 126.38515453 54.4903561 124.40240744 53.87890625 121.2109375 C53.65009766 119.99921875 53.42128906 118.7875 53.18554688 117.5390625 C52.93869141 116.26804687 52.69183594 114.99703125 52.4375 113.6875 C52.19451172 112.40875 51.95152344 111.13 51.70117188 109.8125 C51.09833649 106.64465915 50.48936191 103.47812215 49.875 100.3125 C35.52344845 96.89251122 35.52344845 96.89251122 20.875 95.3125 Z M-82.984375 96.30859375 C-84.09941406 96.53740234 -85.21445313 96.76621094 -86.36328125 97.00195312 C-87.52214844 97.24880859 -88.68101562 97.49566406 -89.875 97.75 C-91.63650391 98.11448242 -91.63650391 98.11448242 -93.43359375 98.48632812 C-96.33243777 99.08730798 -99.2293588 99.69630502 -102.125 100.3125 C-102.80253075 103.66456538 -103.4650352 107.01943575 -104.125 110.375 C-104.31578125 111.31794922 -104.5065625 112.26089844 -104.703125 113.23242188 C-105.70347138 118.35919705 -106.356817 123.08937319 -106.125 128.3125 C-102.73909211 125.66984019 -99.7824768 123.02470857 -97 119.75 C-89.76537708 111.28019756 -81.66995419 103.45004997 -73.125 96.3125 C-76.70848444 95.07927157 -79.31197824 95.5403883 -82.984375 96.30859375 Z M56.875 102.3125 C56.95540527 102.8701001 57.03581055 103.4277002 57.11865234 104.00219727 C57.35951231 105.67464502 57.59977369 107.34717904 57.83959961 109.01977539 C58.11445781 110.93201015 58.39133178 112.8439562 58.67016602 114.75561523 C59.30366906 119.13411999 59.91711333 123.50598119 60.37890625 127.90625 C60.52199219 129.2159375 60.66507812 130.525625 60.8125 131.875 C60.92464844 133.03128906 61.03679687 134.18757813 61.15234375 135.37890625 C61.99229881 138.78866977 63.20245075 140.10427243 65.875 142.3125 C65.875 139.6725 65.875 137.0325 65.875 134.3125 C78.875 134.3125 91.875 134.3125 104.875 134.3125 C105.57406942 132.71334119 106.25889468 131.10794955 106.9375 129.5 C107.32035156 128.60667969 107.70320313 127.71335938 108.09765625 126.79296875 C109.16961205 124.2205764 109.16961205 124.2205764 107.875 121.3125 C105.05901079 119.39335429 101.895649 118.06560766 98.8125 116.625 C97.88816162 116.18873291 96.96382324 115.75246582 96.01147461 115.30297852 C83.86188593 109.72955876 70.23673174 103.96293387 56.875 102.3125 Z M-161.125 122.3125 C-157.20787693 134.99445646 -151.21155328 146.5546398 -145.125 158.3125 C-144.795 158.3125 -144.465 158.3125 -144.125 158.3125 C-144.125 150.3925 -144.125 142.4725 -144.125 134.3125 C-134.555 134.3125 -124.985 134.3125 -115.125 134.3125 C-114.63 136.2925 -114.63 136.2925 -114.125 138.3125 C-113.40899124 133.82906644 -112.69702663 129.34501622 -111.98876953 124.86035156 C-111.74736245 123.33543649 -111.50485948 121.81069448 -111.26123047 120.28613281 C-110.91083774 118.09224528 -110.56441639 115.89776154 -110.21875 113.703125 C-110.05469666 112.68415131 -110.05469666 112.68415131 -109.8873291 111.64459229 C-109.39041263 108.46582663 -109.125 105.54430685 -109.125 102.3125 C-125.86406516 102.3125 -146.99911485 113.9321996 -161.125 122.3125 Z M114.875 126.3125 C114.4625 127.2096875 114.05 128.106875 113.625 129.03125 C110.49489863 135.80884764 107.31453897 142.56041661 104 149.25 C103.67588135 149.90605225 103.3517627 150.56210449 103.01782227 151.23803711 C101.23942608 154.7805885 99.3634604 158.22846497 97.33203125 161.6328125 C96.91228027 162.3431665 96.4925293 163.05352051 96.06005859 163.78540039 C95.25057559 165.14124481 94.42489324 166.48759689 93.58056641 167.82202148 C91.70296499 170.96792828 90.87660693 173.10796058 90.84765625 176.79296875 C92.09484879 181.0656702 93.9926878 184.3344339 96.375 188.0625 C103.66963016 199.94104299 109.25082809 212.58193295 114.875 225.3125 C129.26664657 217.95676953 142.04509699 205.56905975 147.875 190.3125 C147.73965275 185.31311086 144.86420494 180.48965486 142.8125 176 C142.43544922 175.16404297 142.05839844 174.32808594 141.66992188 173.46679688 C140.74288193 171.41322738 139.81113122 169.36193713 138.875 167.3125 C136.895 167.3125 134.915 167.3125 132.875 167.3125 C132.875 173.5825 132.875 179.8525 132.875 186.3125 C129.245 186.3125 125.615 186.3125 121.875 186.3125 C121.875 169.1525 121.875 151.9925 121.875 134.3125 C123.195 133.9825 124.515 133.6525 125.875 133.3125 C124.23116456 132.14301998 122.58487731 130.9769855 120.9375 129.8125 C120.02097656 129.1628125 119.10445313 128.513125 118.16015625 127.84375 C116.19500336 126.21972252 116.19500336 126.21972252 114.875 126.3125 Z M-168.125 126.3125 C-169.79444521 127.45428128 -171.4604948 128.60102905 -173.125 129.75 C-174.053125 130.38808594 -174.98125 131.02617187 -175.9375 131.68359375 C-176.659375 132.22113281 -177.38125 132.75867188 -178.125 133.3125 C-178.125 133.6425 -178.125 133.9725 -178.125 134.3125 C-174.825 134.3125 -171.525 134.3125 -168.125 134.3125 C-168.125 151.8025 -168.125 169.2925 -168.125 187.3125 C-171.755 186.9825 -175.385 186.6525 -179.125 186.3125 C-179.125 179.3825 -179.125 172.4525 -179.125 165.3125 C-184.735 165.3125 -190.345 165.3125 -196.125 165.3125 C-196.125 172.5725 -196.125 179.8325 -196.125 187.3125 C-197.445 187.3125 -198.765 187.3125 -200.125 187.3125 C-197.66166692 202.04117906 -184.73075595 213.91751324 -173.125 222.3125 C-171.14895764 223.35904508 -169.15473052 224.37431345 -167.125 225.3125 C-165.00778242 221.1682602 -162.96705386 217.02457416 -161.1171875 212.75390625 C-157.08258813 203.44555661 -152.89660189 194.57555405 -147.22412109 186.13305664 C-144.09400179 181.22380988 -143.06485012 177.10888715 -144.125 171.3125 C-145.15117009 168.5734231 -146.55826271 166.21237821 -148.125 163.75 C-148.95635784 162.36000138 -149.78439741 160.96801357 -150.609375 159.57421875 C-151.03025391 158.87087402 -151.45113281 158.1675293 -151.88476562 157.44287109 C-153.85778924 154.0537758 -155.62947728 150.5729871 -157.375 147.0625 C-157.70387207 146.40362793 -158.03274414 145.74475586 -158.37158203 145.06591797 C-160.87880693 139.9689519 -163.07620809 134.77492093 -165.1171875 129.47265625 C-165.92722768 127.15243938 -165.92722768 127.15243938 -168.125 126.3125 Z M-185.84765625 140.02734375 C-192.49062095 146.44000215 -192.49062095 146.44000215 -196.125 154.3125 C-190.515 154.3125 -184.905 154.3125 -179.125 154.3125 C-179.125 148.0425 -179.125 141.7725 -179.125 135.3125 C-181.59891831 135.3125 -184.10420383 138.49197064 -185.84765625 140.02734375 Z M133.875 143.3125 C132.53598208 144.42376659 132.53598208 144.42376659 132.77734375 147.25390625 C132.78894531 148.44886719 132.80054688 149.64382812 132.8125 150.875 C132.82152344 152.07253906 132.83054687 153.27007812 132.83984375 154.50390625 C132.85144531 155.43074219 132.86304688 156.35757813 132.875 157.3125 C137.24719878 158.37761827 139.66518866 157.97684402 143.875 156.3125 C143.54847493 151.08809896 140.4856655 146.93214725 136.875 143.3125 C135.885 143.3125 134.895 143.3125 133.875 143.3125 Z M-133.125 144.3125 C-133.125 147.2825 -133.125 150.2525 -133.125 153.3125 C-129.87893319 153.89911468 -129.87893319 153.89911468 -126.125 153.3125 C-123.67930265 151.29121868 -121.79123901 149.0102203 -120.125 146.3125 C-120.125 145.6525 -120.125 144.9925 -120.125 144.3125 C-124.415 144.3125 -128.705 144.3125 -133.125 144.3125 Z M67.875 144.3125 C69.66638015 147.8952603 71.58708297 150.8376084 73.9375 154.0625 C74.65035156 155.04734375 75.36320312 156.0321875 76.09765625 157.046875 C76.68417969 157.79453125 77.27070313 158.5421875 77.875 159.3125 C78.205 159.3125 78.535 159.3125 78.875 159.3125 C78.875 154.3625 78.875 149.4125 78.875 144.3125 C75.245 144.3125 71.615 144.3125 67.875 144.3125 Z M90.875 144.3125 C90.875 149.5925 90.875 154.8725 90.875 160.3125 C93.43320816 156.90155579 95.20443579 153.86120905 97.0625 150.0625 C97.85720703 148.44601563 97.85720703 148.44601563 98.66796875 146.796875 C99.06628906 145.97703125 99.46460938 145.1571875 99.875 144.3125 C96.905 144.3125 93.935 144.3125 90.875 144.3125 Z M-117.64453125 152.51953125 C-119.48437699 154.74773493 -119.60565323 156.14551451 -119.8125 159 C-119.87824219 159.80824219 -119.94398438 160.61648437 -120.01171875 161.44921875 C-120.04910156 162.06410156 -120.08648437 162.67898437 -120.125 163.3125 C-121.22908203 163.14621094 -121.22908203 163.14621094 -122.35546875 162.9765625 C-125.33858415 163.04170017 -125.33858415 163.04170017 -127.36328125 165.6484375 C-128.39001953 167.15277344 -128.39001953 167.15277344 -129.4375 168.6875 C-130.13488281 169.68523437 -130.83226562 170.68296875 -131.55078125 171.7109375 C-133.2975679 174.09089139 -133.2975679 174.09089139 -133.125 176.3125 C-127.515 176.3125 -121.905 176.3125 -116.125 176.3125 C-115.795 168.0625 -115.465 159.8125 -115.125 151.3125 C-116.31792804 151.20883482 -116.31792804 151.20883482 -117.64453125 152.51953125 Z M63.875 152.3125 C63.875 167.8225 63.875 183.3325 63.875 199.3125 C74.43096046 189.03034839 74.43096046 189.03034839 80.125 175.8125 C79.03967848 166.92956077 69.82224244 158.25974244 63.875 152.3125 Z M-141.125 186.3125 C-143.18177141 190.17992681 -145.22566894 194.05383035 -147.2590332 197.93359375 C-147.94908454 199.24621053 -148.64232892 200.55715481 -149.33911133 201.86621094 C-154.09592488 210.80970732 -157.99232521 219.66703633 -161.125 229.3125 C-144.88866382 238.61501622 -127.62330927 245.96186285 -109.125 249.3125 C-109.26421875 248.095625 -109.4034375 246.87875 -109.546875 245.625 C-109.86061614 242.855423 -110.14335721 240.09047892 -110.37304688 237.3125 C-111.7424019 221.00018322 -114.3206031 210.07679243 -125.61279297 198.01953125 C-128.32335661 194.95975389 -130.31677019 191.42320318 -132.3671875 187.90234375 C-135.05139706 185.47462532 -137.63576214 186.2102301 -141.125 186.3125 Z M-126.125 186.3125 C-123.32807439 191.58362904 -120.14264453 195.90648317 -116.125 200.3125 C-114.70721707 197.47693413 -115.26242378 195.3216294 -115.5625 192.1875 C-115.66433594 191.09179688 -115.76617187 189.99609375 -115.87109375 188.8671875 C-115.95488281 188.02414063 -116.03867188 187.18109375 -116.125 186.3125 C-119.425 186.3125 -122.725 186.3125 -126.125 186.3125 Z M79.28515625 189.8046875 C78.48009238 190.91633092 77.69841176 192.04518121 76.9375 193.1875 C76.08571607 194.38098033 75.23283711 195.57367984 74.37890625 196.765625 C73.96141113 197.36310547 73.54391602 197.96058594 73.11376953 198.57617188 C71.30322578 201.11393048 69.34406659 203.52173046 67.375 205.9375 C63.39260913 210.85020349 61.47682577 214.45001263 60.5859375 220.71875 C60.47778717 221.43985962 60.36963684 222.16096924 60.25820923 222.90393066 C60.03124362 224.4264805 59.80788715 225.94957212 59.58789062 227.47314453 C59.25109755 229.80490122 58.90390573 232.13491874 58.5546875 234.46484375 C58.33532984 235.94522259 58.11655997 237.42568866 57.8984375 238.90625 C57.79534271 239.6031897 57.69224792 240.30012939 57.58602905 241.01818848 C57.18341305 243.81602113 56.875 246.48111078 56.875 249.3125 C75.30650257 245.3498573 92.54934607 238.74175634 108.875 229.3125 C106.95920005 223.26134326 104.77543128 217.42009234 102.1875 211.625 C101.84517334 210.85551025 101.50284668 210.08602051 101.15014648 209.29321289 C96.16539079 197.53564059 96.16539079 197.53564059 88.875 187.3125 C84.39437179 186.7208204 82.61404949 186.60131814 79.28515625 189.8046875 Z M-106.125 223.3125 C-105.68767219 232.39082219 -104.95991388 241.6260331 -102.125 250.3125 C-97.78818077 253.20371282 -93.26587339 253.59884085 -88.1875 254.5 C-86.68413086 254.78520508 -86.68413086 254.78520508 -85.15039062 255.07617188 C-83.70116211 255.33817383 -83.70116211 255.33817383 -82.22265625 255.60546875 C-81.34101807 255.7655542 -80.45937988 255.92563965 -79.55102539 256.09057617 C-77.1114515 256.31373937 -75.43941269 256.06156721 -73.125 255.3125 C-73.59808594 254.86970703 -74.07117188 254.42691406 -74.55859375 253.97070312 C-76.74869505 251.91935093 -78.93685259 249.86593617 -81.125 247.8125 C-81.86878906 247.11640625 -82.61257812 246.4203125 -83.37890625 245.703125 C-96.61454447 233.27313433 -96.61454447 233.27313433 -102.0625 226.8125 C-103.06253064 225.62795345 -104.07692154 224.45475363 -105.125 223.3125 C-105.455 223.3125 -105.785 223.3125 -106.125 223.3125 Z M51.65087891 224.51489258 C51.13960449 225.07329834 50.62833008 225.6317041 50.1015625 226.20703125 C49.52929932 226.82779541 48.95703613 227.44855957 48.36743164 228.08813477 C47.7511792 228.76030029 47.13492676 229.43246582 46.5 230.125 C38.34646021 238.93566274 30.16353424 247.67526073 20.875 255.3125 C24.18367258 256.38336267 26.56919881 256.22345924 29.97265625 255.60546875 C30.93880859 255.43080078 31.90496094 255.25613281 32.90039062 255.07617188 C33.90263672 254.88603516 34.90488281 254.69589844 35.9375 254.5 C36.94361328 254.32146484 37.94972656 254.14292969 38.98632812 253.95898438 C44.73526246 252.95396521 44.73526246 252.95396521 49.875 250.3125 C50.65415645 248.32167252 50.65415645 248.32167252 51.04296875 245.98828125 C51.21376953 245.12396484 51.38457031 244.25964844 51.56054688 243.36914062 C51.72619141 242.46357422 51.89183594 241.55800781 52.0625 240.625 C52.23974609 239.73876953 52.41699219 238.85253906 52.59960938 237.93945312 C53.5509844 232.97687527 54.07535324 228.36278345 53.875 223.3125 C52.70792283 223.19570886 52.70792283 223.19570886 51.65087891 224.51489258 Z M-164.125 236.3125 C-170.02293123 257.06978223 -173.99535997 279.42698816 -163.125 299.3125 C-157.4386386 308.78482004 -148.78770735 314.59739795 -138.29296875 317.8046875 C-121.15455051 321.81909177 -102.54555959 319.19211973 -86.125 313.3125 C-86.38603516 312.74144531 -86.64707031 312.17039062 -86.91601562 311.58203125 C-92.84757204 298.51390872 -98.03935047 285.39411364 -102.43359375 271.73046875 C-102.72983643 270.83038086 -103.0260791 269.93029297 -103.33129883 269.00292969 C-104.125 266.3125 -104.125 266.3125 -104.62768555 263.52050781 C-105.17442636 260.78804802 -105.70535692 258.71442569 -107.125 256.3125 C-110.56394554 254.23002095 -114.15616682 253.50915405 -118.0625 252.6875 C-120.24298659 252.14377463 -122.42136494 251.59153131 -124.59765625 251.03125 C-125.69223145 250.75539063 -126.78680664 250.47953125 -127.91455078 250.1953125 C-132.75238661 248.86499962 -137.36322979 247.09257101 -142 245.1875 C-142.82161621 244.85153809 -143.64323242 244.51557617 -144.48974609 244.16943359 C-149.56472901 242.05320435 -154.52562211 239.77581081 -159.34765625 237.125 C-161.25402831 236.10462012 -161.25402831 236.10462012 -164.125 236.3125 Z M104.4453125 238.64990234 C95.80449676 243.41176268 86.71429978 246.61599601 77.375 249.6875 C76.71970306 249.90396179 76.06440613 250.12042358 75.38925171 250.34344482 C73.48005131 250.97144183 71.56817575 251.59128734 69.65625 252.2109375 C68.47538818 252.59386963 67.29452637 252.97680176 66.07788086 253.37133789 C63.41062229 254.15510813 60.89694542 254.65937679 58.16015625 255.08203125 C54.88572559 255.93958652 54.88572559 255.93958652 53.78662109 257.97265625 C52.91589408 260.17456603 52.33884691 262.31717124 51.8125 264.625 C51.60173828 265.38490234 51.39097656 266.14480469 51.17382812 266.92773438 C50.12112888 270.98009834 49.43528717 274.24831067 50.875 278.3125 C51.555625 279.158125 52.23625 280.00375 52.9375 280.875 C55.79634248 285.94713988 55.64194363 290.61520443 54.875 296.3125 C52.59709954 301.21874714 49.65754033 303.8292579 44.875 306.3125 C43.48412039 306.48405062 42.08665757 306.60791489 40.6875 306.6875 C38.8003125 306.996875 38.8003125 306.996875 36.875 307.3125 C35.09912899 310.28039218 35.09912899 310.28039218 33.875 313.3125 C54.19123379 319.50354166 75.09390603 323.25859314 95.125 314.0625 C105.90450156 308.22360332 111.65707678 300.13495862 115.6875 288.625 C120.34175597 271.08842839 116.90875158 253.31973835 111.875 236.3125 C108.66085586 236.3125 107.19307448 237.12451369 104.4453125 238.64990234 Z M-99.125 258.3125 C-98.54836871 264.56894946 -97.14031065 270.12116509 -95.125 276.0625 C-94.82247314 276.96339355 -94.51994629 277.86428711 -94.20825195 278.79248047 C-90.5260267 289.45638274 -86.41218831 300.88171754 -80.125 310.3125 C-72.37012918 308.96594293 -65.91513159 306.15136194 -58.875 302.6875 C-57.22479858 301.8843335 -57.22479858 301.8843335 -55.54125977 301.06494141 C-43.89502502 295.4291844 -43.89502502 295.4291844 -33.125 288.3125 C-33.125 287.6525 -33.125 286.9925 -33.125 286.3125 C-34.55694842 285.04252585 -34.55694842 285.04252585 -36.45703125 283.80859375 C-37.16819092 283.3192334 -37.87935059 282.82987305 -38.61206055 282.32568359 C-39.37945557 281.80570801 -40.14685059 281.28573242 -40.9375 280.75 C-47.16812982 276.46316076 -53.05477756 272.06103224 -58.73046875 267.0546875 C-63.06231043 263.90297235 -67.96648072 263.04919323 -73.1875 262.27734375 C-74.31414062 262.10783203 -75.44078125 261.93832031 -76.6015625 261.76367188 C-78.34566406 261.5094043 -78.34566406 261.5094043 -80.125 261.25 C-82.43753328 260.90517104 -84.75003437 260.56012609 -87.0625 260.21484375 C-88.08214844 260.06523193 -89.10179687 259.91562012 -90.15234375 259.76147461 C-93.14881013 259.30890384 -96.13708073 258.81818641 -99.125 258.3125 Z M41.16796875 259.1171875 C40.1948877 259.28661865 39.22180664 259.4560498 38.21923828 259.63061523 C36.09813746 260.0048017 33.97802146 260.3846103 31.85888672 260.76977539 C26.71461034 261.69561826 21.71823418 262.40505344 16.5 262.75 C8.37892817 264.05031718 2.12077778 270.59963027 -4.03417969 275.65136719 C-8.12914364 278.90476919 -12.51656205 281.72749626 -16.87890625 284.60546875 C-17.62011719 285.16878906 -18.36132812 285.73210937 -19.125 286.3125 C-19.125 286.9725 -19.125 287.6325 -19.125 288.3125 C-16.71794428 289.94288729 -14.32666956 291.42501464 -11.8125 292.875 C-11.05718994 293.31465088 -10.30187988 293.75430176 -9.52368164 294.20727539 C-0.98558318 299.09081229 7.85356217 303.39645494 16.875 307.3125 C17.59929199 307.62719238 18.32358398 307.94188477 19.06982422 308.26611328 C22.80124979 309.7891969 25.03223543 310.55913164 28.875 309.3125 C29.64313566 307.49947913 29.64313566 307.49947913 29.875 305.3125 C28.72584055 303.41491111 28.72584055 303.41491111 27 301.75 C22.85826642 297.42525959 22.51651036 293.71738933 22.6015625 287.8828125 C23.04870143 283.67970656 24.25602308 281.67016271 26.875 278.3125 C32.29346764 274.19446459 37.16764488 273.58241369 43.875 273.3125 C44.383783 271.75283782 44.88163469 270.18960759 45.375 268.625 C45.6534375 267.75488281 45.931875 266.88476562 46.21875 265.98828125 C46.87350805 263.31858323 46.99331495 261.04853316 46.875 258.3125 C44.95533335 258.3125 43.05242344 258.78632773 41.16796875 259.1171875 Z M-50.125 265.3125 C-46.04969552 269.38780448 -42.22645484 272.65141653 -37.625 276 C-36.97402344 276.48533203 -36.32304687 276.97066406 -35.65234375 277.47070312 C-33.83801858 278.7993756 -31.99559509 280.06481174 -30.125 281.3125 C-29.31933594 281.86679687 -28.51367188 282.42109375 -27.68359375 282.9921875 C-23.1641875 283.55797576 -20.14971398 280.39403657 -16.6875 277.75 C-15.94951172 277.21052734 -15.21152344 276.67105469 -14.45117188 276.11523438 C-10.21751143 272.99549703 -6.08048244 269.77903216 -2.125 266.3125 C-2.125 265.9825 -2.125 265.6525 -2.125 265.3125 C-17.965 265.3125 -33.805 265.3125 -50.125 265.3125 Z M-35.4375 296.625 C-48.04799659 304.3264404 -61.50838062 310.59804616 -75.125 316.3125 C-73.13699515 321.86721944 -69.81418626 325.78521835 -66.125 330.3125 C-65.67253906 330.91320312 -65.22007812 331.51390625 -64.75390625 332.1328125 C-56.3288309 342.88290865 -43.65238804 350.47453967 -30.125 352.3125 C-15.49237895 353.32164628 -3.35945637 347.08070065 7.5 337.6875 C13.56093693 331.95251462 21.18710173 324.3761948 23.875 316.3125 C23.33834717 316.09223145 22.80169434 315.87196289 22.2487793 315.64501953 C12.16214521 311.47928998 2.21595 307.16408219 -7.4375 302.0625 C-8.57215698 301.46332764 -8.57215698 301.46332764 -9.72973633 300.85205078 C-14.07158824 298.51869757 -18.2162113 296.01696685 -22.28979492 293.23925781 C-27.44197179 290.63746676 -31.18203261 293.93977714 -35.4375 296.625 Z " fill="#898989" transform="translate(276.125,56.6875)"/>
<path d="M0 0 C5.50744806 4.66014836 9.22382068 9.4299055 12.203125 15.984375 C12.698125 16.974375 12.698125 16.974375 13.203125 17.984375 C13.24050781 17.32050781 13.27789062 16.65664062 13.31640625 15.97265625 C14.01434949 6.59832058 14.01434949 6.59832058 17.203125 2.984375 C23.25342383 -1.32261739 28.83538652 -2.75364974 36.203125 -2.015625 C45.35595519 0.13720519 45.35595519 0.13720519 47.203125 1.984375 C47.30167155 3.62778367 47.33284911 5.2755211 47.328125 6.921875 C47.33070313 7.81777344 47.33328125 8.71367187 47.3359375 9.63671875 C47.203125 11.984375 47.203125 11.984375 46.203125 13.984375 C42.203125 11.984375 42.203125 11.984375 40.421875 10.921875 C37.63575788 9.74464241 35.46604251 9.78763887 32.453125 9.859375 C31.46828125 9.87742188 30.4834375 9.89546875 29.46875 9.9140625 C28.34726562 9.94886719 28.34726562 9.94886719 27.203125 9.984375 C26.543125 11.304375 25.883125 12.624375 25.203125 13.984375 C28.46952008 17.94955112 31.07883176 18.66728621 36.078125 19.484375 C41.45851056 20.51347162 45.10505291 21.34164426 49.203125 24.984375 C51.99690283 29.17504174 52.2410839 33.00416693 52.203125 37.984375 C50.58752432 44.04287755 47.2844301 47.54294564 42.203125 50.984375 C33.34173209 53.93817264 22.64344723 52.47692213 14.203125 48.984375 C13.543125 48.984375 12.883125 48.984375 12.203125 48.984375 C10.84035414 50.77403047 10.84035414 50.77403047 9.578125 52.984375 C8.90910156 54.098125 8.90910156 54.098125 8.2265625 55.234375 C7.88882813 55.811875 7.55109375 56.389375 7.203125 56.984375 C9.183125 57.314375 11.163125 57.644375 13.203125 57.984375 C13.203125 67.884375 13.203125 77.784375 13.203125 87.984375 C9.738125 88.479375 9.738125 88.479375 6.203125 88.984375 C5.873125 83.704375 5.543125 78.424375 5.203125 72.984375 C3.553125 75.954375 1.903125 78.924375 0.203125 81.984375 C-0.456875 81.984375 -1.116875 81.984375 -1.796875 81.984375 C-3.446875 79.014375 -5.096875 76.044375 -6.796875 72.984375 C-7.126875 78.264375 -7.456875 83.544375 -7.796875 88.984375 C-10.106875 88.654375 -12.416875 88.324375 -14.796875 87.984375 C-14.796875 82.374375 -14.796875 76.764375 -14.796875 70.984375 C-16.446875 71.314375 -18.096875 71.644375 -19.796875 71.984375 C-21.23315957 72.04704012 -22.6719305 72.07123847 -24.109375 72.046875 C-25.9346875 72.0159375 -25.9346875 72.0159375 -27.796875 71.984375 C-27.4359375 72.96019531 -27.075 73.93601562 -26.703125 74.94140625 C-26.23412338 76.22647069 -25.76538721 77.51163204 -25.296875 78.796875 C-25.05839844 79.43947266 -24.81992188 80.08207031 -24.57421875 80.74414062 C-23.52618754 83.63371239 -22.796875 85.88513561 -22.796875 88.984375 C-25.436875 88.654375 -28.076875 88.324375 -30.796875 87.984375 C-31.126875 86.004375 -31.456875 84.024375 -31.796875 81.984375 C-35.096875 81.984375 -38.396875 81.984375 -41.796875 81.984375 C-42.126875 83.964375 -42.456875 85.944375 -42.796875 87.984375 C-45.109375 88.609375 -45.109375 88.609375 -47.796875 88.984375 C-48.786875 88.324375 -49.776875 87.664375 -50.796875 86.984375 C-50.36375 85.79199219 -49.930625 84.59960938 -49.484375 83.37109375 C-48.92162639 81.8047768 -48.35914002 80.23836561 -47.796875 78.671875 C-47.51070312 77.88619141 -47.22453125 77.10050781 -46.9296875 76.29101562 C-46.65898437 75.53369141 -46.38828125 74.77636719 -46.109375 73.99609375 C-45.85800781 73.29959717 -45.60664063 72.60310059 -45.34765625 71.88549805 C-44.65773964 69.834007 -44.65773964 69.834007 -44.796875 66.984375 C-46.33440327 65.60884162 -46.33440327 65.60884162 -48.359375 64.359375 C-56.40736241 58.57621944 -60.6775187 51.24839295 -63.796875 41.984375 C-64.209375 40.788125 -64.621875 39.591875 -65.046875 38.359375 C-65.294375 37.575625 -65.541875 36.791875 -65.796875 35.984375 C-67.116875 37.304375 -68.436875 38.624375 -69.796875 39.984375 C-73.096875 34.374375 -76.396875 28.764375 -79.796875 22.984375 C-80.126875 32.554375 -80.456875 42.124375 -80.796875 51.984375 C-87.796875 51.984375 -87.796875 51.984375 -91.796875 50.984375 C-91.796875 33.824375 -91.796875 16.664375 -91.796875 -1.015625 C-81.796875 -1.015625 -81.796875 -1.015625 -79.71875 0.6015625 C-79.33203125 1.34664062 -78.9453125 2.09171875 -78.546875 2.859375 C-77.86818359 4.07753906 -77.86818359 4.07753906 -77.17578125 5.3203125 C-76.72074219 6.19945312 -76.26570312 7.07859375 -75.796875 7.984375 C-74.70221647 9.82340133 -73.5982317 11.65691272 -72.484375 13.484375 C-71.99324219 14.3196875 -71.50210938 15.155 -70.99609375 16.015625 C-69.94593337 17.91399857 -69.94593337 17.91399857 -68.796875 18.984375 C-68.52649414 18.38375244 -68.25611328 17.78312988 -67.97753906 17.16430664 C-60.04061472 -0.00187026 -60.04061472 -0.00187026 -54.67578125 -2.42578125 C-51.609375 -2.515625 -51.609375 -2.515625 -48.57421875 -2.23828125 C-45.48743637 -1.99081768 -44.30444082 -2.42231711 -41.671875 -3.953125 C-28.58907325 -11.31387999 -11.82530956 -8.52215047 0 0 Z M14.203125 20.984375 C13.84472517 29.50090874 13.84472517 29.50090874 16.72265625 37.21484375 C21.94431201 41.66699234 26.7933438 42.36940091 33.52734375 42.3515625 C36.38185896 41.959848 37.4060485 41.50898618 39.390625 39.484375 C39.98875 38.659375 40.586875 37.834375 41.203125 36.984375 C40.64235699 34.49432996 40.64235699 34.49432996 39.203125 31.984375 C36.44084093 30.67229007 33.79994215 30.08804291 30.796875 29.56640625 C23.75992835 28.32646234 19.25302748 26.15205946 14.203125 20.984375 Z M13.203125 42.984375 C14.203125 45.984375 14.203125 45.984375 14.203125 45.984375 Z M3.203125 59.984375 C0.233125 62.459375 0.233125 62.459375 -2.796875 64.984375 C-2.466875 66.304375 -2.136875 67.624375 -1.796875 68.984375 C-1.136875 68.984375 -0.476875 68.984375 0.203125 68.984375 C0.88375 67.870625 1.564375 66.756875 2.265625 65.609375 C2.64847656 64.98289062 3.03132813 64.35640625 3.42578125 63.7109375 C3.68230469 63.14117187 3.93882812 62.57140625 4.203125 61.984375 C3.873125 61.324375 3.543125 60.664375 3.203125 59.984375 Z M-37.796875 69.984375 C-38.126875 71.964375 -38.456875 73.944375 -38.796875 75.984375 C-37.476875 75.984375 -36.156875 75.984375 -34.796875 75.984375 C-35.126875 74.004375 -35.456875 72.024375 -35.796875 69.984375 C-36.456875 69.984375 -37.116875 69.984375 -37.796875 69.984375 Z " fill="#898989" transform="translate(274.796875,192.015625)"/>
<path d="M0 0 C0.33 0 0.66 0 1 0 C1.0825 0.94875 1.165 1.8975 1.25 2.875 C1.4975 3.90625 1.745 4.9375 2 6 C3.98562946 7.22236202 3.98562946 7.22236202 6 8 C5.96970703 8.67764404 5.93941406 9.35528809 5.90820312 10.0534668 C5.10647138 28.34065953 4.50039977 46.58033196 5.375 64.875 C5.42116455 65.95394531 5.42116455 65.95394531 5.46826172 67.0546875 C5.82768253 73.35424556 6.58565643 79.12398534 11.0625 83.8125 C11.69671875 84.49183594 12.3309375 85.17117188 12.984375 85.87109375 C13.64953125 86.57363281 14.3146875 87.27617187 15 88 C16.27089948 89.45827569 17.5417276 90.91661357 18.8125 92.375 C24.23882357 98.42525625 30.06130983 104.08485965 35.88012695 109.75537109 C36.640271 110.50383301 37.40041504 111.25229492 38.18359375 112.0234375 C38.86993896 112.69294434 39.55628418 113.36245117 40.26342773 114.05224609 C41.98739531 115.98586247 43.0739316 117.58664675 44 120 C43.625 122.75 43.625 122.75 43 125 C42.29875 124.236875 41.5975 123.47375 40.875 122.6875 C38.24979322 119.93296853 38.24979322 119.93296853 35.3515625 118.84765625 C30.61297685 116.23535903 27.25183988 112.60733977 23.5 108.75 C22.76652344 108.01136719 22.03304687 107.27273438 21.27734375 106.51171875 C16.98598921 102.15894947 12.92020803 97.68936277 9 93 C8.01 94.98 7.02 96.96 6 99 C4.35 98.34 2.7 97.68 1 97 C1.00644531 96.11441406 1.01289063 95.22882813 1.01953125 94.31640625 C0.36619621 82.47008605 -4.77904986 75.84925968 -12.31835938 67.00439453 C-14.07251981 64.91356161 -15.76111739 62.78681145 -17.421875 60.62109375 C-17.9178418 59.97454834 -18.41380859 59.32800293 -18.92480469 58.66186523 C-20 57 -20 57 -20 55 C-22.31 55 -24.62 55 -27 55 C-27.23203125 55.804375 -27.4640625 56.60875 -27.703125 57.4375 C-29.31892039 61.87607046 -31.49372516 65.85953775 -33.75 70 C-41.08609439 83.50546153 -41.08609439 83.50546153 -46 98 C-45.37955811 98.28198242 -44.75911621 98.56396484 -44.11987305 98.85449219 C-41.30385707 100.14190415 -38.49573903 101.44571677 -35.6875 102.75 C-34.22280273 103.41515625 -34.22280273 103.41515625 -32.72851562 104.09375 C-31.32182617 104.75117188 -31.32182617 104.75117188 -29.88671875 105.421875 C-28.59060669 106.01887207 -28.59060669 106.01887207 -27.26831055 106.62792969 C-24.80128282 108.12020133 -23.55907279 109.6000539 -22 112 C-23.1875 113.5625 -23.1875 113.5625 -25 115 C-28.58713645 114.56350628 -31.59392075 113.43117179 -34.86328125 111.93359375 C-35.74951172 111.53076172 -36.63574219 111.12792969 -37.54882812 110.71289062 C-38.46083984 110.29201172 -39.37285156 109.87113281 -40.3125 109.4375 C-41.24384766 109.01275391 -42.17519531 108.58800781 -43.13476562 108.15039062 C-45.4253672 107.10493657 -47.71363659 106.05468244 -50 105 C-50.1340625 106.00804687 -50.268125 107.01609375 -50.40625 108.0546875 C-50.96822444 111.78885975 -51.70299688 115.43487558 -52.5 119.125 C-56.26965966 137.66585192 -56.1462714 156.03106953 -45.375 172.3125 C-38.10910707 181.27812624 -27.0773633 185.37963435 -16 187 C-13.98297531 187.07694147 -11.96377735 187.10806071 -9.9453125 187.09765625 C-8.83671875 187.09443359 -7.728125 187.09121094 -6.5859375 187.08789062 C-5.44382812 187.07951172 -4.30171875 187.07113281 -3.125 187.0625 C-1.9596875 187.05798828 -0.794375 187.05347656 0.40625 187.04882812 C3.27088645 187.03708781 6.13541633 187.0206657 9 187 C9 187.33 9 187.66 9 188 C5.56272197 188.33564902 2.12514387 188.66812049 -1.3125 189 C-2.77719727 189.14308594 -2.77719727 189.14308594 -4.27148438 189.2890625 C-5.67817383 189.42441406 -5.67817383 189.42441406 -7.11328125 189.5625 C-7.97735596 189.64628906 -8.84143066 189.73007812 -9.73168945 189.81640625 C-12 190 -12 190 -15 190 C-14.04134491 192.33075929 -14.04134491 192.33075929 -11 194 C-24.03841217 195.05955494 -36.29740154 190.53635996 -46.21875 182.1171875 C-56.67825912 172.16504263 -61.67640016 159.28512819 -62.203125 144.85546875 C-62.45621225 129.63921004 -59.98363264 115.66315843 -56 101 C-56.87140625 100.41734375 -57.7428125 99.8346875 -58.640625 99.234375 C-75.21827991 87.92110323 -90.36648458 73.50900241 -94.625 52.98828125 C-94.9844399 50.12399455 -95.13329059 47.38512676 -95.125 44.5 C-95.12757812 43.6028125 -95.13015625 42.705625 -95.1328125 41.78125 C-95 39 -95 39 -94.51147461 36.27294922 C-93.96449407 32.77279592 -93.78950819 29.39213106 -93.68359375 25.8515625 C-93.66281265 25.19417084 -93.64203156 24.53677917 -93.62062073 23.85946655 C-93.55579247 21.78140638 -93.49655436 19.70323144 -93.4375 17.625 C-93.39425112 16.20701989 -93.35063491 14.78905093 -93.30664062 13.37109375 C-93.20018082 9.9141812 -93.09873016 6.45714294 -93 3 C-89.37 3 -85.74 3 -82 3 C-82 9.27 -82 15.54 -82 22 C-76.39 22.33 -70.78 22.66 -65 23 C-65 16.4 -65 9.8 -65 3 C-61.37 3 -57.74 3 -54 3 C-54 20.49 -54 37.98 -54 56 C-61 56 -61 56 -65 55 C-65 48.07 -65 41.14 -65 34 C-70.61 34 -76.22 34 -82 34 C-82 41.26 -82 48.52 -82 56 C-83.32 56 -84.64 56 -86 56 C-79.00571638 71.4054157 -69.91718802 82.30447827 -56 92 C-55.01 92.33 -54.02 92.66 -53 93 C-52.72438232 92.34217529 -52.44876465 91.68435059 -52.16479492 91.0065918 C-50.85194752 87.894567 -49.52221321 84.79021101 -48.1875 81.6875 C-47.69918701 80.54627686 -47.21087402 79.40505371 -46.70776367 78.22924805 C-43.97429749 71.99149481 -41.04038124 66.24496477 -37.28979492 60.56494141 C-30.47817544 50.17921981 -30.05162368 42.1727071 -30.87011719 29.98974609 C-31.10746941 24.52618341 -30.77577088 19.08249822 -30.5 13.625 C-30.335 10.11875 -30.17 6.6125 -30 3 C-20.43 3 -10.86 3 -1 3 C-0.67 2.01 -0.34 1.02 0 0 Z M-19 13 C-19 15.97 -19 18.94 -19 22 C-15.75393319 22.58661468 -15.75393319 22.58661468 -12 22 C-9.55430265 19.97871868 -7.66623901 17.6977203 -6 15 C-6 14.34 -6 13.68 -6 13 C-10.29 13 -14.58 13 -19 13 Z M-3.51953125 21.20703125 C-5.35937699 23.43523493 -5.48065323 24.83301451 -5.6875 27.6875 C-5.75324219 28.49574219 -5.81898438 29.30398437 -5.88671875 30.13671875 C-5.92410156 30.75160156 -5.96148437 31.36648437 -6 32 C-7.10408203 31.83371094 -7.10408203 31.83371094 -8.23046875 31.6640625 C-11.21358415 31.72920017 -11.21358415 31.72920017 -13.23828125 34.3359375 C-14.26501953 35.84027344 -14.26501953 35.84027344 -15.3125 37.375 C-16.00988281 38.37273437 -16.70726562 39.37046875 -17.42578125 40.3984375 C-19.1725679 42.77839139 -19.1725679 42.77839139 -19 45 C-13.39 45 -7.78 45 -2 45 C-1.67 36.75 -1.34 28.5 -1 20 C-2.19292804 19.89633482 -2.19292804 19.89633482 -3.51953125 21.20703125 Z M-12 55 C-9.20307439 60.27112904 -6.01764453 64.59398317 -2 69 C-0.58221707 66.16443413 -1.13742378 64.0091294 -1.4375 60.875 C-1.53933594 59.77929688 -1.64117187 58.68359375 -1.74609375 57.5546875 C-1.82988281 56.71164063 -1.91367188 55.86859375 -2 55 C-5.3 55 -8.6 55 -12 55 Z " fill="#888888" transform="translate(162,188)"/>
<path d="M0 0 C1.4243075 0.90474879 2.84411099 1.81688783 4.25 2.75 C2.24967627 3.75016187 0.41874252 4.24396008 -1.75 4.75 C-1.75 5.41 -1.75 6.07 -1.75 6.75 C-4.24690308 5.7574699 -6.7374566 4.75526783 -9.21484375 3.71484375 C-20.78210654 -1.09114379 -30.88454314 -1.39629347 -42.75 2.75 C-56.72972942 9.36368926 -68.99863318 20.675662 -75.75 34.75 C-74.49445313 35.13929687 -73.23890625 35.52859375 -71.9453125 35.9296875 C-66.2942597 37.81778838 -60.98665505 40.29091841 -55.625 42.875 C-54.61961182 43.35420898 -53.61422363 43.83341797 -52.57836914 44.32714844 C-45.92980067 47.54689209 -39.54068905 51.01624406 -33.44287109 55.19580078 C-30.78580918 56.93515622 -29.04610574 57.74761205 -25.84375 57.7734375 C-21.77362726 56.42700801 -18.42886155 54.39795159 -14.8125 52.125 C-7.03440116 47.37860654 0.91519555 43.41391695 9.25 39.75 C8.375 43.625 8.375 43.625 7.25 44.75 C8.9 44.75 10.55 44.75 12.25 44.75 C12.25 45.41 12.25 46.07 12.25 46.75 C11.17363281 47.2346875 10.09726562 47.719375 8.98828125 48.21875 C0.51519399 52.08971345 -7.49763638 56.19777336 -15.30859375 61.28125 C-17.75 62.75 -17.75 62.75 -19.75 62.75 C-19.75 63.41 -19.75 64.07 -19.75 64.75 C-19.06550781 64.97429687 -18.38101563 65.19859375 -17.67578125 65.4296875 C-13.98047338 67.09726301 -11.09515067 69.36155231 -7.9375 71.875 C-7.34001953 72.34292969 -6.74253906 72.81085938 -6.12695312 73.29296875 C-4.66383208 74.44005565 -3.20633703 75.59431234 -1.75 76.75 C-2.5 81.5 -2.5 81.5 -4.75 83.75 C-5.76320313 83.00234375 -6.77640625 82.2546875 -7.8203125 81.484375 C-9.1718232 80.48951296 -10.52338861 79.49472524 -11.875 78.5 C-12.87273437 77.76330078 -12.87273437 77.76330078 -13.890625 77.01171875 C-15.21138563 76.04057123 -16.53721233 75.07627365 -17.86816406 74.11914062 C-19.06618255 73.24751534 -20.24771431 72.35241583 -21.40527344 71.42773438 C-23.07264957 70.09334031 -23.07264957 70.09334031 -25.75 68.75 C-31.43647016 70.43272503 -35.86765994 74.2630047 -40.5625 77.75 C-41.44615234 78.39195312 -42.32980469 79.03390625 -43.24023438 79.6953125 C-44.07490234 80.31148438 -44.90957031 80.92765625 -45.76953125 81.5625 C-46.53370361 82.12582031 -47.29787598 82.68914062 -48.08520508 83.26953125 C-48.90927856 84.00236328 -48.90927856 84.00236328 -49.75 84.75 C-49.75 85.41 -49.75 86.07 -49.75 86.75 C-50.36488281 86.605625 -50.97976562 86.46125 -51.61328125 86.3125 C-52.42152344 86.126875 -53.22976562 85.94125 -54.0625 85.75 C-55.26326172 85.4715625 -55.26326172 85.4715625 -56.48828125 85.1875 C-58.85695938 84.65504177 -58.85695938 84.65504177 -61.75 84.75 C-55.3902637 79.27550172 -48.94002495 74.02335474 -42.125 69.125 C-41.52155762 68.68752441 -40.91811523 68.25004883 -40.29638672 67.79931641 C-35.99789361 64.75 -35.99789361 64.75 -33.75 64.75 C-35.79917126 62.55659286 -37.76615402 61.01366127 -40.3828125 59.55078125 C-41.45607788 58.94955444 -41.45607788 58.94955444 -42.55102539 58.33618164 C-43.31793701 57.9158667 -44.08484863 57.49555176 -44.875 57.0625 C-45.66962646 56.62478271 -46.46425293 56.18706543 -47.28295898 55.73608398 C-58.01354132 49.89315945 -68.98054438 44.17384164 -80.75 40.75 C-81.17780762 41.83740479 -81.17780762 41.83740479 -81.61425781 42.94677734 C-82.66049737 45.52909087 -83.77121931 48.06441176 -84.921875 50.6015625 C-89.17000409 60.08101572 -93.25554533 69.51888348 -96.375 79.4375 C-96.7457666 80.61143311 -96.7457666 80.61143311 -97.12402344 81.80908203 C-98.17726732 85.29746909 -98.75 88.07535433 -98.75 91.75 C-97.08710938 91.40775391 -97.08710938 91.40775391 -95.390625 91.05859375 C-93.92717262 90.76777949 -92.46362589 90.47743973 -91 90.1875 C-90.27039063 90.03603516 -89.54078125 89.88457031 -88.7890625 89.72851562 C-85.08442927 89.00442822 -82.35677678 88.65182769 -78.75 89.75 C-80.2040625 90.430625 -80.2040625 90.430625 -81.6875 91.125 C-84.82079582 92.40786221 -84.82079582 92.40786221 -85.75 94.75 C-83.44 94.75 -81.13 94.75 -78.75 94.75 C-78.75 95.08 -78.75 95.41 -78.75 95.75 C-82.18663614 96.42117267 -85.62444041 97.08616071 -89.0625 97.75 C-90.03896484 97.94078125 -91.01542969 98.1315625 -92.02148438 98.328125 C-92.95927734 98.50859375 -93.89707031 98.6890625 -94.86328125 98.875 C-95.72735596 99.04257813 -96.59143066 99.21015625 -97.48168945 99.3828125 C-99.75 99.75 -99.75 99.75 -102.75 99.75 C-102.81058594 100.41386719 -102.87117188 101.07773438 -102.93359375 101.76171875 C-103.76581722 110.53207381 -103.76581722 110.53207381 -104.75 114.75 C-105.08 114.75 -105.41 114.75 -105.75 114.75 C-105.75 113.1 -105.75 111.45 -105.75 109.75 C-106.41 109.75 -107.07 109.75 -107.75 109.75 C-107.75 108.76 -107.75 107.77 -107.75 106.75 C-108.41 106.75 -109.07 106.75 -109.75 106.75 C-109.75 110.05 -109.75 113.35 -109.75 116.75 C-110.41 116.75 -111.07 116.75 -111.75 116.75 C-111.60816304 114.99967156 -111.46136571 113.24974466 -111.3125 111.5 C-111.19068359 110.03820312 -111.19068359 110.03820312 -111.06640625 108.546875 C-110.79845144 106.17828679 -110.35416008 104.04623832 -109.75 101.75 C-127.40986981 107.28930359 -144.27240078 113.20201807 -160.75 121.75 C-157.7392683 131.32095762 -153.75794213 140.0932474 -149.14111328 148.99511719 C-148.71813965 149.81399414 -148.29516602 150.63287109 -147.859375 151.4765625 C-147.47749023 152.20439941 -147.09560547 152.93223633 -146.70214844 153.68212891 C-145.01970843 157.33604348 -144.62871455 160.50258914 -144.6875 164.5 C-144.69652344 165.29921875 -144.70554688 166.0984375 -144.71484375 166.921875 C-144.72644531 167.52515625 -144.73804688 168.1284375 -144.75 168.75 C-148.38099036 167.53966988 -148.59871096 166.76936597 -150.38671875 163.5078125 C-151.12390137 162.16807373 -151.12390137 162.16807373 -151.87597656 160.80126953 C-152.64893066 159.35276611 -152.64893066 159.35276611 -153.4375 157.875 C-153.96698242 156.89515137 -154.49646484 155.91530273 -155.04199219 154.90576172 C-159.89885064 145.76491258 -163.96989001 136.3781625 -167.75 126.75 C-172.62588293 129.40007004 -176.95156622 132.23132185 -181.1875 135.8125 C-181.74735596 136.28276611 -182.30721191 136.75303223 -182.8840332 137.23754883 C-187.51062966 141.26140091 -190.90251938 145.58736908 -194.26171875 150.73046875 C-194.75285156 151.39691406 -195.24398437 152.06335938 -195.75 152.75 C-196.41 152.75 -197.07 152.75 -197.75 152.75 C-198.31252123 148.39269272 -198.75356539 144.43156938 -196.4375 140.55078125 C-194.63257864 138.50010051 -192.73751912 136.62338435 -190.75 134.75 C-190.23308594 134.17765625 -189.71617187 133.6053125 -189.18359375 133.015625 C-183.8691594 127.20837342 -177.26920581 123.0732628 -170.75 118.75 C-171.03875 117.62980469 -171.3275 116.50960937 -171.625 115.35546875 C-172.00018691 113.88286011 -172.37517665 112.41020122 -172.75 110.9375 C-172.94078125 110.19951172 -173.1315625 109.46152344 -173.328125 108.70117188 C-174.10262914 105.64464659 -174.75 102.91626522 -174.75 99.75 C-175.34167969 99.65203125 -175.93335938 99.5540625 -176.54296875 99.453125 C-182.9403722 98.24252337 -186.68803586 96.66519068 -190.5625 91.1875 C-192.63280773 85.19450394 -192.63280773 79.30549606 -190.5625 73.3125 C-188.22364333 70.00584057 -185.9433562 67.22604283 -181.82421875 66.33203125 C-179.3345675 65.78346403 -177.81114065 65.28426421 -175.75 63.75 C-174.17754076 60.34671711 -173.12028403 56.90794379 -172.01171875 53.328125 C-168.74160781 44.05437384 -160.50152573 35.98266924 -152.01171875 31.2109375 C-131.95512387 21.72358557 -108.44130697 23.65808275 -87.7109375 30.19921875 C-85.6080977 30.88520616 -85.6080977 30.88520616 -82.75 30.75 C-81.13647219 28.86030855 -81.13647219 28.86030855 -79.625 26.375 C-75.79195113 20.67765901 -71.52264532 15.68015836 -66.75 10.75 C-65.98945313 9.96367188 -65.22890625 9.17734375 -64.4453125 8.3671875 C-46.54956233 -8.94181676 -21.5016087 -12.67273585 0 0 Z M-158.75 44.75 C-163.20899334 50.38536093 -166.91926469 56.75532854 -168.75 63.75 C-167.61280581 67.16158256 -166.70657056 67.86854601 -163.75 69.75 C-163.09 69.75 -162.43 69.75 -161.75 69.75 C-158.90636154 76.7643082 -157.32434119 82.63143011 -159.875 90 C-161.75 92.75 -161.75 92.75 -165 95 C-167.95515747 97.37636889 -167.95515747 97.37636889 -167.984375 100.0390625 C-167.52533438 105.10381065 -166.32329498 109.92522873 -164.75 114.75 C-160.99135876 114.23550918 -158.003928 112.9884429 -154.63647461 111.27392578 C-144.10481687 105.91286588 -133.05959775 102.27306471 -121.83984375 98.6328125 C-120.78724365 98.28468506 -119.73464355 97.93655762 -118.65014648 97.57788086 C-116.09204267 96.84764009 -113.84844545 96.56644764 -111.21875 96.32421875 C-107.60950807 95.11776112 -107.60950807 95.11776112 -106.44165039 92.22070312 C-105.43860167 89.30448423 -104.57398869 86.39105193 -103.81378174 83.40264893 C-102.96695047 80.08286 -102.00857777 76.79537604 -101.05859375 73.50390625 C-100.87075317 72.84364441 -100.6829126 72.18338257 -100.48937988 71.50311279 C-98.01236641 62.94776732 -94.40112731 54.90876348 -90.69628906 46.82910156 C-89.32869683 43.8243504 -88.03867252 40.78932198 -86.75 37.75 C-110.00315439 30.66397958 -139.53180983 25.53180983 -158.75 44.75 Z " fill="#898989" transform="translate(276.75,57.25)"/>
<path d="M0 0 C4.04600569 4.60473981 6.83754065 9.76944459 9.75 15.125 C10.2749707 16.08680176 10.79994141 17.04860352 11.34082031 18.03955078 C16.2059608 27.10775606 20.24208628 36.4283727 24 46 C37.73220845 38.42185534 50.61306117 27.18629489 56 12 C56 10.68 56 9.36 56 8 C58.31 8 60.62 8 63 8 C64.52076378 12.42129337 63.20258211 15.08054719 61.41015625 19.23046875 C53.8001061 34.17652292 40.8863226 45.13067137 27 54 C27.14622803 54.59949463 27.29245605 55.19898926 27.44311523 55.81665039 C28.11131318 58.56445211 28.77444104 61.3134539 29.4375 64.0625 C29.66759766 65.00544922 29.89769531 65.94839844 30.13476562 66.91992188 C34.78153864 86.24780386 35.5159193 107.21575959 25.83984375 125.1484375 C18.78653496 136.08031737 8.20348751 142.89609053 -4.25 146.375 C-15.33249008 148.22208168 -25.77449888 148.43310443 -36.875 146.6875 C-37.74761475 146.55432373 -38.62022949 146.42114746 -39.51928711 146.28393555 C-45.13159817 145.39300139 -50.5714863 144.24569627 -56.00390625 142.55078125 C-58.13687325 141.86700528 -58.13687325 141.86700528 -61 142 C-62.52434533 143.97232848 -63.85872511 145.90207053 -65.1875 148 C-68.91286012 153.65639895 -72.95034992 158.44568345 -78 163 C-80.46800047 161.84826645 -82.04783565 160.95216435 -84 159 C-83.34773438 158.31035156 -82.69546875 157.62070312 -82.0234375 156.91015625 C-76.75100765 151.2411277 -72.03686861 145.64606417 -68 139 C-68.928125 138.443125 -69.85625 137.88625 -70.8125 137.3125 C-73.9419407 135.04212145 -75.29754051 133.40491897 -77 130 C-76.67 129.67 -76.34 129.34 -76 129 C-73.65912158 129.27539746 -71.32597511 129.6186926 -69 130 C-67.865625 130.185625 -66.73125 130.37125 -65.5625 130.5625 C-64.716875 130.706875 -63.87125 130.85125 -63 131 C-62.23186434 129.18697913 -62.23186434 129.18697913 -62 127 C-63.14915945 125.10241111 -63.14915945 125.10241111 -64.875 123.4375 C-69.01879416 119.11060796 -69.34929498 115.40516923 -69.28125 109.5703125 C-68.71326915 104.37959865 -66.25278632 101.16111903 -62.4375 97.625 C-58.79284807 95.19523205 -56.0894806 94.8819548 -51.8125 94.9375 C-50.46091797 94.95103516 -50.46091797 94.95103516 -49.08203125 94.96484375 C-48.39496094 94.97644531 -47.70789063 94.98804688 -47 95 C-46.66179834 93.4176994 -46.32964061 91.83410625 -46 90.25 C-45.7215625 88.92742187 -45.7215625 88.92742187 -45.4375 87.578125 C-44.88846325 84.77856035 -44.88846325 84.77856035 -45 81 C-47.64 81 -50.28 81 -53 81 C-53 79.35 -53 77.7 -53 76 C-52.37351562 75.79503906 -51.74703125 75.59007812 -51.1015625 75.37890625 C-50.28429687 75.10949219 -49.46703125 74.84007812 -48.625 74.5625 C-47.81289063 74.29566406 -47.00078125 74.02882813 -46.1640625 73.75390625 C-43.98968201 73.04820271 -43.98968201 73.04820271 -42 72 C-41.34395848 69.97496111 -41.34395848 69.97496111 -40.9296875 67.52734375 C-40.75566406 66.62822266 -40.58164062 65.72910156 -40.40234375 64.80273438 C-40.22832031 63.85720703 -40.05429687 62.91167969 -39.875 61.9375 C-39.69324219 60.98810547 -39.51148438 60.03871094 -39.32421875 59.06054688 C-38.87506263 56.7083872 -38.43403807 54.35498822 -38 52 C-37.01 51.67 -36.02 51.34 -35 51 C-34.01 51.66 -33.02 52.32 -32 53 C-31.63671875 55.1015625 -31.63671875 55.1015625 -31.6875 57.625 C-31.69136719 58.44226563 -31.69523437 59.25953125 -31.69921875 60.1015625 C-32.09021268 63.86932222 -33.02082593 67.34077577 -34 71 C-16.34013019 65.46069641 0.52240078 59.54798193 17 51 C15.0723401 44.9020256 12.85724225 39.02631678 10.25 33.1875 C9.90582031 32.40560303 9.56164062 31.62370605 9.20703125 30.81811523 C7.10500665 26.14101426 4.76940819 21.87422088 2 17.5625 C-1.36807949 12.0817161 -2.04693475 7.34109341 -1 1 C-0.67 0.67 -0.34 0.34 0 0 Z M13.5703125 60.33740234 C4.92949676 65.09926268 -4.16070022 68.30349601 -13.5 71.375 C-14.15529694 71.59146179 -14.81059387 71.80792358 -15.48574829 72.03094482 C-17.39494869 72.65894183 -19.30682425 73.27878734 -21.21875 73.8984375 C-22.39961182 74.28136963 -23.58047363 74.66430176 -24.79711914 75.05883789 C-27.46437771 75.84260813 -29.97805458 76.34687679 -32.71484375 76.76953125 C-35.98927441 77.62708652 -35.98927441 77.62708652 -37.08837891 79.66015625 C-37.95910592 81.86206603 -38.53615309 84.00467124 -39.0625 86.3125 C-39.27326172 87.07240234 -39.48402344 87.83230469 -39.70117188 88.61523438 C-40.75387112 92.66759834 -41.43971283 95.93581067 -40 100 C-39.319375 100.845625 -38.63875 101.69125 -37.9375 102.5625 C-35.07865752 107.63463988 -35.23305637 112.30270443 -36 118 C-38.27790046 122.90624714 -41.21745967 125.5167579 -46 128 C-47.39087961 128.17155062 -48.78834243 128.29541489 -50.1875 128.375 C-52.0746875 128.684375 -52.0746875 128.684375 -54 129 C-55.77587101 131.96789218 -55.77587101 131.96789218 -57 135 C-36.68376621 141.19104166 -15.78109397 144.94609314 4.25 135.75 C15.02950156 129.91110332 20.78207678 121.82245862 24.8125 110.3125 C29.46675597 92.77592839 26.03375158 75.00723835 21 58 C17.78585586 58 16.31807448 58.81201369 13.5703125 60.33740234 Z " fill="#8A8A8A" transform="translate(367,235)"/>
<path d="M0 0 C4.43681999 6.65522999 4.36190665 15.2709971 4.3125 23.0625 C4.30730347 24.42060791 4.30730347 24.42060791 4.30200195 25.80615234 C4.10485681 38.22520738 1.6139682 50.13285619 -2 62 C-1.02417969 62.68707031 -0.04835938 63.37414062 0.95703125 64.08203125 C2.24229508 64.99203557 3.5274454 65.90220024 4.8125 66.8125 C5.45509766 67.26431641 6.09769531 67.71613281 6.75976562 68.18164062 C7.38173828 68.62314453 8.00371094 69.06464844 8.64453125 69.51953125 C9.21534424 69.92276611 9.78615723 70.32600098 10.37426758 70.74145508 C12 72 12 72 13.51538086 73.60888672 C15.88872645 75.83275174 18.59403694 75.81472471 21.75 76.3125 C27.82190075 77.49925206 32.18571339 78.96671458 36 84 C37.82589391 89.47768172 37.79415728 95.7498877 35.875 101.1875 C34.848352 104.48744001 35.44466267 106.40668527 36.42578125 109.65625 C37.34638817 113.41382927 37.45182081 117.21682222 37.65625 121.0703125 C37.96737019 124.58050872 37.96737019 124.58050872 40 130 C35.71 129.67 31.42 129.34 27 129 C25.84973914 126.58535319 24.70467795 124.16846682 23.5625 121.75 C23.23701172 121.06808594 22.91152344 120.38617188 22.57617188 119.68359375 C22.26357422 119.01972656 21.95097656 118.35585937 21.62890625 117.671875 C21.1968689 116.76066895 21.1968689 116.76066895 20.75610352 115.83105469 C19.96329541 113.91111254 19.45524597 112.0241838 19 110 C17.02 110 15.04 110 13 110 C13 116.27 13 122.54 13 129 C9.37 129 5.74 129 2 129 C2 111.84 2 94.68 2 77 C2.99 76.67 3.98 76.34 5 76 C2.03 74.02 -0.94 72.04 -4 70 C-5.75187557 72.62781335 -6.95552971 74.99839702 -8.21484375 77.875 C-8.64869385 78.85090088 -9.08254395 79.82680176 -9.52954102 80.83227539 C-9.99416748 81.87762451 -10.45879395 82.92297363 -10.9375 84 C-14.52709169 92.03161365 -18.41642808 99.59626553 -23.0625 107.0625 C-27.9400954 114.97558448 -29.81890654 121.68065192 -30 131 C-32.01822917 130.96744792 -34.03645833 130.93489583 -36.0546875 130.90234375 C-38.08185404 130.87350758 -38.08185404 130.87350758 -40 132 C-40.12375 131.030625 -40.2475 130.06125 -40.375 129.0625 C-40.58125 128.051875 -40.7875 127.04125 -41 126 C-41.66 125.67 -42.32 125.34 -43 125 C-42.505 124.01 -42.505 124.01 -42 123 C-41.9047301 121.52331663 -41.87014041 120.04224543 -41.875 118.5625 C-41.87242187 117.78003906 -41.86984375 116.99757813 -41.8671875 116.19140625 C-41.91617452 113.82104653 -41.91617452 113.82104653 -43 111 C-42.34 111 -41.68 111 -41 111 C-41 103.08 -41 95.16 -41 87 C-45.29 87 -49.58 87 -54 87 C-54 83.7 -54 80.4 -54 77 C-48.74912156 76.83276974 -43.49809906 76.67217185 -38.24682617 76.51782227 C-36.45900968 76.46432598 -34.67124725 76.40899096 -32.88354492 76.35180664 C-30.31961734 76.27010765 -27.75557047 76.19494055 -25.19140625 76.12109375 C-24.3872377 76.09405869 -23.58306915 76.06702362 -22.75453186 76.03916931 C-20.83701578 75.98714373 -18.91818497 75.98812559 -17 76 C-16.67 76.33 -16.34 76.66 -16 77 C-15.3291288 75.3767313 -14.66342971 73.75132422 -14 72.125 C-13.62875 71.22007812 -13.2575 70.31515625 -12.875 69.3828125 C-11.88509774 67.11016142 -11.88509774 67.11016142 -12 65 C-13.98 64.01 -15.96 63.02 -18 62 C-18 59.69 -18 57.38 -18 55 C-16.0625 55.75 -16.0625 55.75 -14 57 C-13.25 59.125 -13.25 59.125 -13 61 C-12.071875 60.505 -12.071875 60.505 -11.125 60 C-9 59 -9 59 -7 59 C-7.20367187 58.34902344 -7.40734375 57.69804687 -7.6171875 57.02734375 C-8.13948126 52.89695939 -7.14613679 49.55794053 -6.125 45.5625 C-3.26891987 33.46752594 -2.55199691 22.5349596 -4.52734375 10.27734375 C-4.93490753 7.45134365 -5.09148036 4.84665354 -5 2 C-3.35 1.34 -1.7 0.68 0 0 Z M14 86 C12.66098208 87.11126659 12.66098208 87.11126659 12.90234375 89.94140625 C12.91394531 91.13636719 12.92554688 92.33132812 12.9375 93.5625 C12.94652344 94.76003906 12.95554687 95.95757812 12.96484375 97.19140625 C12.97644531 98.11824219 12.98804688 99.04507813 13 100 C17.37219878 101.06511827 19.79018866 100.66434402 24 99 C23.67347493 93.77559896 20.6106655 89.61964725 17 86 C16.01 86 15.02 86 14 86 Z M-29 87 C-29 92.28 -29 97.56 -29 103 C-26.44179184 99.58905579 -24.67056421 96.54870905 -22.8125 92.75 C-22.01779297 91.13351563 -22.01779297 91.13351563 -21.20703125 89.484375 C-20.80871094 88.66453125 -20.41039062 87.8446875 -20 87 C-22.97 87 -25.94 87 -29 87 Z " fill="#888888" transform="translate(396,114)"/>
<path d="M0 0 C10 0 10 0 12.078125 1.6171875 C12.46484375 2.36226562 12.8515625 3.10734375 13.25 3.875 C13.92869141 5.09316406 13.92869141 5.09316406 14.62109375 6.3359375 C15.07613281 7.21507812 15.53117188 8.09421875 16 9 C17.09465853 10.83902633 18.1986433 12.67253772 19.3125 14.5 C19.80363281 15.3353125 20.29476562 16.170625 20.80078125 17.03125 C21.85094163 18.92962357 21.85094163 18.92962357 23 20 C26.63 13.4 30.26 6.8 34 0 C37.96 0 41.92 0 46 0 C46 17.16 46 34.32 46 52 C42.7 52 39.4 52 36 52 C35.67 41.11 35.34 30.22 35 19 C29.58238381 27.98829038 29.58238381 27.98829038 28 37 C27.34 37 26.68 37 26 37 C24.68 38.32 23.36 39.64 22 41 C18.7 35.39 15.4 29.78 12 24 C11.67 33.57 11.34 43.14 11 53 C4 53 4 53 0 52 C0 34.84 0 17.68 0 0 Z " fill="#020202" transform="translate(183,191)"/>
<path d="M0 0 C2.73737067 2.36745572 3.84709902 3.54129705 5 7 C5.33120707 11.90648615 5.52179182 16.52158985 3.875 21.1875 C2.848352 24.48744001 3.44466267 26.40668527 4.42578125 29.65625 C5.34638817 33.41382927 5.45182081 37.21682222 5.65625 41.0703125 C5.96737019 44.58050872 5.96737019 44.58050872 8 50 C3.71 49.67 -0.58 49.34 -5 49 C-6.15026086 46.58535319 -7.29532205 44.16846682 -8.4375 41.75 C-8.76298828 41.06808594 -9.08847656 40.38617188 -9.42382812 39.68359375 C-9.73642578 39.01972656 -10.04902344 38.35585937 -10.37109375 37.671875 C-10.65911865 37.0644043 -10.94714355 36.45693359 -11.24389648 35.83105469 C-12.03670459 33.91111254 -12.54475403 32.0241838 -13 30 C-14.98 30 -16.96 30 -19 30 C-19 36.27 -19 42.54 -19 49 C-22.63 49 -26.26 49 -30 49 C-30 31.84 -30 14.68 -30 -3 C-7.21683673 -4.75255102 -7.21683673 -4.75255102 0 0 Z M-18 6 C-19.33901792 7.11126659 -19.33901792 7.11126659 -19.09765625 9.94140625 C-19.08605469 11.13636719 -19.07445312 12.33132812 -19.0625 13.5625 C-19.05347656 14.76003906 -19.04445313 15.95757812 -19.03515625 17.19140625 C-19.02355469 18.11824219 -19.01195312 19.04507813 -19 20 C-14.62780122 21.06511827 -12.20981134 20.66434402 -8 19 C-8.32652507 13.77559896 -11.3893345 9.61964725 -15 6 C-15.99 6 -16.98 6 -18 6 Z " fill="#010101" transform="translate(428,194)"/>
<path d="M0 0 C3.63 0 7.26 0 11 0 C11 6.27 11 12.54 11 19 C16.61 19.33 22.22 19.66 28 20 C28 13.4 28 6.8 28 0 C31.63 0 35.26 0 39 0 C39 17.49 39 34.98 39 53 C32 53 32 53 28 52 C28 45.07 28 38.14 28 31 C22.39 31 16.78 31 11 31 C11 38.26 11 45.52 11 53 C7.04 53 3.08 53 -1 53 C-2.38339461 46.60179995 -2.66807609 39.72934032 -1.51147461 33.27294922 C-0.96449407 29.77279592 -0.78950819 26.39213106 -0.68359375 22.8515625 C-0.66281265 22.19417084 -0.64203156 21.53677917 -0.62062073 20.85946655 C-0.55579247 18.78140638 -0.49655436 16.70323144 -0.4375 14.625 C-0.39425112 13.20701989 -0.35063491 11.78905093 -0.30664062 10.37109375 C-0.20018082 6.9141812 -0.09873016 3.45714294 0 0 Z " fill="#020202" transform="translate(69,191)"/>
<path d="M0 0 C1 1 1 1 1.1328125 3.21484375 C1.13023437 4.11332031 1.12765625 5.01179687 1.125 5.9375 C1.12886719 7.28134766 1.12886719 7.28134766 1.1328125 8.65234375 C1 11 1 11 0 13 C-4 11 -4 11 -5.78125 9.9375 C-8.56736712 8.76026741 -10.73708249 8.80326387 -13.75 8.875 C-14.73484375 8.89304688 -15.7196875 8.91109375 -16.734375 8.9296875 C-17.48203125 8.95289063 -18.2296875 8.97609375 -19 9 C-19.66 10.32 -20.32 11.64 -21 13 C-17.73360492 16.96517612 -15.12429324 17.68291121 -10.125 18.5 C-4.74461444 19.52909662 -1.09807209 20.35726926 3 24 C5.79377783 28.19066674 6.0379589 32.01979193 6 37 C4.38439932 43.05850255 1.0813051 46.55857064 -4 50 C-12.59810513 52.86603504 -23.89590107 51.77259778 -32 48 C-34 45 -34 45 -33.6875 42.6875 C-33.460625 41.800625 -33.23375 40.91375 -33 40 C-32.66055205 38.00102872 -32.32578384 36.00124361 -32 34 C-29.78345373 35.02911077 -27.89130823 36.08234225 -25.9375 37.5625 C-21.31868017 40.98936632 -15.49622817 40.5997379 -10 40 C-7.15191594 38.49458937 -7.15191594 38.49458937 -6 36 C-5.67106744 33.81541477 -5.67106744 33.81541477 -7 32 C-10.55121692 30.3609768 -14.17780432 29.79374012 -18 29.125 C-23.26749835 28.11110558 -26.91077981 26.20888913 -30.63671875 22.26953125 C-32.45049788 19.25003074 -32.3992989 17.06559107 -32.375 13.5625 C-32.38273437 12.45003906 -32.39046875 11.33757812 -32.3984375 10.19140625 C-31.87940419 6.03405122 -30.63942889 3.29328497 -27.31640625 0.671875 C-17.79776471 -4.33124171 -9.93443108 -3.73751501 0 0 Z M-33 42 C-32 45 -32 45 -32 45 Z " fill="#020202" transform="translate(321,193)"/>
<path d="M0 0 C9.57 0 19.14 0 29 0 C29 3.3 29 6.6 29 10 C24.90274731 11.04167441 21.38504776 10.94409525 17.1875 10.5625 C15.44533203 10.40974609 15.44533203 10.40974609 13.66796875 10.25390625 C12.78753906 10.17011719 11.90710938 10.08632812 11 10 C11 12.97 11 15.94 11 19 C14.96 18.505 14.96 18.505 19 18 C19 18.66 19 19.32 19 20 C20.98 20 22.96 20 25 20 C25 23.3 25 26.6 25 30 C24.08863281 29.89945313 23.17726562 29.79890625 22.23828125 29.6953125 C18.8873743 29.65984372 18.8873743 29.65984372 16.91796875 32.1171875 C16.34691406 33.02726562 15.77585938 33.93734375 15.1875 34.875 C14.60355469 35.77992188 14.01960937 36.68484375 13.41796875 37.6171875 C12.56471322 39.05103288 11.74618464 40.50763072 11 42 C12.82337891 41.98259766 12.82337891 41.98259766 14.68359375 41.96484375 C16.26822764 41.95546722 17.85286318 41.94636687 19.4375 41.9375 C20.23994141 41.92912109 21.04238281 41.92074219 21.86914062 41.91210938 C23.91295221 41.9034857 25.95683902 41.9477185 28 42 C29 43 29 43 29 52 C20.42 52 11.84 52 3 52 C2.67 52.66 2.34 53.32 2 54 C2 53.34 2 52.68 2 52 C1.34 52 0.68 52 0 52 C-1.10015377 46.67385872 -1.15199174 41.53587984 -1.125 36.125 C-1.12306641 35.18060059 -1.12113281 34.23620117 -1.11914062 33.26318359 C-1.05369856 22.16166435 -0.52180594 11.08837626 0 0 Z " fill="#050505" transform="translate(132,191)"/>
<path d="M0 0 C0 4.29 0 8.58 0 13 C-1.27875 12.34 -2.5575 11.68 -3.875 11 C-10.21085916 8.1962576 -15.88865742 7.92517256 -22.4375 10.1875 C-25.3863853 12.27329692 -26.42920579 13.75967595 -28 17 C-28.74495289 22.73815067 -29.45592448 29.68394205 -26.1875 34.75 C-22.81787842 38.21589649 -20.1373733 39.52251361 -15.328125 40.0390625 C-9.79155885 39.94616709 -4.56323505 38.0421567 0 35 C0 38.96 0 42.92 0 47 C-7.54193828 52.02795885 -15.27025791 51.87297421 -24 51 C-30.29985414 49.40138837 -34.46700571 45.32700696 -38 40 C-42.25254942 32.06190775 -42.21686429 22.77053885 -40.37890625 14.0546875 C-38.22396001 7.79097708 -34.681143 3.42008609 -29 0 C-18.77922909 -4.22096734 -10.15391862 -3.86815947 0 0 Z " fill="#010101" transform="translate(48,193)"/>
<path d="M0 0 C4.62 0 9.24 0 14 0 C15.29493195 2.39411837 16.58602172 4.7901788 17.875 7.1875 C18.23980469 7.86103516 18.60460937 8.53457031 18.98046875 9.22851562 C20.87359406 12.7566128 22.61080534 16.23455133 24 20 C24.2673999 19.42967041 24.5347998 18.85934082 24.81030273 18.27172852 C26.01714167 15.70093338 27.2272751 13.13170278 28.4375 10.5625 C29.06881836 9.21575195 29.06881836 9.21575195 29.71289062 7.84179688 C30.11572266 6.98779297 30.51855469 6.13378906 30.93359375 5.25390625 C31.30540771 4.46314697 31.67722168 3.6723877 32.06030273 2.85766602 C33 1 33 1 34 0 C36.18639453 -0.07258946 38.37500389 -0.08373783 40.5625 -0.0625 C42.35880859 -0.04896484 42.35880859 -0.04896484 44.19140625 -0.03515625 C45.11824219 -0.02355469 46.04507813 -0.01195312 47 0 C45.4390068 4.20512454 43.39703906 8.07415962 41.25 12 C40.5334878 13.34807286 39.81866799 14.69704649 39.10546875 16.046875 C37.83100904 18.45773279 36.5259576 20.83236566 35.17578125 23.203125 C30.19937902 32.60165705 30.02199609 41.58485347 30 52 C26.04 52 22.08 52 18 52 C18.04382813 50.87207031 18.08765625 49.74414062 18.1328125 48.58203125 C18.2896492 31.61266502 11.56892952 16.9303131 1.1796875 3.64453125 C0 2 0 2 0 0 Z " fill="#010101" transform="translate(448,191)"/>
<path d="M0 0 C2.78637633 4.1795645 1.79562512 6.14668677 1 11 C-2.96 11 -6.92 11 -11 11 C-10.98839844 12.09957031 -10.97679687 13.19914063 -10.96484375 14.33203125 C-10.90482638 22.61536634 -11.00352494 30.76128653 -12 39 C-11.34 39.33 -10.68 39.66 -10 40 C-10.66 44.95 -11.32 49.9 -12 55 C-14.01822917 54.96744792 -16.03645833 54.93489583 -18.0546875 54.90234375 C-20.08185404 54.87350758 -20.08185404 54.87350758 -22 56 C-22.12375 55.030625 -22.2475 54.06125 -22.375 53.0625 C-22.58125 52.051875 -22.7875 51.04125 -23 50 C-23.66 49.67 -24.32 49.34 -25 49 C-24.67 48.34 -24.34 47.68 -24 47 C-23.9047301 45.52331663 -23.87014041 44.04224543 -23.875 42.5625 C-23.87242187 41.78003906 -23.86984375 40.99757812 -23.8671875 40.19140625 C-23.91617452 37.82104653 -23.91617452 37.82104653 -25 35 C-24.34 35 -23.68 35 -23 35 C-23 27.08 -23 19.16 -23 11 C-27.29 11 -31.58 11 -36 11 C-36 7.7 -36 4.4 -36 1 C-30.91024176 0.78321259 -25.82025447 0.58630258 -20.72900391 0.40795898 C-18.99637188 0.34444322 -17.26393166 0.27545347 -15.53173828 0.20092773 C-13.0448949 0.09487746 -10.55803088 0.00839264 -8.0703125 -0.07421875 C-7.29317902 -0.11157639 -6.51604553 -0.14893402 -5.71536255 -0.18742371 C-3.53173828 -0.2487793 -3.53173828 -0.2487793 0 0 Z " fill="#050505" transform="translate(378,190)"/>
<path d="M0 0 C0 9.9 0 19.8 0 30 C-2.31 30.33 -4.62 30.66 -7 31 C-7.33 25.72 -7.66 20.44 -8 15 C-9.65 17.97 -11.3 20.94 -13 24 C-13.66 24 -14.32 24 -15 24 C-16.65 21.03 -18.3 18.06 -20 15 C-20.33 20.28 -20.66 25.56 -21 31 C-23.31 30.67 -25.62 30.34 -28 30 C-28.10371911 20.27345227 -28.04518445 10.68662016 -27 1 C-24.109375 0.84765625 -24.109375 0.84765625 -21 1 C-19.25 3.4375 -19.25 3.4375 -18 6 C-17.34 6.33 -16.68 6.66 -16 7 C-15.67 7.99 -15.34 8.98 -15 10 C-14.34 10.33 -13.68 10.66 -13 11 C-12.62875 9.6696875 -12.62875 9.6696875 -12.25 8.3125 C-9.4550308 0.90583162 -8.32080679 0 0 0 Z " fill="#030303" transform="translate(288,250)"/>
<path d="M0 0 C3.3 0 6.6 0 10 0 C10 16.83 10 33.66 10 51 C6.7 51 3.4 51 0 51 C0 34.17 0 17.34 0 0 Z " fill="#000000" transform="translate(255,192)"/>
<path d="M0 0 C2.20770805 -0.08165496 4.41630425 -0.13948488 6.625 -0.1875 C7.85476562 -0.22230469 9.08453125 -0.25710937 10.3515625 -0.29296875 C15.54425056 0.12400299 18.75843948 1.72576683 22.375 5.4375 C25.20109842 11.63317731 24.85167184 18.01914855 23 24.5 C20.1496543 28.06293213 17.39968671 29.78173232 13 31 C8.97075637 31.35405482 5.02757557 31.39309138 1 31 C0 30 0 30 -0.11352539 27.13256836 C-0.10828857 25.88096924 -0.10305176 24.62937012 -0.09765625 23.33984375 C-0.0962413 22.67537735 -0.09482635 22.01091095 -0.09336853 21.3263092 C-0.08775518 19.19666101 -0.07520054 17.06711661 -0.0625 14.9375 C-0.05748671 13.49674631 -0.05292351 12.05599097 -0.04882812 10.61523438 C-0.03778145 7.07678898 -0.02050792 3.53840461 0 0 Z M7 6 C7 12.27 7 18.54 7 25 C13.4723999 24.66369921 13.4723999 24.66369921 15.9375 22.5 C17.56541184 18.66961921 17.53460559 15.09613299 17 11 C16.13575439 8.40130685 16.13575439 8.40130685 14 7 C11.69 6.67 9.38 6.34 7 6 Z " fill="#010101" transform="translate(193,250)"/>
<path d="M0 0 C1.98 0 3.96 0 6 0 C6.67354499 1.43429001 7.33859701 2.87257057 8 4.3125 C8.556875 5.51326172 8.556875 5.51326172 9.125 6.73828125 C10 9 10 9 10 12 C10.66 12 11.32 12 12 12 C12.83887056 14.43572059 13.67126529 16.87333217 14.5 19.3125 C14.73847656 20.00279297 14.97695312 20.69308594 15.22265625 21.40429688 C16.23208263 24.38931489 17 26.82658914 17 30 C14.36 29.67 11.72 29.34 9 29 C8.67 27.02 8.34 25.04 8 23 C4.7 23 1.4 23 -2 23 C-2.33 24.98 -2.66 26.96 -3 29 C-5.3125 29.625 -5.3125 29.625 -8 30 C-8.99 29.34 -9.98 28.68 -11 28 C-9.92191646 25.01890811 -8.83654401 22.04051757 -7.75 19.0625 C-7.44964844 18.23169922 -7.14929688 17.40089844 -6.83984375 16.54492188 C-4.78245257 10.91992683 -2.50371358 5.44088875 0 0 Z M2 11 C1.67 12.98 1.34 14.96 1 17 C2.32 17 3.64 17 5 17 C4.67 15.02 4.34 13.04 4 11 C3.34 11 2.68 11 2 11 Z " fill="#030303" transform="translate(235,251)"/>
<path d="M0 0 C13 0 13 0 18 3 C20.35857464 6.03245311 20.35933916 9.26065814 20.25390625 13.03515625 C19.87642532 15.95627792 18.85858628 17.74314524 17 20 C13.77841364 22.33287288 10.89042645 22.17683757 7 22 C7 24.64 7 27.28 7 30 C4.69 30 2.38 30 0 30 C0 20.1 0 10.2 0 0 Z M7 6 C7 9.63 7 13.26 7 17 C11.5841963 15.54711014 11.5841963 15.54711014 13 14 C13.25005386 11.04182893 13.25005386 11.04182893 13 8 C12.34 7.34 11.68 6.68 11 6 C9.68 6 8.36 6 7 6 Z " fill="#010101" transform="translate(299,250)"/>
<path d="M0 0 C0 3 0 3 -1 5 C0.06645115 6.29633621 0.06645115 6.29633621 2.5625 6.0625 C3.366875 6.041875 4.17125 6.02125 5 6 C5.495 6.99 5.495 6.99 6 8 C5.34 8.66 4.68 9.32 4 10 C3.34 9.34 2.68 8.68 2 8 C-8.10493087 15.15146762 -16.35816906 21.51219047 -23.3359375 31.83984375 C-24.15964844 32.90912109 -24.15964844 32.90912109 -25 34 C-25.66 34 -26.32 34 -27 34 C-27.56252123 29.64269272 -28.00356539 25.68156938 -25.6875 21.80078125 C-23.88257864 19.75010051 -21.98751912 17.87338435 -20 16 C-19.48308594 15.42765625 -18.96617188 14.8553125 -18.43359375 14.265625 C-13.1191594 8.45837342 -6.51920581 4.3232628 0 0 Z " fill="#878787" transform="translate(106,176)"/>
<path d="M0 0 C0.33 0 0.66 0 1 0 C1 11.22 1 22.44 1 34 C2.32 34.33 3.64 34.66 5 35 C4.21625 35.144375 3.4325 35.28875 2.625 35.4375 C0.03578982 35.87798925 0.03578982 35.87798925 -2 37 C-2.82065069 35.12855305 -3.6311584 33.25265664 -4.4375 31.375 C-5.11619141 29.80878906 -5.11619141 29.80878906 -5.80859375 28.2109375 C-8.24917945 21.63335898 -8.33131641 16.54641974 -6 10 C-4.21379605 6.51981458 -2.27870864 3.18221993 0 0 Z " fill="#7D7D7D" transform="translate(218,209)"/>
<path d="M0 0 C6.97291753 -0.75241952 6.97291753 -0.75241952 9.59765625 1.17041016 C11.03644478 2.81569149 12.27625161 4.50189114 13.5 6.3125 C13.94085938 6.90740234 14.38171875 7.50230469 14.8359375 8.11523438 C18 12.51249515 18 12.51249515 18 16 C17.36893571 18.01151741 16.70626239 20.01363702 16 22 C11.87418756 18.10046612 8.52032902 13.90014581 5.1875 9.3125 C4.68541016 8.63638672 4.18332031 7.96027344 3.66601562 7.26367188 C0 2.25095663 0 2.25095663 0 0 Z " fill="#898989" transform="translate(142,243)"/>
<path d="M0 0 C0.33 0 0.66 0 1 0 C1.33 10.56 1.66 21.12 2 32 C1.01 31.67 0.02 31.34 -1 31 C-1 30.34 -1 29.68 -1 29 C-1.66 28.67 -2.32 28.34 -3 28 C-3 28.66 -3 29.32 -3 30 C-3.66 30 -4.32 30 -5 30 C-5 23.73 -5 17.46 -5 11 C-4.34 11 -3.68 11 -3 11 C-3 13.64 -3 16.28 -3 19 C-2.34 19 -1.68 19 -1 19 C-0.67 12.73 -0.34 6.46 0 0 Z " fill="#7F7F7F" transform="translate(165,222)"/>
<path d="M0 0 C1.24040039 0.01353516 1.24040039 0.01353516 2.50585938 0.02734375 C4.52486708 0.05068488 6.54372356 0.08654712 8.5625 0.125 C8.2325 0.785 7.9025 1.445 7.5625 2.125 C6.95921875 2.11339844 6.3559375 2.10179687 5.734375 2.08984375 C4.93515625 2.08082031 4.1359375 2.07179687 3.3125 2.0625 C2.52359375 2.05089844 1.7346875 2.03929687 0.921875 2.02734375 C-1.43043776 2.0411537 -1.43043776 2.0411537 -3.609375 2.69140625 C-5.4375 3.125 -5.4375 3.125 -7.4375 2.125 C-6.4475 3.61 -6.4475 3.61 -5.4375 5.125 C-3.26837736 5.41436593 -3.26837736 5.41436593 -0.8125 5.1875 C4.05287266 5.02484946 7.90741992 5.74571701 12.5625 7.125 C8.99443259 8.3143558 7.24609009 7.7505153 3.5625 7.125 C-3.77706596 6.60994274 -10.34708214 8.30916128 -17.4375 10.125 C-17.1075 9.135 -16.7775 8.145 -16.4375 7.125 C-15.1175 7.125 -13.7975 7.125 -12.4375 7.125 C-12.7675 5.805 -13.0975 4.485 -13.4375 3.125 C-14.4275 3.455 -15.4175 3.785 -16.4375 4.125 C-16.4375 3.465 -16.4375 2.805 -16.4375 2.125 C-10.81492839 0.2080427 -5.91380615 -0.12389924 0 0 Z " fill="#828282" transform="translate(250.4375,49.875)"/>
<path d="M0 0 C3.62240697 0.6134053 5.81673131 2.12583577 8.6875 4.375 C9.47511719 4.98085937 10.26273437 5.58671875 11.07421875 6.2109375 C13 8 13 8 14 11 C9.43381483 11.35813217 6.07094368 11.60240582 2 9.3125 C-0.20544923 6.76244933 -0.82410292 5.34204446 -1 2 C-0.67 1.34 -0.34 0.68 0 0 Z " fill="#898989" transform="translate(397,180)"/>
<path d="M0 0 C0.99 0.33 1.98 0.66 3 1 C4.94871307 6.74357537 5.25111884 11.97314783 5 18 C2 17 2 17 0.39453125 13.83984375 C-0.14390274 12.54361378 -0.67083429 11.24255932 -1.1875 9.9375 C-1.46013672 9.27427734 -1.73277344 8.61105469 -2.01367188 7.92773438 C-2.6856086 6.28915183 -3.34409628 4.64506597 -4 3 C-2.1875 1.4375 -2.1875 1.4375 0 0 Z " fill="#818181" transform="translate(428,217)"/>
<path d="M0 0 C0.33 0.99 0.66 1.98 1 3 C1.99 3.33 2.98 3.66 4 4 C3.38271885 7.38361519 2.13020282 9.52002561 0.0625 12.25 C-0.46214844 12.95640625 -0.98679687 13.6628125 -1.52734375 14.390625 C-2.01332031 14.92171875 -2.49929687 15.4528125 -3 16 C-3.66 16 -4.32 16 -5 16 C-5.76681614 7.37757848 -5.76681614 7.37757848 -3.88671875 4 C-2.5 2.375 -2.5 2.375 0 0 Z " fill="#797979" transform="translate(84,194)"/>
<path d="M0 0 C2.31 0 4.62 0 7 0 C8.12377697 3.30435084 7.89554742 5.0506862 6.5625 8.25 C6.27503906 8.95640625 5.98757813 9.6628125 5.69140625 10.390625 C5.46324219 10.92171875 5.23507812 11.4528125 5 12 C3 11 3 11 1 9 C0.01 9.33 -0.98 9.66 -2 10 C-1.855625 9.36191406 -1.71125 8.72382813 -1.5625 8.06640625 C-1.376875 7.24011719 -1.19125 6.41382813 -1 5.5625 C-0.7215625 4.32693359 -0.7215625 4.32693359 -0.4375 3.06640625 C0.03452147 1.18898311 0.03452147 1.18898311 0 0 Z " fill="#818181" transform="translate(423,243)"/>
<path d="M0 0 C-0.66 1.32 -1.32 2.64 -2 4 C-7.28 4 -12.56 4 -18 4 C-18.33 3.34 -18.66 2.68 -19 2 C-18.67 1.34 -18.34 0.68 -18 0 C-12.05359768 -1.06350897 -5.89626078 -1.47406519 0 0 Z " fill="#8B8B8B" transform="translate(358,84)"/>
<path d="M0 0 C6.30162703 0.59449312 6.30162703 0.59449312 8.9375 2.125 C10.58420065 5.03094231 10.18462917 7.73821805 10 11 C9.01 11.33 8.02 11.66 7 12 C6.0165504 10.56542672 5.03839079 9.12722594 4.0625 7.6875 C3.51722656 6.88699219 2.97195313 6.08648437 2.41015625 5.26171875 C1 3 1 3 0 0 Z " fill="#7C7C7C" transform="translate(413,200)"/>
<path d="M0 0 C0.99 0.99 1.98 1.98 3 3 C1.72548573 7.98219214 -0.12908335 10.62535472 -4 14 C-4.33 14 -4.66 14 -5 14 C-5 11.36 -5 8.72 -5 6 C-4.34 6 -3.68 6 -3 6 C-2.87625 5.195625 -2.7525 4.39125 -2.625 3.5625 C-2.41875 2.716875 -2.2125 1.87125 -2 1 C-1.34 0.67 -0.68 0.34 0 0 Z " fill="#898989" transform="translate(372,213)"/>
<path d="M0 0 C2.31 0 4.62 0 7 0 C6.46884894 4.51478398 4.63379708 7.34666857 2 11 C1.34 10.67 0.68 10.34 0 10 C0 6.7 0 3.4 0 0 Z " fill="#7A7A7A" transform="translate(142,220)"/>
<path d="M0 0 C0.66 0 1.32 0 2 0 C2 6.6 2 13.2 2 20 C1.34 20 0.68 20 0 20 C-1.37681259 13.63224179 -2.08150964 6.24452893 0 0 Z " fill="#2E2E2E" transform="translate(68,224)"/>
<path d="M0 0 C2.74277578 3.19990508 4.6302836 6.00499382 6 10 C4.68 10 3.36 10 2 10 C1.34 10.99 0.68 11.98 0 13 C-1 12 -1 12 -1.1328125 9.53125 C-1.13023437 8.5309375 -1.12765625 7.530625 -1.125 6.5 C-1.12757813 5.4996875 -1.13015625 4.499375 -1.1328125 3.46875 C-1 1 -1 1 0 0 Z " fill="#7F7F7F" transform="translate(367,235)"/>
<path d="M0 0 C2.97 0.495 2.97 0.495 6 1 C6 5 6 5 4.5 6.75 C4.005 7.1625 3.51 7.575 3 8 C0.525 7.01 0.525 7.01 -2 6 C-1.34 4.02 -0.68 2.04 0 0 Z " fill="#8F8F8F" transform="translate(121,254)"/>
<path d="M0 0 C2.64 0.33 5.28 0.66 8 1 C8 1.99 8 2.98 8 4 C8.99 5.485 8.99 5.485 10 7 C6.7 7 3.4 7 0 7 C0.66 6.34 1.32 5.68 2 5 C1.34 4.34 0.68 3.68 0 3 C0 2.01 0 1.02 0 0 Z " fill="#7F7F7F" transform="translate(255,185)"/>
<path d="M0 0 C1.98 0 3.96 0 6 0 C5.21572648 1.64936913 4.42234741 3.29441127 3.625 4.9375 C3.18414062 5.85402344 2.74328125 6.77054688 2.2890625 7.71484375 C1 10 1 10 -1 11 C-0.67 10.01 -0.34 9.02 0 8 C-0.99 7.34 -1.98 6.68 -3 6 C-2.01 6 -1.02 6 0 6 C0 4.02 0 2.04 0 0 Z " fill="#858585" transform="translate(202,145)"/>
<path d="M0 0 C1.75 1.375 1.75 1.375 2.75 4.375 C-0.22 4.375 -3.19 4.375 -6.25 4.375 C-6.58 3.715 -6.91 3.055 -7.25 2.375 C-2.86111111 -0.79475309 -2.86111111 -0.79475309 0 0 Z " fill="#777777" transform="translate(408.25,186.625)"/>
<path d="M0 0 C0.99 0.99 1.98 1.98 3 3 C1.68 2.67 0.36 2.34 -1 2 C-1 3.65 -1 5.3 -1 7 C-3.49361571 5.79618552 -5.68143083 4.54571278 -8 3 C-7.67 2.34 -7.34 1.68 -7 1 C-6.401875 1.20625 -5.80375 1.4125 -5.1875 1.625 C-2.71549154 2.30671915 -2.71549154 2.30671915 0 0 Z " fill="#828282" transform="translate(100,276)"/>
<path d="M0 0 C1.85486952 2.78230428 2.72462112 4.84363607 3.6875 8 C3.95949219 8.86625 4.23148438 9.7325 4.51171875 10.625 C5 13 5 13 4 16 C0.18211975 11.18615099 0.29932075 5.89352231 0 0 Z " fill="#838383" transform="translate(177,320)"/>
<path d="M0 0 C2.64 0 5.28 0 8 0 C8 0.99 8 1.98 8 3 C6.68 2.67 5.36 2.34 4 2 C4.66 3.98 5.32 5.96 6 8 C1.125 3.375 1.125 3.375 0 0 Z " fill="#656565" transform="translate(142,243)"/>
<path d="M0 0 C-5.9114744 0.77313045 -11.1314592 1.14819277 -17 0 C-17 -0.33 -17 -0.66 -17 -1 C-10.92732532 -2.18491213 -5.5570182 -3.06970656 0 0 Z " fill="#7C7C7C" transform="translate(352,84)"/>
<path d="M0 0 C3.17218843 3.62535821 4.42902597 7.51150278 6 12 C5.01 11.67 4.02 11.34 3 11 C1.9375 8.1875 1.9375 8.1875 1 5 C0.36184656 3.65278717 -0.29325371 2.31252882 -1 1 C-0.67 0.67 -0.34 0.34 0 0 Z " fill="#848484" transform="translate(379,256)"/>
<path d="M0 0 C3.32637022 2.69277589 4.58473125 6.03724749 6 10 C5.67 10.99 5.34 11.98 5 13 C4.15930585 11.39967863 3.32768495 9.79458829 2.5 8.1875 C1.80390625 6.84751953 1.80390625 6.84751953 1.09375 5.48046875 C0 3 0 3 0 0 Z " fill="#828282" transform="translate(183,354)"/>
<path d="M0 0 C0.66 0.33 1.32 0.66 2 1 C-1.17320782 4.53586014 -3.16743695 6.58578031 -8 7 C-5.42215154 4.35247996 -3.08351902 2.05567935 0 0 Z " fill="#838383" transform="translate(258,334)"/>
<path d="M0 0 C0.33 0 0.66 0 1 0 C1 2.31 1 4.62 1 7 C0.01 7.33 -0.98 7.66 -2 8 C-2.66 6.35 -3.32 4.7 -4 3 C-2.68 3.33 -1.36 3.66 0 4 C0 2.68 0 1.36 0 0 Z " fill="#606060" transform="translate(422,204)"/>
<path d="M0 0 C0.99 0 1.98 0 3 0 C2.67 1.32 2.34 2.64 2 4 C0.35 4.33 -1.3 4.66 -3 5 C-1.6875 2.5 -1.6875 2.5 0 0 Z " fill="#828282" transform="translate(352,240)"/>
<path d="M0 0 C2 2 2 2 2.125 5.125 C2.08375 6.07375 2.0425 7.0225 2 8 C1.01 7.67 0.02 7.34 -1 7 C-0.67 4.69 -0.34 2.38 0 0 Z " fill="#6A6A6A" transform="translate(431,227)"/>
</svg>
