<?xml version="1.0" encoding="UTF-8"?>
<svg version="1.1" xmlns="http://www.w3.org/2000/svg" width="500" height="500">
<path d="M0 0 C165 0 330 0 500 0 C500 165 500 330 500 500 C335 500 170 500 0 500 C0 335 0 170 0 0 Z " fill="#1E04E0" transform="translate(0,0)"/>
<path d="M0 0 C8.47368887 7.34148009 15.55028225 16.06741901 21.15234375 25.78125 C22.065 25.50861328 22.065 25.50861328 22.99609375 25.23046875 C35.59425918 21.61775955 47.36711843 19.5121969 60.46484375 19.46875 C61.45444092 19.46335205 62.44403809 19.4579541 63.46362305 19.45239258 C69.48706025 19.51017015 75.04563033 20.18365121 80.91894531 21.5378418 C83.36507687 22.06507884 83.36507687 22.06507884 85.58984375 19.90625 C86.43546875 19.205 87.28109375 18.50375 88.15234375 17.78125 C93.58136372 16.95322681 99.17864663 16.84404239 104.15234375 19.40625 C107.58652152 22.12497406 109.35657878 23.75873647 111.15234375 27.78125 C111.68672044 32.76651104 112.06271728 37.70622621 110.01953125 42.36328125 C108.90892769 44.7391509 108.90892769 44.7391509 109.76171875 47.0703125 C110.138125 47.84117188 110.51453125 48.61203125 110.90234375 49.40625 C119.94939195 70.22057374 114.04234832 92.97189375 108.15234375 113.78125 C108.87035156 114.03003906 109.58835937 114.27882813 110.328125 114.53515625 C113.43787147 115.90722973 115.70519223 117.57834475 118.33984375 119.71875 C119.19964844 120.40839844 120.05945313 121.09804687 120.9453125 121.80859375 C123.15234375 123.78125 123.15234375 123.78125 125.15234375 126.78125 C120.68883049 127.91276483 118.76389801 128.10565143 114.625 125.91015625 C113.47359204 125.07456304 112.33685035 124.21842564 111.21484375 123.34375 C110.62638672 122.90998047 110.03792969 122.47621094 109.43164062 122.02929688 C107.99202089 120.96421235 106.57025534 119.87506751 105.15234375 118.78125 C105.06597656 119.58433594 104.97960937 120.38742188 104.890625 121.21484375 C103.95263558 125.74597784 102.25155838 129.64531312 100.33984375 133.84375 C99.75891968 135.13104004 99.75891968 135.13104004 99.16625977 136.44433594 C94.47984324 146.5815874 88.86086931 156.19290403 83.15234375 165.78125 C82.82234375 165.78125 82.49234375 165.78125 82.15234375 165.78125 C80.715835 154.88772533 84.43505985 148.55661599 90.15234375 139.78125 C90.48234375 139.12125 90.81234375 138.46125 91.15234375 137.78125 C92.14234375 137.78125 93.13234375 137.78125 94.15234375 137.78125 C94.04921875 136.87375 93.94609375 135.96625 93.83984375 135.03125 C93.79942568 130.09014089 95.96570685 125.97894273 97.9609375 121.55078125 C98.94190882 119.27042497 99.64987423 117.20118942 100.15234375 114.78125 C99.51554687 114.53503906 98.87875 114.28882813 98.22265625 114.03515625 C95.79537723 113.04386291 93.40954543 112.00904676 91.01953125 110.93359375 C76.70856055 104.55298944 62.07465955 99.53458583 47.15234375 94.78125 C47.44238281 95.61390381 47.44238281 95.61390381 47.73828125 96.46337891 C50.56644196 105.13512167 51.52106429 113.9401697 52.61328125 122.96484375 C52.77054687 124.17011719 52.9278125 125.37539062 53.08984375 126.6171875 C53.22261719 127.70563965 53.35539062 128.7940918 53.4921875 129.91552734 C54.18994038 132.94445609 55.20413523 134.41699013 57.15234375 136.78125 C57.15234375 137.44125 57.15234375 138.10125 57.15234375 138.78125 C57.81234375 138.78125 58.47234375 138.78125 59.15234375 138.78125 C65.95974981 144.97537623 70.31492387 151.1906538 70.875 160.56640625 C70.95855466 166.9948376 70.63265786 173.37221017 70.15234375 179.78125 C73.78234375 179.78125 77.41234375 179.78125 81.15234375 179.78125 C81.15234375 176.81125 81.15234375 173.84125 81.15234375 170.78125 C85.36183735 175.839217 88.35088132 181.25754761 91.46484375 187.03125 C92.32662231 188.6258606 92.32662231 188.6258606 93.20581055 190.25268555 C105.15234375 212.67881153 105.15234375 212.67881153 105.15234375 219.78125 C121.04971321 209.62744628 133.70826379 197.93839295 140.15234375 179.78125 C142.13234375 179.78125 144.11234375 179.78125 146.15234375 179.78125 C142.61733402 198.51680156 128.02690991 212.63588056 112.8828125 223.09765625 C110.15234375 224.78125 110.15234375 224.78125 108.15234375 224.78125 C108.49007813 225.95300781 108.8278125 227.12476563 109.17578125 228.33203125 C115.67648093 251.09783606 119.6435191 274.79546697 107.546875 296.61328125 C100.43267488 307.67317219 89.79177345 314.38394664 77.15234375 317.78125 C60.13940377 320.88760301 41.97983821 319.02604693 25.69921875 313.5859375 C23.27965969 312.68082622 23.27965969 312.68082622 21.15234375 312.78125 C19.94115756 314.36502711 19.94115756 314.36502711 18.71484375 316.46875 C9.32622022 330.9514442 -1.89856517 341.77761356 -17.84765625 348.78125 C-18.93626953 349.29365234 -18.93626953 349.29365234 -20.046875 349.81640625 C-29.99382627 353.88991963 -42.28634384 352.84278396 -52.1171875 349.03515625 C-69.10999662 341.23159155 -81.00847122 328.40819093 -90.84765625 312.78125 C-91.7603125 313.05388672 -91.7603125 313.05388672 -92.69140625 313.33203125 C-114.14480181 319.48410792 -139.00550738 323.54592906 -159.66015625 312.96875 C-172.72659847 305.30911146 -179.78750821 294.18740233 -183.66015625 279.65625 C-187.21421312 261.41470947 -183.65264697 242.19622217 -177.84765625 224.78125 C-178.56050781 224.54019531 -179.27335937 224.29914063 -180.0078125 224.05078125 C-183.26486796 222.59473857 -185.56113374 220.76774772 -188.28515625 218.46875 C-189.73148438 217.25058594 -189.73148438 217.25058594 -191.20703125 216.0078125 C-192.0784375 215.27304687 -192.94984375 214.53828125 -193.84765625 213.78125 C-194.90975594 212.96822679 -195.9721591 212.15559947 -197.03515625 211.34375 C-205.86904865 203.29509248 -214.41583486 191.88829672 -215.84765625 179.78125 C-213.86765625 179.78125 -211.88765625 179.78125 -209.84765625 179.78125 C-209.37457031 180.82023438 -208.90148437 181.85921875 -208.4140625 182.9296875 C-204.27602528 191.75919658 -199.99713361 198.98619118 -192.84765625 205.78125 C-192.10386719 206.49796875 -191.36007813 207.2146875 -190.59375 207.953125 C-185.70231583 212.47876496 -180.49597777 216.25605643 -174.84765625 219.78125 C-174.77417969 219.00394531 -174.70070312 218.22664062 -174.625 217.42578125 C-173.56103526 212.43744405 -171.53838807 208.08797589 -169.41015625 203.46875 C-168.97002197 202.50630371 -168.5298877 201.54385742 -168.07641602 200.55224609 C-163.91791078 191.63073743 -159.25181437 183.01303832 -153.84765625 174.78125 C-153.51765625 174.78125 -153.18765625 174.78125 -152.84765625 174.78125 C-152.84765625 176.43125 -152.84765625 178.08125 -152.84765625 179.78125 C-143.27765625 179.78125 -133.70765625 179.78125 -123.84765625 179.78125 C-123.84765625 176.81125 -123.84765625 173.84125 -123.84765625 170.78125 C-130.11765625 170.78125 -136.38765625 170.78125 -142.84765625 170.78125 C-142.84765625 166.16125 -142.84765625 161.54125 -142.84765625 156.78125 C-137.89765625 156.78125 -132.94765625 156.78125 -127.84765625 156.78125 C-127.84765625 153.48125 -127.84765625 150.18125 -127.84765625 146.78125 C-129.82765625 146.78125 -131.80765625 146.78125 -133.84765625 146.78125 C-133.14172322 145.43547128 -132.40694689 144.1047928 -131.66015625 142.78125 C-131.25410156 142.03875 -130.84804687 141.29625 -130.4296875 140.53125 C-129.90761719 139.95375 -129.38554687 139.37625 -128.84765625 138.78125 C-127.19765625 138.78125 -125.54765625 138.78125 -123.84765625 138.78125 C-123.84765625 135.15125 -123.84765625 131.52125 -123.84765625 127.78125 C-133.41765625 127.78125 -142.98765625 127.78125 -152.84765625 127.78125 C-152.84765625 139.66125 -152.84765625 151.54125 -152.84765625 163.78125 C-155.88549538 159.98395109 -157.96992546 156.96094428 -160.16015625 152.73828125 C-160.76085937 151.58134766 -161.3615625 150.42441406 -161.98046875 149.23242188 C-162.28758789 148.63357178 -162.59470703 148.03472168 -162.91113281 147.41772461 C-163.83811563 145.61233133 -164.77574633 143.81278743 -165.71484375 142.01367188 C-174.84765625 124.32619702 -174.84765625 124.32619702 -174.84765625 118.78125 C-184.83515828 125.39000134 -193.43778977 132.85216334 -201.25390625 141.93359375 C-202.84765625 143.78125 -202.84765625 143.78125 -204.84765625 145.78125 C-205.39105849 141.57203902 -205.7805809 137.58217049 -203.78125 133.72265625 C-197.24106519 125.83837331 -187.73245825 118.82714699 -178.84765625 113.78125 C-179.55979343 109.28718041 -180.4453705 104.85265387 -181.41015625 100.40625 C-181.67957031 99.16101563 -181.94898438 97.91578125 -182.2265625 96.6328125 C-182.43152344 95.69179687 -182.63648438 94.75078125 -182.84765625 93.78125 C-184.04390625 93.554375 -185.24015625 93.3275 -186.47265625 93.09375 C-192.17850383 91.64961512 -195.37410728 88.94245515 -198.72265625 84.03125 C-200.39016327 79.2140075 -200.89847642 74.66253111 -199.12109375 69.7890625 C-196.70697569 65.21597706 -193.74388231 61.72508531 -188.75 60.09765625 C-186.79706132 59.59822749 -184.82300016 59.18301486 -182.84765625 58.78125 C-182.64140625 57.523125 -182.43515625 56.265 -182.22265625 54.96875 C-179.5976471 43.16551738 -172.33032617 34.01017515 -162.4609375 27.38671875 C-152.49391479 21.26348059 -142.6898407 19.41485244 -131.09765625 19.53125 C-130.13045654 19.53729248 -129.16325684 19.54333496 -128.16674805 19.54956055 C-117.81843649 19.69248106 -108.21320506 21.17675165 -98.28515625 24.09765625 C-95.82142303 24.78860707 -93.36174341 25.30985866 -90.84765625 25.78125 C-90.27917969 24.935625 -89.71070313 24.09 -89.125 23.21875 C-78.38484266 7.36835651 -64.02193786 -9.00387259 -44.15625 -12.96875 C-27.04419649 -14.82183194 -13.54218534 -10.55138721 0 0 Z " fill="#10027F" transform="translate(284.84765625,63.21875)"/>
<path d="M0 0 C1.16829346 -0.00095673 2.33658691 -0.00191345 3.5402832 -0.00289917 C6.00113987 -0.00357722 8.46199837 -0.0017492 10.92285156 0.00244141 C14.67517134 0.00779491 18.42737142 0.0024836 22.1796875 -0.00390625 C24.57812526 -0.0032454 26.97656295 -0.0019641 29.375 0 C30.48979736 -0.00202423 31.60459473 -0.00404846 32.75317383 -0.00613403 C49.45621082 0.04378624 49.45621082 0.04378624 55.1875 5.7578125 C56.0434375 6.59570312 56.899375 7.43359375 57.78125 8.296875 C58.2362085 8.74933594 58.69116699 9.20179688 59.15991211 9.66796875 C60.87983623 11.31724871 62.66657169 12.86748542 64.47265625 14.421875 C69.04406486 18.39124301 73.3469757 22.60113801 77.625 26.8828125 C78.41261719 27.66978516 79.20023438 28.45675781 80.01171875 29.26757812 C85.64692754 34.9541009 90.77196446 40.81283823 95.6875 47.1328125 C96.3475 47.7928125 97.0075 48.4528125 97.6875 49.1328125 C99.01395727 56.31259 98.83604148 63.82241061 98.8203125 71.1015625 C98.82126923 72.10312378 98.82222595 73.10468506 98.82321167 74.13659668 C98.82388697 76.23738671 98.82207849 78.33817891 98.81787109 80.43896484 C98.8125136 83.6247229 98.81783841 86.81034 98.82421875 89.99609375 C98.82355785 92.05208364 98.82227645 94.10807344 98.8203125 96.1640625 C98.82233673 97.10084839 98.82436096 98.03763428 98.82644653 99.00280762 C98.76223103 117.43204189 98.76223103 117.43204189 95.4296875 121.55078125 C94.48351562 122.46472656 93.53734375 123.37867188 92.5625 124.3203125 C91.63179687 125.24199219 90.70109375 126.16367187 89.7421875 127.11328125 C89.24887939 127.59015381 88.75557129 128.06702637 88.24731445 128.55834961 C86.52795538 130.29385543 84.94036378 132.10866076 83.34765625 133.9609375 C79.50567263 138.40270447 75.41252644 142.55526595 71.25 146.6953125 C70.53779297 147.41138672 69.82558594 148.12746094 69.09179688 148.86523438 C64.98455444 152.96501587 60.78080945 156.88919428 56.37451172 160.66625977 C54.95658393 161.89889251 53.59565468 163.19666179 52.25 164.5078125 C45.83509055 168.57580386 35.87331074 167.27935336 28.49609375 167.265625 C27.35141129 167.26658173 26.20672882 167.26753845 25.02735901 167.26852417 C22.61955714 167.26920148 20.21175339 167.26737865 17.80395508 167.26318359 C14.13293333 167.25782408 10.46203364 167.26314644 6.79101562 167.26953125 C4.44270807 167.26887049 2.09440058 167.26758936 -0.25390625 167.265625 C-1.34369278 167.26764923 -2.43347931 167.26967346 -3.55628967 167.27175903 C-20.10017756 167.22119994 -20.10017756 167.22119994 -23.65625 163.65625 C-24.17574219 163.15424072 -24.69523437 162.65223145 -25.23046875 162.13500977 C-25.75253906 161.59803467 -26.27460938 161.06105957 -26.8125 160.5078125 C-27.9471551 159.39895976 -29.08256778 158.29088168 -30.21875 157.18359375 C-30.755 156.65072754 -31.29125 156.11786133 -31.84375 155.56884766 C-33.59637566 153.85525987 -35.43313736 152.2680842 -37.3125 150.6953125 C-45.3087397 143.76863352 -53.0258641 136.09170012 -59.75 127.921875 C-61.29218488 126.07014214 -61.29218488 126.07014214 -63.25 124.46875 C-67.19049946 120.86192186 -68.65474679 117.98635953 -68.93655396 112.57763672 C-68.95749115 111.87268066 -68.97842834 111.16772461 -69 110.44140625 C-69.03245819 109.69592529 -69.06491638 108.95044434 -69.09835815 108.18237305 C-69.39407701 100.73489886 -69.46440565 93.28317843 -69.44287109 85.83056641 C-69.43750062 83.63306794 -69.44286903 81.43577372 -69.44921875 79.23828125 C-69.45300347 75.60537665 -69.41584709 71.97477904 -69.34942627 68.34249878 C-69.32427077 66.8371812 -69.30764562 65.3317025 -69.29852295 63.82620239 C-69.17490811 49.2540025 -69.17490811 49.2540025 -65.8359375 44.91015625 C-64.31494141 43.42407227 -64.31494141 43.42407227 -62.6875 42.0703125 C-61.57749991 41.01628289 -60.46812044 39.96159931 -59.359375 38.90625 C-58.82634766 38.42639648 -58.29332031 37.94654297 -57.74414062 37.45214844 C-55.97685546 35.82349751 -54.45865863 34.05363516 -52.9375 32.1953125 C-45.65983784 23.79113262 -37.56203349 15.72663669 -29.03515625 8.59375 C-27.83876755 7.57912557 -26.68149935 6.51727066 -25.55859375 5.421875 C-24.98238281 4.87273437 -24.40617187 4.32359375 -23.8125 3.7578125 C-23.3278125 3.27570313 -22.843125 2.79359375 -22.34375 2.296875 C-16.17916532 -1.23590622 -6.87291464 -0.01247973 0 0 Z " fill="#1F05E0" transform="translate(235.3125,148.8671875)"/>
<path d="M0 0 C0.35449219 0.93714844 0.70898438 1.87429687 1.07421875 2.83984375 C8.73823252 24.40287293 8.73823252 24.40287293 21 43 C21.33 31.78 21.66 20.56 22 9 C31.57 9 41.14 9 51 9 C51 12.63 51 16.26 51 20 C49.35 20 47.7 20 46 20 C45.71125 20.598125 45.4225 21.19625 45.125 21.8125 C44 24 44 24 42 27 C43.65 27.33 45.3 27.66 47 28 C47 31.3 47 34.6 47 38 C42.05 38 37.1 38 32 38 C32 42.62 32 47.24 32 52 C38.27 52 44.54 52 51 52 C51 54.97 51 57.94 51 61 C41.43 61 31.86 61 22 61 C21.505 59.02 21.505 59.02 21 57 C12.94931991 71.19154204 5.17762206 85.46713382 0 101 C-14.17661067 96.11326885 -25.44140052 81.88899263 -32.50390625 69.19921875 C-33.82318683 66.37809395 -34.58011927 64.06570449 -35 61 C-36.98 61 -38.96 61 -41 61 C-41 43.84 -41 26.68 -41 9 C-37.37 9 -33.74 9 -30 9 C-29.67 14.28 -29.34 19.56 -29 25 C-27.39125 23.205625 -25.7825 21.41125 -24.125 19.5625 C-6.32805896 0 -6.32805896 0 0 0 Z " fill="#2006E0" transform="translate(110,182)"/>
<path d="M0 0 C17.96353851 3.97099393 37.34904033 10.14019239 53 20 C52.55548864 25.2230085 51.15724422 29.05553123 48.921875 33.77734375 C47.63905782 36.87023772 47.28288109 39.67614719 47 43 C46.01 43 45.02 43 44 43 C43.79375 43.78375 43.5875 44.5675 43.375 45.375 C42.13821487 48.63561535 40.79279673 50.88235111 38.875 53.75 C35.63991798 58.91670866 35.31408521 63.03000093 36 69 C44.37880585 54.4146713 52.34300894 39.88309027 58 24 C61.53449939 25.28133341 64.33073981 26.77704539 67.3125 29.0625 C68.00988281 29.58972656 68.70726562 30.11695313 69.42578125 30.66015625 C69.94527344 31.10230469 70.46476562 31.54445312 71 32 C71 32.33 71 32.66 71 33 C69.35 33 67.7 33 66 33 C66 50.16 66 67.32 66 85 C69.63 85 73.26 85 77 85 C77 78.4 77 71.8 77 65 C78.98 65 80.96 65 83 65 C83.47050781 66.02480469 83.94101562 67.04960937 84.42578125 68.10546875 C85.0545395 69.46621423 85.68345404 70.8268875 86.3125 72.1875 C86.62123047 72.86103516 86.92996094 73.53457031 87.24804688 74.22851562 C88.62707778 77.20431915 89.96945222 79.9537094 91.78125 82.69921875 C93 85 93 85 92.91796875 87.2890625 C88.11426078 102.65065269 73.92285172 117.12332691 60 125 C59.34 125 58.68 125 58 125 C57.30777344 123.16501953 57.30777344 123.16501953 56.6015625 121.29296875 C50.75534977 106.08642635 43.79806024 91.72562448 35 78 C34.67 80.31 34.34 82.62 34 85 C30.37 85 26.74 85 23 85 C23.03222656 83.26234375 23.06445312 81.5246875 23.09765625 79.734375 C23.45588982 62.87996671 23.45588982 62.87996671 15.03125 49.00390625 C14.3609375 48.34261719 13.690625 47.68132812 13 47 C12.505 45.515 12.505 45.515 12 44 C11.34 44 10.68 44 10 44 C4.83393757 38.44901528 4.74285518 31.50979727 3.875 24.25 C3.56250681 21.79654103 3.24744627 19.34340756 2.9296875 16.890625 C2.77983398 15.72337891 2.62998047 14.55613281 2.47558594 13.35351562 C1.83831627 8.8599139 0.9762818 4.43111346 0 0 Z " fill="#1E04E0" transform="translate(332,158)"/>
<path d="M0 0 C4.25923824 1.27441774 8.06621938 2.97418571 12.0144043 4.97045898 C26.58549962 12.2908361 42.15684871 17.22420706 58 21 C58.1959375 21.81597656 58.391875 22.63195312 58.59375 23.47265625 C62.64279161 39.5117478 67.53792861 55.64204467 75.64941406 70.12866211 C78.05587188 74.52470632 78.05587188 74.52470632 77.71484375 77.42578125 C77.47894531 77.94527344 77.24304688 78.46476562 77 79 C74.48025747 79.65035371 71.95934065 80.29537493 69.4375 80.9375 C68.73302734 81.11990234 68.02855469 81.30230469 67.30273438 81.49023438 C50.80184394 85.67248771 30.79028529 87.04480793 15.5390625 78.64453125 C5.56811326 72.46651785 -0.73877358 64.93699555 -3.97265625 53.5859375 C-8.18906454 34.95529621 -5.31041576 18.01235615 0 0 Z " fill="#1D03E0" transform="translate(112,292)"/>
<path d="M0 0 C5.82226562 19.72265625 5.82226562 19.72265625 6 28 C6.03867187 29.17046875 6.07734375 30.3409375 6.1171875 31.546875 C6.36723901 45.38305865 4.78368168 58.99627837 -4.18359375 70.12109375 C-11.67521088 77.87048695 -22.64387072 83.4637778 -33.51098633 84.16113281 C-49.12110619 84.39349461 -63.52295494 84.50920036 -78 78 C-77.34 76.02 -76.68 74.04 -76 72 C-75.03900391 71.88785156 -75.03900391 71.88785156 -74.05859375 71.7734375 C-67.53703704 70.78208313 -63.32908719 69.07374067 -59 64 C-56.67374097 60.05547382 -56.6100204 56.52376337 -57 52 C-58.5666614 47.29343881 -58.5666614 47.29343881 -61.64453125 43.546875 C-63 42 -63 42 -62.9609375 40.125 C-62.54611678 38.62058354 -62.12924611 37.11673162 -61.7109375 35.61328125 C-60.9427499 32.97439136 -60.9427499 32.97439136 -60.5390625 30.10546875 C-60.36117188 29.14253906 -60.18328125 28.17960937 -60 27.1875 C-59.855625 26.29417969 -59.71125 25.40085937 -59.5625 24.48046875 C-56.9150357 20.27761918 -52.57318449 19.49563953 -48 18 C-46.8872168 17.63092529 -45.77443359 17.26185059 -44.62792969 16.8815918 C-41.53361499 15.86992443 -38.43495951 14.87298743 -35.33459473 13.88006592 C-24.68947397 10.45735423 -14.46447695 6.81946634 -4.640625 1.3984375 C-2 0 -2 0 0 0 Z " fill="#1D03E0" transform="translate(388,292)"/>
<path d="M0 0 C1.10529053 0.00346436 2.21058105 0.00692871 3.34936523 0.01049805 C14.76876622 0.16166543 25.37239961 1.78459983 35.9375 6.3125 C35.30754613 9.15857694 34.41914579 11.6123524 33.15234375 14.234375 C27.8050398 25.55604769 23.48747964 36.96564499 19.6640625 48.88671875 C19.35831299 49.80179199 19.05256348 50.71686523 18.73754883 51.65966797 C17.88825032 54.26876519 17.88825032 54.26876519 17.51831055 56.85986328 C17.00110911 59.49097368 16.51949612 61.13627011 14.9375 63.3125 C10.66797717 65.58083264 6.17265519 66.64853108 1.5 67.8125 C-1.14154783 68.53347 -3.7741319 69.28447994 -6.40625 70.0390625 C-7.06096786 70.22381134 -7.71568573 70.40856018 -8.39024353 70.59890747 C-14.33283947 72.30920538 -19.90558126 74.57251313 -25.5 77.1875 C-26.29011475 77.55681641 -27.08022949 77.92613281 -27.89428711 78.30664062 C-31.11692926 79.84146767 -34.29966013 81.43474749 -37.47265625 83.0703125 C-40.0625 84.3125 -40.0625 84.3125 -42.0625 84.3125 C-42.76396314 82.08768771 -43.44815954 79.85742632 -44.125 77.625 C-44.69927734 75.76294922 -44.69927734 75.76294922 -45.28515625 73.86328125 C-46.03163117 70.45350387 -46.254863 68.56439908 -45.0625 65.3125 C-43.41698038 64.59522222 -41.74827711 63.92924772 -40.0625 63.3125 C-38.78760734 61.51322961 -38.78760734 61.51322961 -38.0625 59.3125 C-37.69125 58.549375 -37.32 57.78625 -36.9375 57 C-35.30722874 51.99273827 -35.55957178 47.89510576 -37.6875 43.125 C-39.81050863 39.19208833 -42.17634762 37.43221948 -46.0625 35.3125 C-45.48719181 24.95695265 -41.09869395 17.41453758 -33.58984375 10.35546875 C-23.24494752 1.99321105 -12.95751354 -0.0656151 0 0 Z " fill="#1D03E0" transform="translate(154.0625,88.6875)"/>
<path d="M0 0 C1.56911133 -0.01836914 1.56911133 -0.01836914 3.16992188 -0.03710938 C9.16566345 -0.04841498 14.32104831 0.43950087 20.0625 2.1875 C20.01609375 2.98414062 19.9696875 3.78078125 19.921875 4.6015625 C19.67446116 11.34488334 19.67446116 11.34488334 21.6875 17.6875 C26.36187087 22.60964282 26.36187087 22.60964282 32.75390625 24.46484375 C37.02316676 24.51600666 40.94439058 24.37653159 45.0625 23.1875 C45.71384925 24.74770867 46.35832964 26.31078579 47 27.875 C47.53947266 29.18017578 47.53947266 29.18017578 48.08984375 30.51171875 C54.05031541 46.90900022 49.21437521 68.18167409 44.0625 84.1875 C40.22973817 83.02024981 36.76772655 81.57113262 33.21533203 79.7265625 C26.49532127 76.2777502 19.71139731 73.67761137 12.4921875 71.49609375 C11.35269653 71.14787315 11.35269653 71.14787315 10.19018555 70.7926178 C6.32308899 69.61629468 2.44951125 68.48115326 -1.44433594 67.39672852 C-11.94199652 64.34221055 -11.94199652 64.34221055 -14.52514648 61.34594727 C-15.33726289 59.25366751 -15.67740919 57.41231679 -15.9375 55.1875 C-16.30938711 53.85751424 -16.7014928 52.53302144 -17.11328125 51.21484375 C-17.49268546 49.851701 -17.87157617 48.48841524 -18.25 47.125 C-21.65070463 35.28098746 -26.32734087 24.07307322 -31.75341797 13.02099609 C-33.11828299 10.19790896 -33.9375 8.36959724 -33.9375 5.1875 C-31.58466625 4.53645849 -29.23041551 3.89157878 -26.875 3.25 C-26.21822266 3.06759766 -25.56144531 2.88519531 -24.88476562 2.69726562 C-16.56932305 0.4443132 -8.5847463 0.00526995 0 0 Z " fill="#1D03E0" transform="translate(343.9375,88.8125)"/>
<path d="M0 0 C9.92909885 6.37735443 17.02711605 14.39942732 20 26 C21.5405535 38.00975014 20.19880701 48.21236477 13.1875 58.25 C10.28640965 61.86531818 7.04766497 65.65764666 3 68 C2.01 67.67 1.02 67.34 0 67 C-0.268125 66.34 -0.53625 65.68 -0.8125 65 C-1.204375 64.34 -1.59625 63.68 -2 63 C-5.05908413 62.18415432 -5.05908413 62.18415432 -8 62 C-8 65.63 -8 69.26 -8 73 C-11.42232972 74.14077657 -14.08673217 74.09815117 -17.6875 74.0625 C-18.86699219 74.05347656 -20.04648438 74.04445313 -21.26171875 74.03515625 C-22.61716797 74.01775391 -22.61716797 74.01775391 -24 74 C-24.50559908 72.56445975 -25.0042749 71.1264798 -25.5 69.6875 C-25.7784375 68.88699219 -26.056875 68.08648437 -26.34375 67.26171875 C-27 65 -27 65 -27 62 C-30.41136476 61.9384058 -30.41136476 61.9384058 -34 63 C-35.59040839 65.28141342 -36.16506544 67.29874113 -37 70 C-46.10302571 65.63813351 -52.21341633 58.28709467 -56 49 C-56.61875 47.6078125 -56.61875 47.6078125 -57.25 46.1875 C-58.9898656 38.79307121 -58.99754332 32.96527109 -55.0625 26.3125 C-53.41015625 23.80078125 -53.41015625 23.80078125 -52 22 C-51.67 22 -51.34 22 -51 22 C-51 32.56 -51 43.12 -51 54 C-47.37 54 -43.74 54 -40 54 C-40.0314209 52.44571289 -40.0628418 50.89142578 -40.09521484 49.29003906 C-40.20374847 43.52787983 -40.27267437 37.76581103 -40.32958984 32.00292969 C-40.3597785 29.50798352 -40.40073412 27.0131436 -40.45263672 24.51855469 C-40.52535485 20.93397838 -40.55943674 17.3508038 -40.5859375 13.765625 C-40.61690521 12.64883362 -40.64787292 11.53204224 -40.67977905 10.38140869 C-40.68104873 7.46549167 -40.63048259 4.84703695 -40 2 C-37.14233398 -0.65869141 -37.14233398 -0.65869141 -34 -2 C-33.05511719 -2.40476563 -32.11023438 -2.80953125 -31.13671875 -3.2265625 C-21.00459225 -5.72489506 -9.20007908 -5.03708034 0 0 Z " fill="#13067E" transform="translate(269,189)"/>
<path d="M0 0 C2.61834493 1.43315741 5.14995884 2.99172628 7.6875 4.5625 C19.61732823 11.7694453 32.26926037 17.37575185 45 23 C39.91370242 37.32260912 25.27136478 49.55705527 12 56 C10.89591797 56.53947266 10.89591797 56.53947266 9.76953125 57.08984375 C0.87353001 60.71166789 -10.6010592 60.32467788 -19.55859375 57.078125 C-33.37241513 50.97794148 -48.35370823 39.03718885 -55 25 C-54 22 -54 22 -52.22851562 20.97607422 C-51.07899414 20.51998779 -51.07899414 20.51998779 -49.90625 20.0546875 C-49.04878174 19.70446533 -48.19131348 19.35424316 -47.30786133 18.9934082 C-46.38126709 18.6243335 -45.45467285 18.25525879 -44.5 17.875 C-37.44268523 14.96076749 -30.54636961 11.91666203 -23.8125 8.3125 C-23.11793701 7.9419751 -22.42337402 7.5714502 -21.70776367 7.18969727 C-17.02275941 4.64818861 -12.53013849 1.8814691 -8.17578125 -1.19921875 C-4.8580171 -2.42029891 -3.18920179 -1.42000955 0 0 Z " fill="#1D03E0" transform="translate(255,350)"/>
<path d="M0 0 C8.95109796 6.7060343 18.95645636 15.80232627 23.9375 25.9375 C23.6075 26.9275 23.2775 27.9175 22.9375 28.9375 C20.52693583 30.06324571 18.17652746 31.0183075 15.6875 31.9375 C8.54470166 34.72476425 1.72611908 37.9372474 -5.0625 41.5 C-5.92133789 41.94666016 -6.78017578 42.39332031 -7.66503906 42.85351562 C-12.72786368 45.53879233 -17.38206458 48.45523368 -21.95703125 51.91381836 C-24.77913288 53.28592784 -26.11071263 52.89262468 -29.0625 51.9375 C-31.28808594 50.84936523 -31.28808594 50.84936523 -33.546875 49.49609375 C-34.3915332 48.99851563 -35.23619141 48.5009375 -36.10644531 47.98828125 C-36.99944336 47.45589844 -37.89244141 46.92351562 -38.8125 46.375 C-48.01342339 40.99846042 -57.33506988 36.27470357 -67.0625 31.9375 C-68.06925781 31.48375 -69.07601562 31.03 -70.11328125 30.5625 C-72.09145323 29.67647585 -74.07586983 28.80439317 -76.0625 27.9375 C-71.38426758 14.7639699 -57.98369051 2.74031916 -45.953125 -3.69140625 C-30.24626033 -11.14155422 -14.51274345 -9.42866135 0 0 Z " fill="#1D03E0" transform="translate(276.0625,64.0625)"/>
<path d="M0 0 C17.96353851 3.97099393 37.34904033 10.14019239 53 20 C52.55982593 25.17204528 51.2547607 29.0483655 48.9375 33.69140625 C47.68683104 36.52966692 47.68683104 36.52966692 47 42 C42.71 42 38.42 42 34 42 C34 56.19 34 70.38 34 85 C30.37 85 26.74 85 23 85 C23.03222656 83.26234375 23.06445312 81.5246875 23.09765625 79.734375 C23.45588982 62.87996671 23.45588982 62.87996671 15.03125 49.00390625 C14.3609375 48.34261719 13.690625 47.68132812 13 47 C12.505 45.515 12.505 45.515 12 44 C11.34 44 10.68 44 10 44 C4.83393757 38.44901528 4.74285518 31.50979727 3.875 24.25 C3.56250681 21.79654103 3.24744627 19.34340756 2.9296875 16.890625 C2.77983398 15.72337891 2.62998047 14.55613281 2.47558594 13.35351562 C1.83831627 8.8599139 0.9762818 4.43111346 0 0 Z " fill="#2007E0" transform="translate(332,158)"/>
<path d="M0 0 C1.26098633 1.72387695 1.26098633 1.72387695 2.33203125 3.98828125 C2.73486328 4.83052246 3.13769531 5.67276367 3.55273438 6.54052734 C3.96845703 7.45527832 4.38417969 8.3700293 4.8125 9.3125 C5.46508789 10.71556396 5.46508789 10.71556396 6.13085938 12.14697266 C10.40615145 21.53341105 13.90648042 31.16571956 17 41 C17.20753906 41.65387695 17.41507812 42.30775391 17.62890625 42.98144531 C18.60395959 46.19128001 19 48.59484443 19 52 C12.61457071 51.32988431 6.2820699 50.48056857 -0.0625 49.5 C-1.7615685 49.23860485 -3.46078595 48.97817584 -5.16015625 48.71875 C-5.97758301 48.58936035 -6.79500977 48.4599707 -7.63720703 48.32666016 C-9.95967814 47.97416969 -9.95967814 47.97416969 -12.15576172 47.87255859 C-17.98684347 47.49767325 -20.81391005 45.34840169 -25 41.625 C-31.09379994 36.45407612 -37.3838852 31.85276412 -44.07226562 27.47900391 C-45.74687149 26.36608527 -47.37849811 25.18895934 -49 24 C-49 23.34 -49 22.68 -49 22 C-46.63494762 20.38816876 -44.28656913 18.92903064 -41.8125 17.5 C-41.06307129 17.06292725 -40.31364258 16.62585449 -39.54150391 16.17553711 C-31.02526763 11.30302465 -22.18557483 7.08553179 -13.25683594 3.02783203 C-11.82013242 2.37351336 -10.39011649 1.70415223 -8.96972656 1.01513672 C-5.55484799 -0.5888214 -3.543558 -1.49249144 0 0 Z " fill="#1D03DF" transform="translate(305,98)"/>
<path d="M0 0 C8.29985476 2.11247549 15.75874357 5.50280116 23.4375 9.25 C25.16323242 10.07177734 25.16323242 10.07177734 26.92382812 10.91015625 C34.19054603 14.42617726 41.58421804 18.04792231 48 23 C48 23.66 48 24.32 48 25 C46.66162109 26.15405273 46.66162109 26.15405273 44.7734375 27.43359375 C44.07911621 27.91256104 43.38479492 28.39152832 42.66943359 28.88500977 C41.91227051 29.39733154 41.15510742 29.90965332 40.375 30.4375 C33.69911261 34.94054812 33.69911261 34.94054812 27.5625 40.1328125 C18.19822851 48.86631513 9.18927354 49.83936942 -3.33862305 50.73144531 C-6.68358986 51.0689798 -9.86893253 51.76442003 -13.12548828 52.58325195 C-15.44510389 53.09895706 -17.63334932 53.15268714 -20 53 C-16.24737101 34.54957413 -9.60980439 16.22089161 0 0 Z " fill="#1D03DF" transform="translate(196,97)"/>
<path d="M0 0 C3.90618713 0.54972052 7.80808187 1.1197604 11.70703125 1.71875 C12.9590332 1.91017578 12.9590332 1.91017578 14.23632812 2.10546875 C15.94232674 2.36673617 17.64806139 2.62973359 19.35351562 2.89453125 C20.61131836 3.08595703 20.61131836 3.08595703 21.89453125 3.28125 C22.73467773 3.41063965 23.57482422 3.5400293 24.44042969 3.67333984 C27.00317226 4.03428498 27.00317226 4.03428498 29.61425781 4.12744141 C36.09234149 4.45515045 39.37980362 6.0312323 44.125 10.375 C45.39552449 11.46586607 46.67042363 12.55165372 47.94921875 13.6328125 C48.60325684 14.1887207 49.25729492 14.74462891 49.93115234 15.31738281 C53.44911381 18.17858064 57.18216472 20.71311094 60.9375 23.25 C61.99445068 23.96615479 61.99445068 23.96615479 63.07275391 24.69677734 C64.71186817 25.80275976 66.35541488 26.9021692 68 28 C66.8773831 31.36785071 66.56808277 31.54691462 63.6328125 33.1640625 C62.92125 33.55972412 62.2096875 33.95538574 61.4765625 34.36303711 C60.70054687 34.77948486 59.92453125 35.19593262 59.125 35.625 C58.32578125 36.06013916 57.5265625 36.49527832 56.703125 36.94360352 C50.87081168 40.08176509 44.96818825 43.06677146 39 45.9375 C38.2486377 46.30246582 37.49727539 46.66743164 36.72314453 47.04345703 C31.29114162 49.60018496 25.78591962 51.41234486 20 53 C0 14.87012987 0 14.87012987 0 0 Z " fill="#1D03DF" transform="translate(176,315)"/>
<path d="M0 0 C5.60110319 1.27485594 7.5535262 4.79931761 10.76953125 9.34375 C11.35541016 10.13523438 11.94128906 10.92671875 12.54492188 11.7421875 C13.72119425 13.33492035 14.88073612 14.94014153 16.0234375 16.55712891 C17.63284086 18.8262937 17.63284086 18.8262937 19.375 20.67333984 C24.9281707 26.93262493 25.49675713 34.4792064 26.58203125 42.46875 C26.79353399 43.8753081 27.00706186 45.28156324 27.22265625 46.6875 C28.07916559 52.432512 28.83269711 58.01974917 28.70703125 63.84375 C10.27392276 61.45856134 -6.97731611 53.44121965 -23.29296875 44.84375 C-22.83838864 37.97668871 -20.12777944 32.39454581 -17.23046875 26.21875 C-16.73385742 25.1565625 -16.23724609 24.094375 -15.72558594 23 C-12.97930712 17.20643178 -10.22591587 11.41248976 -7.04296875 5.84375 C-6.4809375 4.85375 -5.91890625 3.86375 -5.33984375 2.84375 C-3.29296875 0.84375 -3.29296875 0.84375 0 0 Z " fill="#1D03DF" transform="translate(138.29296875,242.15625)"/>
<path d="M0 0 C2.2265625 -0.00390625 2.2265625 -0.00390625 5.7265625 0.68359375 C5.9946875 1.23144531 6.2628125 1.77929688 6.5390625 2.34375 C8.82065194 6.95946548 11.17122614 11.52254584 13.63671875 16.04321289 C25.26510368 37.44021491 25.26510368 37.44021491 24.7265625 44.68359375 C14.0564578 50.34978728 3.2928763 54.9752839 -8.12011719 58.93603516 C-10.07396887 59.61434512 -12.02174237 60.31010046 -13.96875 61.0078125 C-18.60129739 62.62977319 -22.32240077 63.90541439 -27.2734375 63.68359375 C-27.04338172 61.60441034 -26.81295638 59.5252674 -26.58105469 57.44628906 C-26.37164837 55.56562085 -26.16403574 53.68475225 -25.95800781 51.80371094 C-25.6161099 48.72061391 -25.25821322 45.63965181 -24.8984375 42.55859375 C-24.785 41.51316406 -24.6715625 40.46773438 -24.5546875 39.390625 C-23.49647372 30.4858686 -21.63115692 24.80445538 -15.5859375 17.93359375 C-12.08290471 13.9356089 -9.05630978 9.90192818 -6.1484375 5.43359375 C-2.95271707 0.88784448 -2.95271707 0.88784448 0 0 Z " fill="#1D04DF" transform="translate(360.2734375,242.31640625)"/>
<path d="M0 0 C-0.47603774 2.12570312 -0.95592598 4.25054427 -1.4375 6.375 C-1.70433594 7.55835938 -1.97117187 8.74171875 -2.24609375 9.9609375 C-3 13 -3 13 -4 15 C-5.88414354 15.34283794 -7.78430419 15.59947316 -9.6875 15.8125 C-15.43106336 16.69245211 -18.14747022 17.65355615 -22 22 C-24.97190661 26.45785992 -25.92840432 30.71523693 -25 36 C-23.3318036 40.29453637 -20.98251436 43.58204485 -17 46 C-17.75 48.9375 -17.75 48.9375 -19 52 C-21.30494595 52.99480516 -22.56436784 53.12135658 -24.98852539 52.44604492 C-25.68453857 52.12740479 -26.38055176 51.80876465 -27.09765625 51.48046875 C-28.28657471 50.94329224 -28.28657471 50.94329224 -29.49951172 50.39526367 C-30.34529785 49.99670166 -31.19108398 49.59813965 -32.0625 49.1875 C-32.93922363 48.78313721 -33.81594727 48.37877441 -34.71923828 47.9621582 C-59.26951405 36.49936176 -59.26951405 36.49936176 -68 30 C-68 29.34 -68 28.68 -68 28 C-66.15417184 26.59825815 -64.24449428 25.28037491 -62.3125 24 C-50.4909222 16.11000208 -50.4909222 16.11000208 -39.8203125 6.80859375 C-35.46967139 4.01863968 -30.94603894 3.88210389 -25.875 3.375 C-23.89291222 3.15650213 -21.91113652 2.9351541 -19.9296875 2.7109375 C-18.95354492 2.60233398 -17.97740234 2.49373047 -16.97167969 2.38183594 C-13.04181929 1.87688181 -9.16817297 1.15504784 -5.28173828 0.38916016 C-3 0 -3 0 0 0 Z " fill="#1D03DF" transform="translate(324,315)"/>
<path d="M0 0 C10 0 10 0 12.078125 1.6171875 C12.46484375 2.36226562 12.8515625 3.10734375 13.25 3.875 C13.92869141 5.09316406 13.92869141 5.09316406 14.62109375 6.3359375 C15.07613281 7.21507812 15.53117188 8.09421875 16 9 C17.09465853 10.83902633 18.1986433 12.67253772 19.3125 14.5 C19.80363281 15.3353125 20.29476562 16.170625 20.80078125 17.03125 C21.85094163 18.92962357 21.85094163 18.92962357 23 20 C26.63 13.4 30.26 6.8 34 0 C37.96 0 41.92 0 46 0 C46 16.83 46 33.66 46 51 C42.37 51 38.74 51 35 51 C34.67 40.77 34.34 30.54 34 20 C32.535625 22.578125 31.07125 25.15625 29.5625 27.8125 C28.87136108 29.02450073 28.87136108 29.02450073 28.16625977 30.26098633 C27.80330811 30.90318115 27.44035645 31.54537598 27.06640625 32.20703125 C26.69459229 32.8616333 26.32277832 33.51623535 25.93969727 34.19067383 C24.8645343 36.14536412 24.8645343 36.14536412 24 39 C23.34 39 22.68 39 22 39 C20.76318359 37.25585938 20.76318359 37.25585938 19.3984375 34.84375 C18.95677246 34.07224609 18.51510742 33.30074219 18.06005859 32.50585938 C17.22595459 31.01795898 17.22595459 31.01795898 16.375 29.5 C14.60125 26.365 12.8275 23.23 11 20 C10.67 30.23 10.34 40.46 10 51 C6.7 51 3.4 51 0 51 C0 34.17 0 17.34 0 0 Z " fill="#F8F7FC" transform="translate(183,192)"/>
<path d="M0 0 C22 0 22 0 31 4 C34.99588684 9.06795404 35.70789843 12.62891417 35 19 C33.37607291 23.22221043 31.3578219 25.98953899 28 29 C29.97129246 35.57097487 32.60434427 41.42141499 35.79296875 47.49609375 C37 50 37 50 37 52 C33.37 52 29.74 52 26 52 C24.68504458 49.39704724 23.37295014 46.79271967 22.0625 44.1875 C21.68931641 43.44951172 21.31613281 42.71152344 20.93164062 41.95117188 C20.57392578 41.23896484 20.21621094 40.52675781 19.84765625 39.79296875 C19.51773682 39.1383667 19.18781738 38.48376465 18.84790039 37.80932617 C18 36 18 36 17 33 C15.02 32.67 13.04 32.34 11 32 C11 38.6 11 45.2 11 52 C7.37 52 3.74 52 0 52 C0 34.84 0 17.68 0 0 Z " fill="#F7F6FD" transform="translate(398,191)"/>
<path d="M0 0 C-0.17958252 0.944198 -0.17958252 0.944198 -0.36279297 1.9074707 C-1.8046036 9.64202403 -2.9918597 17.40240643 -4.125 25.1875 C-4.30675781 26.42564453 -4.48851562 27.66378906 -4.67578125 28.93945312 C-5.11886145 31.95939447 -5.56023475 34.97957447 -6 38 C-6.33 38 -6.66 38 -7 38 C-7 36.35 -7 34.7 -7 33 C-16.57 33 -26.14 33 -36 33 C-36 41.25 -36 49.5 -36 58 C-38.74842549 54.33543268 -40.80159615 50.70331566 -42.8125 46.625 C-43.15925781 45.9247168 -43.50601563 45.22443359 -43.86328125 44.50292969 C-53 25.86839025 -53 25.86839025 -53 20 C-43.80802633 15.03903774 -34.47163989 10.85579188 -24.6875 7.1875 C-23.69878906 6.8150415 -22.71007812 6.44258301 -21.69140625 6.05883789 C-5.23090032 0 -5.23090032 0 0 0 Z " fill="#1D03DF" transform="translate(168,158)"/>
<path d="M0 0 C3.3 0 6.6 0 10 0 C10 6.6 10 13.2 10 20 C16.27 20 22.54 20 29 20 C29 13.4 29 6.8 29 0 C31.97 0 34.94 0 38 0 C38 16.83 38 33.66 38 51 C35.03 51 32.06 51 29 51 C29 43.74 29 36.48 29 29 C22.73 29 16.46 29 10 29 C10 36.26 10 43.52 10 51 C6.7 51 3.4 51 0 51 C0 34.17 0 17.34 0 0 Z " fill="#FCFCFE" transform="translate(69,192)"/>
<path d="M0 0 C1.2684375 -0.00773438 2.536875 -0.01546875 3.84375 -0.0234375 C7.70218216 0.39703267 10.17046621 1.43277195 13.5 3.375 C13.5 7.335 13.5 11.295 13.5 15.375 C11.77473958 14.36588542 10.04947917 13.35677083 8.32421875 12.34765625 C5.14323377 10.65158503 2.4828474 10.21670385 -1.0625 10.1875 C-1.84753906 10.17332031 -2.63257813 10.15914062 -3.44140625 10.14453125 C-5.7243545 10.18332491 -5.7243545 10.18332491 -7.5 12.375 C-8.08350505 14.83209375 -8.08350505 14.83209375 -7.5 17.375 C-2.7496277 20.94443863 2.39914667 21.45254776 8.125 22.43359375 C12.53628406 23.66405609 15.39443664 25.58504027 17.8125 29.5 C19.18001237 35.21868807 19.79823173 41.0472455 16.625 46.25 C12.45746137 51.18800796 6.76629813 53.00073667 0.5 53.71875 C-5.94281176 53.91597893 -11.61665347 53.0721161 -17.5 50.375 C-18.5 49.375 -18.5 49.375 -18.59765625 46.43359375 C-18.58605469 45.23863281 -18.57445312 44.04367188 -18.5625 42.8125 C-18.55347656 41.61496094 -18.54445313 40.41742188 -18.53515625 39.18359375 C-18.52355469 38.25675781 -18.51195312 37.32992187 -18.5 36.375 C-18.01273437 36.808125 -17.52546875 37.24125 -17.0234375 37.6875 C-10.94274357 42.46360869 -6.17068603 42.98076957 1.4609375 42.78125 C4.67043615 42.57883951 4.67043615 42.57883951 7.5 40.375 C7.7502157 37.29134129 7.7502157 37.29134129 7.5 34.375 C4.22831267 32.48086523 1.35695804 31.96530775 -2.375 31.5 C-8.62604082 30.52541629 -12.07846271 29.13054243 -16.3125 24.3125 C-18.998678 19.92978852 -19.22895639 15.36172438 -18.5 10.375 C-14.92436162 2.32981365 -8.52158487 -0.05196088 0 0 Z " fill="#F7F6FE" transform="translate(307.5,190.625)"/>
<path d="M0 0 C1.27101563 -0.00515625 2.54203125 -0.0103125 3.8515625 -0.015625 C7.375 0.25 7.375 0.25 12.375 2.25 C12.375 5.88 12.375 9.51 12.375 13.25 C9.9 12.26 9.9 12.26 7.375 11.25 C3.73352357 10.89672215 3.73352357 10.89672215 -0.125 10.9375 C-2.05859375 10.91236328 -2.05859375 10.91236328 -4.03125 10.88671875 C-7.8038364 11.26807803 -9.6403282 11.97208109 -12.625 14.25 C-16.39441776 19.44919691 -16.41218046 25.0750066 -15.625 31.25 C-14.35848018 35.40364026 -12.64145969 38.32066543 -9.4375 41.25 C-2.18919025 43.8271768 4.45963428 42.07170314 11.375 39.25 C12.035 38.92 12.695 38.59 13.375 38.25 C13.48324843 39.8526782 13.56070645 41.45745748 13.625 43.0625 C13.67140625 43.95582031 13.7178125 44.84914062 13.765625 45.76953125 C13.375 48.25 13.375 48.25 11.671875 49.94921875 C4.33849762 54.10230492 -3.86228207 54.70448791 -12.0703125 52.6328125 C-18.56957023 49.75274927 -23.65469282 43.98956914 -26.5625 37.5625 C-29.11171332 29.45281514 -28.63017989 20.24729706 -25.0859375 12.54296875 C-21.68346501 7.2027245 -17.26909598 3.20922445 -11.30859375 1.046875 C-7.43396156 0.20867249 -3.96102593 -0.01613453 0 0 Z " fill="#F8F7FE" transform="translate(34.625,190.75)"/>
<path d="M0 0 C8.91 0 17.82 0 27 0 C27 2.97 27 5.94 27 9 C21.06 9 15.12 9 9 9 C9 12.3 9 15.6 9 19 C13.95 19 18.9 19 24 19 C24 21.97 24 24.94 24 28 C19.05 28 14.1 28 9 28 C9 32.62 9 37.24 9 42 C15.27 42 21.54 42 28 42 C28 44.97 28 47.94 28 51 C18.76 51 9.52 51 0 51 C0 34.17 0 17.34 0 0 Z " fill="#FEFDFE" transform="translate(133,192)"/>
<path d="M0 0 C4.29 0 8.58 0 13 0 C16.33333333 6.66666667 19.66666667 13.33333333 23 20 C23.2673999 19.42967041 23.5347998 18.85934082 23.81030273 18.27172852 C25.01714167 15.70093338 26.2272751 13.13170278 27.4375 10.5625 C28.06881836 9.21575195 28.06881836 9.21575195 28.71289062 7.84179688 C29.11572266 6.98779297 29.51855469 6.13378906 29.93359375 5.25390625 C30.30540771 4.46314697 30.67722168 3.6723877 31.06030273 2.85766602 C32 1 32 1 33 0 C35.01964199 -0.07244053 37.04167124 -0.08377188 39.0625 -0.0625 C40.71958984 -0.04896484 40.71958984 -0.04896484 42.41015625 -0.03515625 C43.26480469 -0.02355469 44.11945313 -0.01195312 45 0 C44.5153125 0.95777344 44.030625 1.91554687 43.53125 2.90234375 C42.10796049 5.72027796 40.70473092 8.54743349 39.30859375 11.37890625 C37.83622086 14.35806789 36.30911123 17.29502582 34.72265625 20.21484375 C29.26902845 30.55199147 27.78190012 39.34528781 28 51 C24.37 51 20.74 51 17 51 C17.13921875 49.99066406 17.2784375 48.98132813 17.421875 47.94140625 C19.05664103 29.98647272 9.46757905 14.64927816 0 0 Z " fill="#FAFAFE" transform="translate(449,192)"/>
<path d="M0 0 C0 2.97 0 5.94 0 9 C-4.29 9 -8.58 9 -13 9 C-13 23.19 -13 37.38 -13 52 C-16.63 52 -20.26 52 -24 52 C-24 38.14 -24 24.28 -24 10 C-27.96 10 -31.92 10 -36 10 C-36 7.03 -36 4.06 -36 1 C-31.03377796 0.85740363 -26.06755068 0.71499183 -21.10131836 0.57275391 C-19.41056168 0.52430257 -17.71980647 0.47580007 -16.02905273 0.42724609 C-13.60400771 0.35761398 -11.17895754 0.28816361 -8.75390625 0.21875 C-7.99348526 0.19687622 -7.23306427 0.17500244 -6.44960022 0.15246582 C-1.11387171 0 -1.11387171 0 0 0 Z " fill="#F8F8FD" transform="translate(379,191)"/>
<path d="M0 0 C13.86206897 0 13.86206897 0 18 3 C22.42482949 7.90318944 23.36158852 10.91313809 23.27734375 17.390625 C22.83208438 21.57982583 21.59233169 23.65725651 19 27 C13.03055638 31.74494236 8.31963264 30 0 30 C0 20.1 0 10.2 0 0 Z " fill="#F2F1FD" transform="translate(194,250)"/>
<path d="M0 0 C3.3 0 6.6 0 10 0 C10 16.83 10 33.66 10 51 C6.7 51 3.4 51 0 51 C0 34.17 0 17.34 0 0 Z " fill="#FFFFFF" transform="translate(255,192)"/>
<path d="M0 0 C4.07191554 1.38184616 7.26011242 3.72377338 10.74609375 6.203125 C11.43638672 6.68136719 12.12667969 7.15960938 12.83789062 7.65234375 C17.0028909 10.56587001 20.99649323 13.58845412 24.80859375 16.953125 C24.80859375 17.283125 24.80859375 17.613125 24.80859375 17.953125 C8.30859375 17.953125 -8.19140625 17.953125 -25.19140625 17.953125 C-19.56521934 12.32693809 -19.56521934 12.32693809 -16.52734375 10.12890625 C-15.88023437 9.65775391 -15.233125 9.18660156 -14.56640625 8.70117188 C-13.90640625 8.22744141 -13.24640625 7.75371094 -12.56640625 7.265625 C-11.89867187 6.78029297 -11.2309375 6.29496094 -10.54296875 5.79492188 C-2.47689484 -0.05298171 -2.47689484 -0.05298171 0 0 Z " fill="#1D03DE" transform="translate(250.19140625,125.046875)"/>
<path d="M0 0 C16.5 0 33 0 50 0 C44.37381309 5.62618691 44.37381309 5.62618691 41.3359375 7.82421875 C40.68882812 8.29537109 40.04171875 8.76652344 39.375 9.25195312 C38.715 9.72568359 38.055 10.19941406 37.375 10.6875 C36.70726562 11.17283203 36.03953125 11.65816406 35.3515625 12.15820312 C27.27458806 18.01400959 27.27458806 18.01400959 24.703125 17.8828125 C21.23044041 16.74866985 18.72423117 14.99431931 15.75 12.875 C15.18514893 12.47410156 14.62029785 12.07320313 14.03833008 11.66015625 C4.09114511 4.55200195 4.09114511 4.55200195 0 1 C0 0.67 0 0.34 0 0 Z " fill="#1D03DE" transform="translate(225,322)"/>
<path d="M0 0 C1.98 0 3.96 0 6 0 C7.828125 2.15234375 7.828125 2.15234375 9.25 4.9375 C10.94494096 8.64462146 10.94494096 8.64462146 14 11 C14.268125 10.113125 14.53625 9.22625 14.8125 8.3125 C16.91694725 2.44219978 16.91694725 2.44219978 19 0 C21.31 0 23.62 0 26 0 C26 9.57 26 19.14 26 29 C24.02 29 22.04 29 20 29 C19.67 23.39 19.34 17.78 19 12 C17.35 14.97 15.7 17.94 14 21 C9.60841671 19.5361389 9.12052567 17.02168662 7 13 C6.67 18.28 6.34 23.56 6 29 C4.02 29 2.04 29 0 29 C0 19.43 0 9.86 0 0 Z " fill="#F8F7FD" transform="translate(261,251)"/>
<path d="M0 0 C5.62930452 5.62930452 5.62930452 5.62930452 7.640625 8.26171875 C8.07117188 8.82310547 8.50171875 9.38449219 8.9453125 9.96289062 C9.37585938 10.53201172 9.80640625 11.10113281 10.25 11.6875 C10.69601562 12.26822266 11.14203125 12.84894531 11.6015625 13.44726562 C15.39842769 18.42346015 16.69620545 21.44627999 16.6796875 27.71484375 C15.27462433 34.50598243 10.33059526 39.75522032 6 45 C5.53384277 45.5779834 5.06768555 46.1559668 4.58740234 46.75146484 C3.41708686 48.18877566 2.21165695 49.59736385 1 51 C0.67 51 0.34 51 0 51 C0 34.17 0 17.34 0 0 Z " fill="#1D03DF" transform="translate(339,207)"/>
<path d="M0 0 C4.22788752 3.29981465 7.67299741 6.8118482 11.15234375 10.88574219 C14.27389442 14.45770688 17.63735883 17.78168435 21 21.125 C21.67289063 21.80175781 22.34578125 22.47851562 23.0390625 23.17578125 C27.20152391 27.33020702 31.48778742 31.22807229 36 35 C32.07216162 36.30927946 28.95471726 35.45249961 25 34.6875 C23.86510132 34.47710083 23.86510132 34.47710083 22.70727539 34.26245117 C21.18465817 33.97974182 19.66259151 33.69404981 18.14111328 33.40527344 C15.2430652 32.85672614 12.34037943 32.33479121 9.4375 31.8125 C7.95824566 31.54214594 6.47903897 31.27152983 5 31 C2.27772325 20.72794239 1.00693996 10.55510009 0 0 Z " fill="#1D03DD" transform="translate(169,278)"/>
<path d="M0 0 C-0.41137207 0.3810791 -0.82274414 0.7621582 -1.24658203 1.15478516 C-8.82718913 8.18896646 -16.36250731 15.26136074 -23.6875 22.5625 C-24.25033691 23.1208252 -24.81317383 23.67915039 -25.39306641 24.25439453 C-28.8099283 27.68362516 -31.95156671 31.23894594 -35 35 C-35.9501026 31.92408108 -35.99711818 29.65260533 -35.51171875 26.48046875 C-35.38216797 25.62259766 -35.25261719 24.76472656 -35.11914062 23.88085938 C-34.97669922 22.99205078 -34.83425781 22.10324219 -34.6875 21.1875 C-34.49124023 19.87168945 -34.49124023 19.87168945 -34.29101562 18.52929688 C-33.51998709 13.549272 -32.50281531 8.81032149 -31 4 C-27.83432793 3.34922827 -24.66729923 2.7053016 -21.5 2.0625 C-20.613125 1.88009766 -19.72625 1.69769531 -18.8125 1.50976562 C-4.28396739 -1.42798913 -4.28396739 -1.42798913 0 0 Z " fill="#1D03DD" transform="translate(205,152)"/>
<path d="M0 0 C10.46596237 1.16899711 20.70216131 2.78063821 31 5 C33.70607824 15.39637502 35.65832692 25.22021417 36 36 C32.91935951 32.9225213 29.84451983 29.8394719 26.77577209 26.75012207 C24.60948352 24.57030193 22.44039722 22.39327392 20.27124023 20.21630859 C19.13297095 19.07299768 17.99559905 17.92879265 16.85913086 16.78369141 C15.20145862 15.11380045 13.54049798 13.44723991 11.87890625 11.78125 C11.37871475 11.27589722 10.87852325 10.77054443 10.36317444 10.24987793 C7.87876648 7.7650822 5.35404906 5.42613964 2.63256836 3.20117188 C1.7638208 2.47478516 0.89507324 1.74839844 0 1 C0 0.67 0 0.34 0 0 Z " fill="#1D03DD" transform="translate(295,151)"/>
<path d="M0 0 C0.33 0 0.66 0 1 0 C0.49482144 6.36524992 -0.38600126 12.59274459 -1.5 18.875 C-1.63059814 19.61226318 -1.76119629 20.34952637 -1.89575195 21.10913086 C-2.49729006 24.43759093 -3.15572703 27.72527169 -4 31 C-7.93097121 31.73993409 -11.86362517 32.47005957 -15.7980957 33.19116211 C-17.13615922 33.43782247 -18.47373343 33.6871528 -19.81079102 33.93920898 C-21.73322753 34.30113818 -23.65761367 34.65266294 -25.58203125 35.00390625 C-26.73936768 35.21861572 -27.8967041 35.4333252 -29.08911133 35.65454102 C-32 36 -32 36 -35 35 C-34.1028125 34.175 -33.205625 33.35 -32.28125 32.5 C-25.17170389 25.9313453 -18.16681926 19.27274416 -11.3125 12.4375 C-10.6421875 11.77169922 -9.971875 11.10589844 -9.28125 10.41992188 C-5.95757378 7.08609186 -2.91938242 3.70072564 0 0 Z " fill="#1D03DE" transform="translate(330,278)"/>
<path d="M0 0 C1.134375 0.020625 2.26875 0.04125 3.4375 0.0625 C4.94791757 4.14205572 6.4440145 8.22671836 7.9375 12.3125 C8.36675781 13.47136719 8.79601562 14.63023437 9.23828125 15.82421875 C9.84736328 17.49677734 9.84736328 17.49677734 10.46875 19.203125 C10.84580078 20.22954102 11.22285156 21.25595703 11.61132812 22.31347656 C12.4375 25.0625 12.4375 25.0625 12.4375 29.0625 C10.4575 29.0625 8.4775 29.0625 6.4375 29.0625 C5.7775 27.4125 5.1175 25.7625 4.4375 24.0625 C1.1375 24.0625 -2.1625 24.0625 -5.5625 24.0625 C-6.5525 26.5375 -6.5525 26.5375 -7.5625 29.0625 C-9.5425 29.0625 -11.5225 29.0625 -13.5625 29.0625 C-12.89769127 22.96495741 -10.67939573 17.46043727 -8.5625 11.75 C-8.00949219 10.22922852 -8.00949219 10.22922852 -7.4453125 8.67773438 C-4.28779379 0.07522445 -4.28779379 0.07522445 0 0 Z " fill="#F2F1FC" transform="translate(238.5625,250.9375)"/>
<path d="M0 0 C11.55555556 0 11.55555556 0 16 3 C18.83086382 7.24629573 18.76307511 11.0161657 18 16 C15.34246786 19.94603257 13.84147176 20.82066995 9.1875 21.8125 C7.6096875 21.9053125 7.6096875 21.9053125 6 22 C6 24.64 6 27.28 6 30 C4.02 30 2.04 30 0 30 C0 20.1 0 10.2 0 0 Z " fill="#F4F2FD" transform="translate(300,250)"/>
<path d="M0 0 C3.63 0 7.26 0 11 0 C11.33 5.28 11.66 10.56 12 16 C15.44098366 12.23190786 15.44098366 12.23190786 18.87988281 8.46191406 C19.31655273 7.98463867 19.75322266 7.50736328 20.203125 7.015625 C20.86296387 6.29294434 20.86296387 6.29294434 21.53613281 5.55566406 C23.31612658 3.6640496 25.16334773 1.83665227 27 0 C30.96 0 34.92 0 39 0 C39 17.16 39 34.32 39 52 C38.67 52 38.34 52 38 52 C38 35.17 38 18.34 38 1 C35.03 1 32.06 1 29 1 C29 7.6 29 14.2 29 21 C22.73 21 16.46 21 10 21 C10 14.4 10 7.8 10 1 C6.7 1 3.4 1 0 1 C0 0.67 0 0.34 0 0 Z " fill="#422DE3" transform="translate(69,191)"/>
<path d="M0 0 C-0.33 8.58 -0.66 17.16 -1 26 C-0.34 26 0.32 26 1 26 C1 29.3 1 32.6 1 36 C0.67 36 0.34 36 0 36 C0 33.03 0 30.06 0 27 C-6.27 27 -12.54 27 -19 27 C-19 22.38 -19 17.76 -19 13 C-14.05 13 -9.1 13 -4 13 C-4.061875 11.5975 -4.12375 10.195 -4.1875 8.75 C-4.19747066 5.58431672 -4.14054302 4.25053321 -2.5625 1.4375 C-1 0 -1 0 0 0 Z " fill="#2C15DD" transform="translate(161,207)"/>
<path d="M0 0 C9.57 0 19.14 0 29 0 C29 3.63 29 7.26 29 11 C27.35 11 25.7 11 24 11 C23.566875 11.8971875 23.566875 11.8971875 23.125 12.8125 C22 15 22 15 20 18 C21.65 18.33 23.3 18.66 25 19 C25 19.33 25 19.66 25 20 C20.05 20 15.1 20 10 20 C10 16.7 10 13.4 10 10 C15.94 10 21.88 10 28 10 C28 7.03 28 4.06 28 1 C19.09 1 10.18 1 1 1 C1 17.83 1 34.66 1 52 C0.67 52 0.34 52 0 52 C0 34.84 0 17.68 0 0 Z " fill="#5C4AE1" transform="translate(132,191)"/>
<path d="M0 0 C5.38422078 -0.27377394 8.54453408 -0.37535297 13 3 C14 4 14 4 14.375 7.3125 C14 11 14 11 12.0625 13.4375 C7.79922201 15.61264183 4.75340242 15.28378522 0 15 C0 10.05 0 5.1 0 0 Z " fill="#2007E0" transform="translate(409,200)"/>
<path d="M0 0 C6 0 6 0 8.875 2 C11.27363568 5.3863092 11.62616589 7.03700712 11.3671875 11.06640625 C10.83724631 13.857054 9.74638934 15.78342892 8 18 C6 19 6 19 0 19 C0 12.73 0 6.46 0 0 Z " fill="#240AE1" transform="translate(200,256)"/>
<path d="M0 0 C4.29 0 8.58 0 13 0 C12.01 0.33 11.02 0.66 10 1 C9.731875 1.804375 9.46375 2.60875 9.1875 3.4375 C8.07946944 6.76159169 6.89897197 8.66520598 4.9375 11.5 C1.0625712 17.66594511 1.02054047 23.87245702 1 31 C0.67 31 0.34 31 0 31 C0 20.77 0 10.54 0 0 Z " fill="#311AD9" transform="translate(366,200)"/>
<path d="M0 0 C3.63 0 7.26 0 11 0 C11.84681133 5.08086796 12.09038099 9.84828377 12 15 C7.47619711 10.75036698 3.61682339 6.04479113 0 1 C0 0.67 0 0.34 0 0 Z " fill="#1D03DD" transform="translate(149,243)"/>
<path d="M0 0 C0.66 0 1.32 0 2 0 C3.95031692 4.07723734 4.21581971 7.31692422 4.125 11.8125 C4.10695313 12.97394531 4.08890625 14.13539063 4.0703125 15.33203125 C4.04710937 16.21246094 4.02390625 17.09289062 4 18 C1.86035769 15.28690889 0.15979455 12.62661824 -1.3125 9.5 C-1.67988281 8.7471875 -2.04726563 7.994375 -2.42578125 7.21875 C-3 5 -3 5 -2.16796875 2.78125 C-1 1 -1 1 0 0 Z " fill="#1A0D84" transform="translate(428,217)"/>
<path d="M0 0 C1.65 0 3.3 0 5 0 C7.15502531 3.23253796 7.46856135 4.25150923 7 8 C5.75 9.8125 5.75 9.8125 4 11 C2.68 11 1.36 11 0 11 C0 7.37 0 3.74 0 0 Z " fill="#2A11E2" transform="translate(306,256)"/>
<path d="M0 0 C6.30162703 0.59449312 6.30162703 0.59449312 8.9375 2.125 C10.58420065 5.03094231 10.18462917 7.73821805 10 11 C9.01 11 8.02 11 7 11 C5.4296875 9.1015625 5.4296875 9.1015625 3.875 6.625 C3.35679687 5.81289062 2.83859375 5.00078125 2.3046875 4.1640625 C1 2 1 2 0 0 Z " fill="#1B0D85" transform="translate(413,200)"/>
<path d="M0 0 C2.31 0 4.62 0 7 0 C6.21516341 1.48280196 5.42190666 2.9611498 4.625 4.4375 C4.18414062 5.26121094 3.74328125 6.08492187 3.2890625 6.93359375 C2 9 2 9 0 10 C0 6.7 0 3.4 0 0 Z " fill="#100280" transform="translate(143,220)"/>
<path d="M0 0 C0.99 0.33 1.98 0.66 3 1 C0.525 5.455 0.525 5.455 -2 10 C-2.99 9.67 -3.98 9.34 -5 9 C-5.6875 6.9375 -5.6875 6.9375 -6 5 C-1.60546875 0.99609375 -1.60546875 0.99609375 0 0 Z " fill="#2810DF" transform="translate(277,252)"/>
<path d="M0 0 C0.66 0 1.32 0 2 0 C2.66 2.97 3.32 5.94 4 9 C2.02 9 0.04 9 -2 9 C-1.34 6.03 -0.68 3.06 0 0 Z " fill="#3923DA" transform="translate(237,259)"/>
</svg>
