<?xml version="1.0" encoding="UTF-8"?>
<svg version="1.1" xmlns="http://www.w3.org/2000/svg" width="500" height="500">
<path d="M0 0 C10 0 10 0 12.078125 1.6171875 C12.46484375 2.36226562 12.8515625 3.10734375 13.25 3.875 C13.92869141 5.09316406 13.92869141 5.09316406 14.62109375 6.3359375 C15.07613281 7.21507812 15.53117188 8.09421875 16 9 C17.09465853 10.83902633 18.1986433 12.67253772 19.3125 14.5 C19.80363281 15.3353125 20.29476562 16.170625 20.80078125 17.03125 C21.85094163 18.92962357 21.85094163 18.92962357 23 20 C26.63 13.4 30.26 6.8 34 0 C37.96 0 41.92 0 46 0 C46 17.16 46 34.32 46 52 C42 53 42 53 35 53 C34.67 43.1 34.34 33.2 34 23 C30.79326987 28.54634224 30.79326987 28.54634224 27.59814453 34.09936523 C27.19708496 34.78716064 26.79602539 35.47495605 26.3828125 36.18359375 C25.97434082 36.89056396 25.56586914 37.59753418 25.14501953 38.32592773 C24 40 24 40 22 41 C18.7 35.39 15.4 29.78 12 24 C11.67 33.57 11.34 43.14 11 53 C4 53 4 53 0 52 C0 34.84 0 17.68 0 0 Z " fill="#000000" transform="translate(183,191)"/>
<path d="M0 0 C3.22333025 2.63129 4.69005131 4.07015392 6 8 C6.91638053 19.3842658 6.91638053 19.3842658 3 24 C1.67282515 25.3394635 0.34023808 26.67360736 -1 28 C-0.69707031 28.62567871 -0.39414062 29.25135742 -0.08203125 29.89599609 C1.28267165 32.7204062 2.64140247 35.54764837 4 38.375 C4.71542969 39.85226563 4.71542969 39.85226563 5.4453125 41.359375 C5.89648438 42.30039063 6.34765625 43.24140625 6.8125 44.2109375 C7.23144531 45.08024902 7.65039062 45.94956055 8.08203125 46.84521484 C9 49 9 49 9 51 C4.71 51 0.42 51 -4 51 C-5.33783337 48.04362715 -6.67043139 45.08508686 -8 42.125 C-8.3815625 41.28324219 -8.763125 40.44148438 -9.15625 39.57421875 C-9.5171875 38.76855469 -9.878125 37.96289062 -10.25 37.1328125 C-10.58515625 36.38918457 -10.9203125 35.64555664 -11.265625 34.87939453 C-12 33 -12 33 -12 31 C-13.98 31 -15.96 31 -18 31 C-18 37.27 -18 43.54 -18 50 C-21.63 50 -25.26 50 -29 50 C-29 32.84 -29 15.68 -29 -2 C-19.44621326 -3.91075735 -8.98286927 -4.30429153 0 0 Z M-18 8 C-18.07258946 10.18639453 -18.08373783 12.37500389 -18.0625 14.5625 C-18.05347656 15.76003906 -18.04445313 16.95757812 -18.03515625 18.19140625 C-18.02355469 19.11824219 -18.01195312 20.04507813 -18 21 C-13.61207242 22.02632882 -11.14898873 21.98429896 -7 20 C-4.84745634 17.85701707 -4.84745634 17.85701707 -4 15 C-4.25 11.75 -4.25 11.75 -6 9 C-9.13018775 7.46968599 -15.08229643 5.08229643 -18 8 Z " fill="#000000" transform="translate(427,193)"/>
<path d="M0 0 C3.63 0 7.26 0 11 0 C11 6.6 11 13.2 11 20 C16.61 20 22.22 20 28 20 C28 13.4 28 6.8 28 0 C31.63 0 35.26 0 39 0 C39 17.49 39 34.98 39 53 C32 53 32 53 28 52 C28 45.07 28 38.14 28 31 C22.39 31 16.78 31 11 31 C11 38.26 11 45.52 11 53 C2 53 2 53 0 52 C0 34.84 0 17.68 0 0 Z " fill="#000000" transform="translate(69,191)"/>
<path d="M0 0 C1 1 1 1 1.1328125 3.21484375 C1.13023437 4.11332031 1.12765625 5.01179687 1.125 5.9375 C1.12886719 7.28134766 1.12886719 7.28134766 1.1328125 8.65234375 C1 11 1 11 0 13 C-4 11 -4 11 -5.78125 9.9375 C-8.56736712 8.76026741 -10.73708249 8.80326387 -13.75 8.875 C-14.73484375 8.89304688 -15.7196875 8.91109375 -16.734375 8.9296875 C-17.48203125 8.95289063 -18.2296875 8.97609375 -19 9 C-19.66 10.32 -20.32 11.64 -21 13 C-17.73360492 16.96517612 -15.12429324 17.68291121 -10.125 18.5 C-4.74461444 19.52909662 -1.09807209 20.35726926 3 24 C5.79377783 28.19066674 6.0379589 32.01979193 6 37 C4.38439932 43.05850255 1.0813051 46.55857064 -4 50 C-12.55618874 52.85206291 -23.95012999 51.81309632 -32 48 C-33.14229879 44.57310364 -32.90861076 42.38897782 -32.5625 38.8125 C-32.46066406 37.72582031 -32.35882813 36.63914063 -32.25390625 35.51953125 C-32.17011719 34.68808594 -32.08632813 33.85664063 -32 33 C-31.45730469 33.42152344 -30.91460937 33.84304687 -30.35546875 34.27734375 C-29.64003906 34.82519531 -28.92460937 35.37304688 -28.1875 35.9375 C-27.12595703 36.75541016 -27.12595703 36.75541016 -26.04296875 37.58984375 C-21.25739616 40.89307837 -15.59328211 40.61032824 -10 40 C-7.15191594 38.49458937 -7.15191594 38.49458937 -6 36 C-5.67106744 33.81541477 -5.67106744 33.81541477 -7 32 C-10.55121692 30.3609768 -14.17780432 29.79374012 -18 29.125 C-23.26749835 28.11110558 -26.91077981 26.20888913 -30.63671875 22.26953125 C-32.45049788 19.25003074 -32.3992989 17.06559107 -32.375 13.5625 C-32.38273437 12.45003906 -32.39046875 11.33757812 -32.3984375 10.19140625 C-31.87940419 6.03405122 -30.63942889 3.29328497 -27.31640625 0.671875 C-17.79776471 -4.33124171 -9.93443108 -3.73751501 0 0 Z " fill="#010101" transform="translate(321,193)"/>
<path d="M0 0 C0 4.29 0 8.58 0 13 C-1.27875 12.34 -2.5575 11.68 -3.875 11 C-10.21085916 8.1962576 -15.88865742 7.92517256 -22.4375 10.1875 C-25.3863853 12.27329692 -26.42920579 13.75967595 -28 17 C-28.74495289 22.73815067 -29.45592448 29.68394205 -26.1875 34.75 C-22.81787842 38.21589649 -20.1373733 39.52251361 -15.328125 40.0390625 C-9.79155885 39.94616709 -4.56323505 38.0421567 0 35 C0 38.96 0 42.92 0 47 C-7.54193828 52.02795885 -15.27025791 51.87297421 -24 51 C-30.29985414 49.40138837 -34.46700571 45.32700696 -38 40 C-42.16786464 32.219986 -42.14113457 23.08605104 -40.53125 14.5 C-38.64060323 8.73802891 -35.03067704 3.76388611 -29.78515625 0.7109375 C-19.42121598 -4.08303155 -10.59017466 -4.03435225 0 0 Z " fill="#000000" transform="translate(48,193)"/>
<path d="M0 0 C9.57 0 19.14 0 29 0 C29 3.63 29 7.26 29 11 C23.06 10.67 17.12 10.34 11 10 C11 12.97 11 15.94 11 19 C15.62 19 20.24 19 25 19 C25 22.63 25 26.26 25 30 C18.07 29.505 18.07 29.505 11 29 C11 33.29 11 37.58 11 42 C17.27 42 23.54 42 30 42 C30 45.3 30 48.6 30 52 C20.1 52 10.2 52 0 52 C0 34.84 0 17.68 0 0 Z " fill="#010101" transform="translate(132,191)"/>
<path d="M0 0 C4.62 0 9.24 0 14 0 C15.29493195 2.39411837 16.58602172 4.7901788 17.875 7.1875 C18.23980469 7.86103516 18.60460937 8.53457031 18.98046875 9.22851562 C20.87359406 12.7566128 22.61080534 16.23455133 24 20 C24.2673999 19.42967041 24.5347998 18.85934082 24.81030273 18.27172852 C26.01714167 15.70093338 27.2272751 13.13170278 28.4375 10.5625 C29.06881836 9.21575195 29.06881836 9.21575195 29.71289062 7.84179688 C30.11572266 6.98779297 30.51855469 6.13378906 30.93359375 5.25390625 C31.30540771 4.46314697 31.67722168 3.6723877 32.06030273 2.85766602 C33 1 33 1 34 0 C36.18639453 -0.07258946 38.37500389 -0.08373783 40.5625 -0.0625 C42.35880859 -0.04896484 42.35880859 -0.04896484 44.19140625 -0.03515625 C45.11824219 -0.02355469 46.04507813 -0.01195312 47 0 C45.4390068 4.20512454 43.39703906 8.07415962 41.25 12 C40.5334878 13.34807286 39.81866799 14.69704649 39.10546875 16.046875 C37.83100904 18.45773279 36.5259576 20.83236566 35.17578125 23.203125 C30.19937902 32.60165705 30.02199609 41.58485347 30 52 C26.04 52 22.08 52 18 52 C18.04382813 50.87207031 18.08765625 49.74414062 18.1328125 48.58203125 C18.2896492 31.61266502 11.56892952 16.9303131 1.1796875 3.64453125 C0 2 0 2 0 0 Z " fill="#010101" transform="translate(448,191)"/>
<path d="M0 0 C0 3.63 0 7.26 0 11 C-3.96 11 -7.92 11 -12 11 C-12 25.19 -12 39.38 -12 54 C-22 54 -22 54 -24 53 C-24 39.14 -24 25.28 -24 11 C-30.435 11.495 -30.435 11.495 -37 12 C-37 8.37 -37 4.74 -37 1 C-31.89136231 0.85740867 -26.78271967 0.71499676 -21.67407227 0.57275391 C-19.93481306 0.52430114 -18.19555525 0.47579864 -16.45629883 0.42724609 C-13.9617549 0.3576177 -11.4672061 0.28816597 -8.97265625 0.21875 C-8.19036148 0.19687622 -7.40806671 0.17500244 -6.60206604 0.15246582 C-1.11387171 0 -1.11387171 0 0 0 Z " fill="#000000" transform="translate(379,190)"/>
<path d="M0 0 C3.96 0 7.92 0 12 0 C12 17.16 12 34.32 12 52 C8.04 52 4.08 52 0 52 C0 34.84 0 17.68 0 0 Z " fill="#000000" transform="translate(254,191)"/>
<path d="M0 0 C2.31 0 4.62 0 7 0 C8.92578125 2.15234375 8.92578125 2.15234375 10.3125 4.9375 C11.96552039 8.64982218 11.96552039 8.64982218 15 11 C15.268125 10.113125 15.53625 9.22625 15.8125 8.3125 C17.96610169 2.30508475 17.96610169 2.30508475 20 0 C22.64 0 25.28 0 28 0 C28 9.9 28 19.8 28 30 C25.69 30.33 23.38 30.66 21 31 C20.67 25.72 20.34 20.44 20 15 C18.35 17.64 16.7 20.28 15 23 C10.60841671 21.5361389 10.12052567 19.02168662 8 15 C7.67 20.28 7.34 25.56 7 31 C4.69 30.67 2.38 30.34 0 30 C0 20.1 0 10.2 0 0 Z " fill="#000000" transform="translate(260,250)"/>
<path d="M0 0 C2.20770805 -0.08165496 4.41630425 -0.13948488 6.625 -0.1875 C7.85476562 -0.22230469 9.08453125 -0.25710937 10.3515625 -0.29296875 C15.54425056 0.12400299 18.75843948 1.72576683 22.375 5.4375 C25.20109842 11.63317731 24.85167184 18.01914855 23 24.5 C20.1496543 28.06293213 17.39968671 29.78173232 13 31 C8.97075637 31.35405482 5.02757557 31.39309138 1 31 C0 30 0 30 -0.11352539 27.13256836 C-0.10828857 25.88096924 -0.10305176 24.62937012 -0.09765625 23.33984375 C-0.0962413 22.67537735 -0.09482635 22.01091095 -0.09336853 21.3263092 C-0.08775518 19.19666101 -0.07520054 17.06711661 -0.0625 14.9375 C-0.05748671 13.49674631 -0.05292351 12.05599097 -0.04882812 10.61523438 C-0.03778145 7.07678898 -0.02050792 3.53840461 0 0 Z M7 6 C7 12.27 7 18.54 7 25 C13.4723999 24.66369921 13.4723999 24.66369921 15.9375 22.5 C17.56541184 18.66961921 17.53460559 15.09613299 17 11 C16.13575439 8.40130685 16.13575439 8.40130685 14 7 C11.69 6.67 9.38 6.34 7 6 Z " fill="#010101" transform="translate(193,250)"/>
<path d="M0 0 C1.134375 0.020625 2.26875 0.04125 3.4375 0.0625 C4.86774742 3.99301772 6.29173081 7.92573069 7.70996094 11.8605957 C8.19327135 13.19878168 8.67828598 14.53635343 9.16503906 15.87329102 C9.86452345 17.79544556 10.55784277 19.71972804 11.25 21.64453125 C11.66894531 22.80186768 12.08789062 23.9592041 12.51953125 25.15161133 C13.4375 28.0625 13.4375 28.0625 13.4375 31.0625 C10.7975 30.7325 8.1575 30.4025 5.4375 30.0625 C5.1075 28.0825 4.7775 26.1025 4.4375 24.0625 C1.1375 24.0625 -2.1625 24.0625 -5.5625 24.0625 C-5.8925 26.0425 -6.2225 28.0225 -6.5625 30.0625 C-8.875 30.6875 -8.875 30.6875 -11.5625 31.0625 C-12.5525 30.4025 -13.5425 29.7425 -14.5625 29.0625 C-13.1602814 25.09188751 -11.75436752 21.12260953 -10.3449707 17.15454102 C-9.86575435 15.80366765 -9.38756069 14.45243105 -8.91040039 13.10083008 C-8.22548865 11.16131366 -7.53694371 9.22312119 -6.84765625 7.28515625 C-6.22709351 5.53344116 -6.22709351 5.53344116 -5.59399414 3.74633789 C-4.18234395 0.07337446 -4.18234395 0.07337446 0 0 Z M-1.5625 11.0625 C-1.8925 13.3725 -2.2225 15.6825 -2.5625 18.0625 C-1.2425 18.0625 0.0775 18.0625 1.4375 18.0625 C1.09522428 15.09184491 1.09522428 15.09184491 0.4375 12.0625 C-0.2225 11.7325 -0.8825 11.4025 -1.5625 11.0625 Z " fill="#010101" transform="translate(238.5625,249.9375)"/>
<path d="M0 0 C13 0 13 0 18 3 C20.35857464 6.03245311 20.35933916 9.26065814 20.25390625 13.03515625 C19.87642532 15.95627792 18.85858628 17.74314524 17 20 C13.77841364 22.33287288 10.89042645 22.17683757 7 22 C7 24.64 7 27.28 7 30 C4.69 30 2.38 30 0 30 C0 20.1 0 10.2 0 0 Z M7 6 C7 9.63 7 13.26 7 17 C11.5841963 15.54711014 11.5841963 15.54711014 13 14 C13.25005386 11.04182893 13.25005386 11.04182893 13 8 C12.34 7.34 11.68 6.68 11 6 C9.68 6 8.36 6 7 6 Z " fill="#010101" transform="translate(299,250)"/>
</svg>
